<svg width="694" height="140" viewBox="0 0 694 140" fill="none" xmlns="http://www.w3.org/2000/svg">
<path d="M33.142 139.982C26.9205 139.982 21.3168 138.874 16.331 136.658C11.3878 134.399 7.46733 131.075 4.5696 126.686C1.71449 122.297 0.286932 116.885 0.286932 110.45C0.286932 104.911 1.30966 100.33 3.35511 96.7074C5.40057 93.0852 8.19176 90.1875 11.7287 88.0142C15.2656 85.8409 19.25 84.2003 23.6818 83.0923C28.1563 81.9418 32.7798 81.1108 37.5526 80.5994C43.3054 80.0028 47.9716 79.4702 51.5511 79.0014C55.1307 78.4901 57.7301 77.723 59.3494 76.7003C61.0114 75.6349 61.8423 73.9943 61.8423 71.7784V71.3949C61.8423 66.5795 60.4148 62.8509 57.5597 60.2088C54.7045 57.5668 50.5923 56.2457 45.223 56.2457C39.5554 56.2457 35.0597 57.4815 31.7358 59.9531C28.4545 62.4247 26.2386 65.3437 25.0881 68.7102L3.48295 65.642C5.1875 59.6761 8 54.6903 11.9205 50.6847C15.8409 46.6364 20.6349 43.6108 26.3026 41.608C31.9702 39.5625 38.2344 38.5398 45.0952 38.5398C49.8253 38.5398 54.5341 39.0938 59.2216 40.2017C63.9091 41.3097 68.1918 43.142 72.0696 45.6989C75.9474 48.2131 79.0582 51.6435 81.402 55.9901C83.7884 60.3366 84.9815 65.7699 84.9815 72.2898V138H62.7372V124.513H61.9702C60.5639 127.24 58.5824 129.797 56.0256 132.183C53.5114 134.527 50.3366 136.423 46.5014 137.872C42.7088 139.278 38.2557 139.982 33.142 139.982ZM39.1506 122.979C43.7955 122.979 47.8224 122.062 51.2315 120.23C54.6406 118.355 57.2614 115.884 59.0938 112.815C60.9688 109.747 61.9062 106.402 61.9062 102.78V91.2102C61.1818 91.8068 59.946 92.3608 58.1989 92.8722C56.4943 93.3835 54.5767 93.831 52.446 94.2145C50.3153 94.598 48.206 94.9389 46.1179 95.2372C44.0298 95.5355 42.2188 95.7912 40.6847 96.0043C37.233 96.473 34.1435 97.2401 31.4162 98.3054C28.6889 99.3707 26.5369 100.862 24.9602 102.78C23.3835 104.655 22.5952 107.084 22.5952 110.067C22.5952 114.328 24.1506 117.545 27.2614 119.719C30.3722 121.892 34.3352 122.979 39.1506 122.979ZM108.249 138V39.8182H131.388V138H108.249ZM119.882 25.8835C116.217 25.8835 113.064 24.669 110.422 22.2401C107.78 19.7685 106.459 16.8068 106.459 13.3551C106.459 9.86079 107.78 6.89914 110.422 4.47016C113.064 1.99857 116.217 0.76278 119.882 0.76278C123.589 0.76278 126.743 1.99857 129.342 4.47016C131.984 6.89914 133.305 9.86079 133.305 13.3551C133.305 16.8068 131.984 19.7685 129.342 22.2401C126.743 24.669 123.589 25.8835 119.882 25.8835ZM155.182 138V39.8182H178.321V138H155.182ZM166.816 25.8835C163.151 25.8835 159.998 24.669 157.355 22.2401C154.713 19.7685 153.392 16.8068 153.392 13.3551C153.392 9.86079 154.713 6.89914 157.355 4.47016C159.998 1.99857 163.151 0.76278 166.816 0.76278C170.523 0.76278 173.676 1.99857 176.276 4.47016C178.918 6.89914 180.239 9.86079 180.239 13.3551C180.239 16.8068 178.918 19.7685 176.276 22.2401C173.676 24.669 170.523 25.8835 166.816 25.8835ZM202.116 138V39.8182H224.552V56.1818H225.575C227.364 50.5142 230.433 46.1463 234.779 43.0781C239.168 39.9673 244.175 38.4119 249.8 38.4119C251.079 38.4119 252.506 38.4758 254.083 38.6037C255.702 38.6889 257.045 38.8381 258.11 39.0511V60.3366C257.13 59.9957 255.575 59.6974 253.444 59.4418C251.356 59.1435 249.332 58.9943 247.371 58.9943C243.153 58.9943 239.36 59.9105 235.994 61.7429C232.67 63.5327 230.049 66.0256 228.131 69.2216C226.214 72.4176 225.255 76.1037 225.255 80.2798V138H202.116ZM296.622 7.09091V138H273.483V7.09091H296.622ZM348.669 139.982C342.448 139.982 336.844 138.874 331.858 136.658C326.915 134.399 322.995 131.075 320.097 126.686C317.242 122.297 315.814 116.885 315.814 110.45C315.814 104.911 316.837 100.33 318.882 96.7074C320.928 93.0852 323.719 90.1875 327.256 88.0142C330.793 85.8409 334.777 84.2003 339.209 83.0923C343.684 81.9418 348.307 81.1108 353.08 80.5994C358.833 80.0028 363.499 79.4702 367.078 79.0014C370.658 78.4901 373.257 77.723 374.877 76.7003C376.539 75.6349 377.37 73.9943 377.37 71.7784V71.3949C377.37 66.5795 375.942 62.8509 373.087 60.2088C370.232 57.5668 366.12 56.2457 360.75 56.2457C355.083 56.2457 350.587 57.4815 347.263 59.9531C343.982 62.4247 341.766 65.3437 340.615 68.7102L319.01 65.642C320.715 59.6761 323.527 54.6903 327.448 50.6847C331.368 46.6364 336.162 43.6108 341.83 41.608C347.498 39.5625 353.762 38.5398 360.623 38.5398C365.353 38.5398 370.061 39.0938 374.749 40.2017C379.436 41.3097 383.719 43.142 387.597 45.6989C391.475 48.2131 394.586 51.6435 396.929 55.9901C399.316 60.3366 400.509 65.7699 400.509 72.2898V138H378.265V124.513H377.498C376.091 127.24 374.11 129.797 371.553 132.183C369.039 134.527 365.864 136.423 362.029 137.872C358.236 139.278 353.783 139.982 348.669 139.982ZM354.678 122.979C359.323 122.979 363.35 122.062 366.759 120.23C370.168 118.355 372.789 115.884 374.621 112.815C376.496 109.747 377.434 106.402 377.434 102.78V91.2102C376.709 91.8068 375.473 92.3608 373.726 92.8722C372.022 93.3835 370.104 93.831 367.973 94.2145C365.843 94.598 363.733 94.9389 361.645 95.2372C359.557 95.5355 357.746 95.7912 356.212 96.0043C352.76 96.473 349.671 97.2401 346.944 98.3054C344.216 99.3707 342.064 100.862 340.488 102.78C338.911 104.655 338.123 107.084 338.123 110.067C338.123 114.328 339.678 117.545 342.789 119.719C345.9 121.892 349.863 122.979 354.678 122.979ZM424.799 138V7.09091H447.938V56.054H448.897C450.09 53.6676 451.773 51.1321 453.946 48.4474C456.12 45.7202 459.06 43.3977 462.767 41.4801C466.475 39.5199 471.205 38.5398 476.958 38.5398C484.543 38.5398 491.382 40.4787 497.476 44.3565C503.613 48.1918 508.471 53.8807 512.05 61.4233C515.672 68.9233 517.483 78.1278 517.483 89.0369C517.483 99.8182 515.715 108.98 512.178 116.523C508.641 124.065 503.826 129.818 497.732 133.781C491.638 137.744 484.735 139.726 477.022 139.726C471.397 139.726 466.73 138.788 463.023 136.913C459.316 135.038 456.333 132.78 454.074 130.138C451.858 127.453 450.132 124.918 448.897 122.531H447.554V138H424.799ZM447.49 88.9091C447.49 95.2585 448.385 100.82 450.175 105.592C452.007 110.365 454.628 114.094 458.037 116.778C461.489 119.42 465.665 120.741 470.566 120.741C475.679 120.741 479.962 119.378 483.414 116.651C486.865 113.881 489.465 110.109 491.212 105.337C493.002 100.521 493.897 95.0455 493.897 88.9091C493.897 82.8153 493.023 77.4034 491.276 72.6733C489.529 67.9432 486.929 64.2358 483.478 61.5511C480.026 58.8665 475.722 57.5241 470.566 57.5241C465.623 57.5241 461.425 58.8239 457.973 61.4233C454.522 64.0227 451.901 67.6662 450.111 72.3537C448.364 77.0412 447.49 82.5597 447.49 88.9091ZM614.754 65.7699L593.661 68.071C593.064 65.9403 592.02 63.9375 590.528 62.0625C589.08 60.1875 587.119 58.6747 584.648 57.5241C582.176 56.3736 579.151 55.7983 575.571 55.7983C570.756 55.7983 566.707 56.8423 563.426 58.9304C560.188 61.0185 558.589 63.7244 558.632 67.0483C558.589 69.9034 559.634 72.2259 561.764 74.0156C563.938 75.8054 567.517 77.2756 572.503 78.4261L589.25 82.0057C598.54 84.0085 605.443 87.1832 609.96 91.5298C614.52 95.8764 616.821 101.565 616.864 108.597C616.821 114.776 615.01 120.23 611.43 124.96C607.893 129.648 602.972 133.312 596.665 135.955C590.358 138.597 583.114 139.918 574.932 139.918C562.915 139.918 553.241 137.403 545.912 132.375C538.582 127.304 534.214 120.251 532.808 111.217L555.372 109.044C556.395 113.476 558.568 116.821 561.892 119.08C565.216 121.338 569.541 122.467 574.868 122.467C580.365 122.467 584.776 121.338 588.099 119.08C591.466 116.821 593.149 114.03 593.149 110.706C593.149 107.893 592.063 105.571 589.889 103.739C587.759 101.906 584.435 100.5 579.918 99.5199L563.17 96.0043C553.753 94.044 546.786 90.7415 542.268 86.0966C537.751 81.4091 535.514 75.4858 535.557 68.3267C535.514 62.2756 537.155 57.0341 540.479 52.6023C543.845 48.1278 548.511 44.6761 554.477 42.2472C560.486 39.7756 567.411 38.5398 575.251 38.5398C586.757 38.5398 595.813 40.9901 602.418 45.8906C609.065 50.7912 613.178 57.4176 614.754 65.7699ZM656.339 114.727C656.339 112.333 656.922 110.152 658.089 108.182C659.271 106.197 660.846 104.621 662.816 103.455C664.801 102.273 666.99 101.682 669.384 101.682C671.49 101.682 673.43 102.136 675.202 103.045C676.975 103.955 678.437 105.197 679.589 106.773C680.755 108.348 681.468 110.129 681.725 112.114H675.384C675.127 110.826 674.43 109.78 673.293 108.977C672.157 108.159 670.854 107.75 669.384 107.75C668.112 107.75 666.945 108.068 665.884 108.705C664.839 109.326 663.998 110.167 663.362 111.227C662.74 112.273 662.43 113.432 662.43 114.705C662.43 115.992 662.74 117.167 663.362 118.227C663.998 119.273 664.839 120.114 665.884 120.75C666.945 121.386 668.112 121.705 669.384 121.705C670.854 121.705 672.112 121.303 673.157 120.5C674.202 119.682 674.854 118.629 675.112 117.341H681.452C681.195 119.326 680.505 121.106 679.384 122.682C678.278 124.258 676.862 125.5 675.134 126.409C673.407 127.318 671.49 127.773 669.384 127.773C666.99 127.773 664.801 127.189 662.816 126.023C660.846 124.841 659.271 123.265 658.089 121.295C656.922 119.311 656.339 117.121 656.339 114.727ZM669.202 138.727C665.899 138.727 662.793 138.106 659.884 136.864C656.99 135.621 654.437 133.902 652.225 131.705C650.028 129.492 648.301 126.939 647.043 124.045C645.801 121.152 645.187 118.045 645.202 114.727C645.218 111.409 645.846 108.303 647.089 105.409C648.346 102.515 650.074 99.9697 652.271 97.7727C654.468 95.5606 657.013 93.8333 659.907 92.5909C662.801 91.3485 665.899 90.7273 669.202 90.7273C672.521 90.7273 675.627 91.3485 678.521 92.5909C681.43 93.8333 683.975 95.5606 686.157 97.7727C688.354 99.9697 690.074 102.515 691.316 105.409C692.558 108.303 693.187 111.409 693.202 114.727C693.218 118.045 692.604 121.152 691.362 124.045C690.119 126.939 688.399 129.492 686.202 131.705C684.005 133.902 681.452 135.621 678.543 136.864C675.634 138.106 672.521 138.727 669.202 138.727ZM669.202 131.932C671.581 131.932 673.816 131.485 675.907 130.591C677.998 129.697 679.824 128.47 681.384 126.909C682.96 125.333 684.187 123.508 685.066 121.432C685.96 119.341 686.407 117.114 686.407 114.75C686.392 112.371 685.937 110.136 685.043 108.045C684.165 105.955 682.937 104.129 681.362 102.568C679.786 100.992 677.96 99.7576 675.884 98.8636C673.808 97.9697 671.581 97.5227 669.202 97.5227C666.839 97.5227 664.619 97.9697 662.543 98.8636C660.468 99.7576 658.642 100.992 657.066 102.568C655.49 104.144 654.255 105.977 653.362 108.068C652.468 110.144 652.013 112.371 651.998 114.75C651.998 117.098 652.437 119.318 653.316 121.409C654.21 123.485 655.445 125.311 657.021 126.886C658.596 128.462 660.422 129.697 662.498 130.591C664.589 131.485 666.824 131.932 669.202 131.932Z" fill="url(#paint0_linear_1_12)"/>
<defs>
<linearGradient id="paint0_linear_1_12" x1="-7" y1="73" x2="699" y2="72.9999" gradientUnits="userSpaceOnUse">
<stop stop-color="#B483A9"/>
<stop offset="1" stop-color="#E48A7E"/>
</linearGradient>
</defs>
</svg>
