<svg xmlns="http://www.w3.org/2000/svg" viewBox="0 0 126.2 251.74"><defs><style>.cls-1{fill:#1c1c1b;}</style></defs><g id="Layer_2" data-name="Layer 2"><g id="Layer_1-2" data-name="Layer 1"><path class="cls-1" d="M29.59.21C14.42,2.9,7.08,29.25,1.07,40.79c-5.38,10.32,11,20.73,17.63,10.83,1.84-2.75,3.72-5.42,5.6-8.07.3,77.36,33.2,162.91,96.77,207.49,3.49,2.45,6.92-2.06,4.08-5C95.07,214.59,69.58,182.91,54,141.67A250.36,250.36,0,0,1,38.75,36.07c2.46,3.48,5,6.89,7.76,10.17A10.88,10.88,0,0,0,64.19,33.59C57.87,23,45.4-2.58,29.59.21Z"/></g></g></svg>