<svg width="894" height="279" viewBox="0 0 894 279" fill="none" xmlns="http://www.w3.org/2000/svg">
<rect x="322" y="9" width="60" height="87" fill="#1F232F"/>
<rect x="304" y="78" width="9" height="45" fill="#F4F4E4"/>
<rect x="295" y="78" width="27" height="9" fill="#F4F4E4"/>
<rect x="295" y="70" width="9" height="17" fill="#F4F4E4"/>
<rect x="304" y="61" width="9" height="9" fill="#F4F4E4"/>
<rect x="313" y="61" width="9" height="17" fill="#535E69"/>
<rect x="391" y="61" width="9" height="9" fill="#535E69"/>
<rect x="374" y="96" width="17" height="9" fill="#535E69"/>
<rect x="313" y="96" width="26" height="9" fill="#535E69"/>
<rect x="313" y="96" width="8" height="18" fill="#535E69"/>
<rect x="304" y="70" width="18" height="8" fill="#535E69"/>
<rect x="304" y="78" width="18" height="18" fill="#F4F4E4"/>
<rect x="313" width="9" height="61" fill="#F4F4E4"/>
<rect x="382" width="9" height="96" fill="#F4F4E4"/>
<rect x="374" y="61" width="17" height="18" fill="#F4F4E4"/>
<rect x="400" y="52" width="9" height="18" fill="#F4F4E4"/>
<rect x="391" y="87" width="9" height="27" fill="#F4F4E4"/>
<rect x="382" y="87" width="18" height="9" fill="#F4F4E4"/>
<rect x="382" y="52" width="27" height="9" fill="#F4F4E4"/>
<rect x="382" y="70" width="18" height="9" fill="#F4F4E4"/>
<rect x="374" y="105" width="26" height="9" fill="#F4F4E4"/>
<rect x="339" y="96" width="35" height="9" fill="#F4F4E4"/>
<rect x="321" y="105" width="18" height="9" fill="#F4F4E4"/>
<rect x="304" y="114" width="17" height="9" fill="#F4F4E4"/>
<rect x="339" y="61" width="17" height="18" fill="#F4F4E4"/>
<rect x="313" y="9" width="9" height="78" transform="rotate(-90 313 9)" fill="#F4F4E4"/>
<rect x="173" y="122" width="9" height="21" fill="#272B3D"/>
<rect x="173" y="131" width="18" height="12" fill="#272B3D"/>
<rect x="199" y="131" width="9" height="12" fill="#272B3D"/>
<rect x="382" y="131" width="9" height="12" fill="#272B3D"/>
<rect x="400" y="131" width="9" height="12" fill="#272B3D"/>
<rect x="9" y="146" width="857" height="38" fill="#272B3D"/>
<rect x="164" y="171" width="44" height="38" fill="#272B3D"/>
<rect x="193" y="163" width="44" height="38" fill="#272B3D"/>
<rect x="216" y="171" width="140" height="38" fill="#272B3D"/>
<rect x="351" y="163" width="67" height="38" fill="#272B3D"/>
<rect x="435" y="182" width="122" height="38" fill="#272B3D"/>
<rect x="583" y="171" width="139" height="38" fill="#272B3D"/>
<rect x="750" y="19" width="51" height="103" fill="#1D212D"/>
<rect x="791" y="117" width="13" height="19" fill="#1D212D"/>
<rect x="746" y="115" width="13" height="19" fill="#1D212D"/>
<rect x="749" y="11" width="9" height="25" fill="#F4F4E4"/>
<rect x="741" y="28" width="9" height="60" fill="#F4F4E4"/>
<rect x="750" y="88" width="9" height="25" fill="#F4F4E4"/>
<rect x="741" y="113" width="9" height="26" fill="#F4F4E4"/>
<rect x="758" y="131" width="9" height="35" transform="rotate(-90 758 131)" fill="#F4F4E4"/>
<rect x="784" y="139" width="9" height="26" transform="rotate(-90 784 139)" fill="#F4F4E4"/>
<rect x="758" y="71" width="9" height="18" transform="rotate(-90 758 71)" fill="#F4F4E4"/>
<rect x="758" y="53" width="9" height="18" fill="#F4F4E4"/>
<rect x="758" y="122" width="9" height="18" fill="#F4F4E4"/>
<rect x="784" y="122" width="9" height="18" fill="#F4F4E4"/>
<rect x="801" y="113" width="9" height="18" fill="#F4F4E4"/>
<rect x="792" y="88" width="9" height="25" fill="#F4F4E4"/>
<rect x="801" y="11" width="9" height="77" fill="#F4F4E4"/>
<rect x="784" y="11" width="26" height="8" fill="#F4F4E4"/>
<rect x="793" y="62" width="17" height="8" fill="#F4F4E4"/>
<rect x="758" y="4" width="26" height="8" fill="#F4F4E4"/>
<rect x="758" y="12" width="26" height="16" fill="#F4F4E4"/>
<rect x="741" y="139" width="9" height="26" transform="rotate(-90 741 139)" fill="#F4F4E4"/>
<rect x="741" y="28" width="35" height="8" fill="#F4F4E4"/>
<rect x="758" y="11" width="26" height="8" fill="#FF4F78"/>
<rect x="758" y="11" width="18" height="17" fill="#FF4F78"/>
<rect x="553" y="175" width="34" height="17" fill="#272B3D"/>
<rect x="114" y="172" width="54" height="21" fill="#272B3D"/>
<rect x="114" y="189" width="25" height="12" fill="#272B3D"/>
<rect x="129" y="197" width="10" height="12" fill="#272B3D"/>
<rect x="139" y="209" width="9" height="9" fill="#272B3D"/>
<rect x="155" y="191" width="11" height="10" fill="#272B3D"/>
<rect x="164" y="208" width="18" height="10" fill="#272B3D"/>
<rect x="173" y="215" width="9" height="21" fill="#272B3D"/>
<rect x="199" y="207" width="9" height="28" fill="#272B3D"/>
<rect x="190" y="208" width="11" height="10" fill="#272B3D"/>
<rect x="206" y="218" width="11" height="9" fill="#272B3D"/>
<rect x="225" y="207" width="18" height="11" fill="#272B3D"/>
<rect x="234" y="216" width="9" height="11" fill="#272B3D"/>
<rect x="260" y="208" width="18" height="28" fill="#272B3D"/>
<rect x="269" y="218" width="18" height="18" fill="#272B3D"/>
<rect x="304" y="208" width="9" height="54" fill="#272B3D"/>
<rect x="295" y="208" width="10" height="10" fill="#272B3D"/>
<rect x="312" y="218" width="10" height="10" fill="#272B3D"/>
<rect x="295" y="227" width="10" height="10" fill="#272B3D"/>
<rect x="312" y="235" width="10" height="11" fill="#272B3D"/>
<rect x="338" y="207" width="10" height="11" fill="#272B3D"/>
<rect x="365" y="197" width="9" height="39" fill="#272B3D"/>
<rect x="356" y="218" width="13" height="9" fill="#272B3D"/>
<rect x="382" y="200" width="27" height="9" fill="#272B3D"/>
<rect x="391" y="208" width="18" height="10" fill="#272B3D"/>
<rect x="391" y="217" width="9" height="19" fill="#272B3D"/>
<rect x="382" y="218" width="13" height="9" fill="#272B3D"/>
<rect x="330" y="207" width="9" height="20" fill="#272B3D"/>
<rect x="295" y="244" width="10" height="10" fill="#272B3D"/>
<rect x="251" y="218" width="18" height="9" fill="#272B3D"/>
<rect x="260" y="235" width="9" height="9" fill="#272B3D"/>
<rect x="155" y="218" width="9" height="9" fill="#272B3D"/>
<rect x="190" y="235" width="9" height="9" fill="#272B3D"/>
<rect x="225" y="227" width="9" height="9" fill="#272B3D"/>
<rect x="269" y="244" width="9" height="9" fill="#272B3D"/>
<rect x="295" y="262" width="9" height="9" fill="#272B3D"/>
<rect x="356" y="236" width="9" height="9" fill="#272B3D"/>
<rect x="435" y="262" width="9" height="9" fill="#272B3D"/>
<rect x="409" y="218" width="9" height="9" fill="#272B3D"/>
<rect x="415" y="180" width="12" height="12" fill="#272B3D"/>
<rect x="426" y="200" width="26" height="36" fill="#272B3D"/>
<rect x="426" y="227" width="9" height="35" fill="#272B3D"/>
<rect x="443" y="218" width="9" height="35" fill="#272B3D"/>
<rect x="461" y="217" width="9" height="45" fill="#272B3D"/>
<rect x="496" y="217" width="9" height="45" fill="#272B3D"/>
<rect x="522" y="217" width="9" height="45" fill="#272B3D"/>
<rect x="548" y="215" width="9" height="55" fill="#272B3D"/>
<rect x="592" y="207" width="9" height="28" fill="#272B3D"/>
<rect x="618" y="207" width="26" height="55" fill="#272B3D"/>
<rect x="679" y="207" width="26" height="28" fill="#272B3D"/>
<rect x="643" y="206" width="19" height="21" fill="#272B3D"/>
<rect x="617" y="269" width="27" height="10" fill="#272B3D"/>
<rect x="617" y="269" width="27" height="10" fill="#272B3D"/>
<rect x="626" y="244" width="27" height="26" fill="#272B3D"/>
<rect x="626" y="244" width="27" height="26" fill="#272B3D"/>
<rect x="487" y="218" width="69" height="18" fill="#272B3D"/>
<rect x="466" y="218" width="24" height="9" fill="#272B3D"/>
<rect x="462" y="235" width="17" height="9" fill="#272B3D"/>
<rect x="486" y="244" width="17" height="9" fill="#272B3D"/>
<rect x="504" y="235" width="20" height="9" fill="#272B3D"/>
<rect x="539" y="235" width="27" height="9" fill="#272B3D"/>
<rect x="539" y="253" width="15" height="9" fill="#272B3D"/>
<rect x="551" y="218" width="15" height="9" fill="#272B3D"/>
<rect x="574" y="191" width="15" height="10" fill="#272B3D"/>
<rect x="583" y="208" width="15" height="10" fill="#272B3D"/>
<rect x="551" y="189" width="15" height="21" fill="#272B3D"/>
<rect x="609" y="197" width="15" height="21" fill="#272B3D"/>
<rect x="638" y="215" width="15" height="21" fill="#272B3D"/>
<rect x="702" y="197" width="21" height="21" fill="#272B3D"/>
<rect x="717" y="214" width="28" height="27" fill="#272B3D"/>
<rect x="708" y="223" width="12" height="9" fill="#272B3D"/>
<rect x="717" y="237" width="10" height="13" fill="#272B3D"/>
<rect x="727" y="250" width="10" height="10" fill="#272B3D"/>
<rect x="792" y="213" width="10" height="10" fill="#272B3D"/>
<rect x="820" y="213" width="10" height="10" fill="#272B3D"/>
<rect x="847" y="195" width="10" height="10" fill="#272B3D"/>
<rect x="866" y="185" width="10" height="10" fill="#272B3D"/>
<rect x="884" y="146" width="10" height="30" fill="#272B3D"/>
<rect x="860" y="162" width="16" height="14" fill="#272B3D"/>
<rect x="773" y="179" width="19" height="34" fill="#272B3D"/>
<rect x="763" y="181" width="19" height="23" fill="#272B3D"/>
<rect x="782" y="172" width="19" height="23" fill="#272B3D"/>
<rect x="792" y="178" width="74" height="7" fill="#272B3D"/>
<rect x="809" y="182" width="11" height="31" fill="#272B3D"/>
<rect x="836" y="181" width="11" height="14" fill="#272B3D"/>
<rect x="818" y="195" width="11" height="10" fill="#272B3D"/>
<rect x="864" y="145" width="25" height="22" fill="#272B3D"/>
<rect x="720" y="184" width="18" height="17" fill="#272B3D"/>
<rect x="731" y="193" width="7" height="17" fill="#272B3D"/>
<rect x="717" y="147" width="47" height="75" fill="#272B3D"/>
<rect x="679" y="228" width="9" height="17" fill="#272B3D"/>
<rect x="670" y="218" width="15" height="9" fill="#272B3D"/>
<rect x="470" y="262" width="9" height="9" fill="#272B3D"/>
<rect x="513" y="262" width="9" height="9" fill="#272B3D"/>
<rect x="539" y="270" width="9" height="9" fill="#272B3D"/>
<rect x="574" y="218" width="9" height="9" fill="#272B3D"/>
<rect x="688" y="245" width="9" height="9" fill="#272B3D"/>
<rect x="339" y="227" width="9" height="9" fill="#272B3D"/>
<rect x="114" y="198" width="7" height="15" fill="#272B3D"/>
<rect x="112" y="231" width="9" height="8" fill="#272B3D"/>
<rect x="103" y="182" width="9" height="49" fill="#272B3D"/>
<rect x="93" y="213" width="16" height="10" fill="#272B3D"/>
<rect x="93" y="183" width="16" height="12" fill="#272B3D"/>
<rect x="78" y="174" width="16" height="12" fill="#272B3D"/>
<rect x="56" y="178" width="28" height="26" fill="#272B3D"/>
<rect x="47" y="182" width="18" height="13" fill="#272B3D"/>
<rect x="56" y="201" width="9" height="13" fill="#272B3D"/>
<rect x="65" y="214" width="10" height="10" fill="#272B3D"/>
<rect x="37" y="195" width="10" height="10" fill="#272B3D"/>
<rect x="18" y="181" width="10" height="14" fill="#272B3D"/>
<rect x="9" y="172" width="41" height="14" fill="#272B3D"/>
<rect y="146" width="41" height="30" fill="#272B3D"/>
<rect x="110" y="164" width="9" height="49" fill="#272B3D"/>
<rect y="139" width="894" height="9" fill="#535E69"/>
</svg>
