<svg width="890" height="298" viewBox="0 0 890 298" fill="none" xmlns="http://www.w3.org/2000/svg">
<rect x="166" y="16" width="73" height="105" fill="#1F232F"/>
<rect x="146" y="87" width="13" height="12" fill="#535E69"/>
<rect x="147" y="88" width="11" height="12" fill="#535E69"/>
<rect x="328" y="37" width="11" height="10" transform="rotate(-90 328 37)" fill="#F4F4E4"/>
<rect x="166" y="120" width="23" height="10" fill="#535E69"/>
<rect x="217" y="120" width="22" height="10" fill="#535E69"/>
<rect x="238" y="87" width="9" height="23" fill="#535E69"/>
<rect x="254" y="87" width="3" height="13" fill="#535E69"/>
<rect x="246" y="87" width="10" height="19" fill="#535E69"/>
<rect x="158" y="8" width="9" height="130" fill="#F4F4E4"/>
<rect x="388" y="37" width="11" height="10" transform="rotate(-90 388 37)" fill="#F4F4E4"/>
<rect x="367" y="19" width="11" height="13" transform="rotate(-90 367 19)" fill="#1D212D"/>
<rect x="164" y="68" width="14" height="20" fill="#F4F4E4"/>
<rect x="198" y="68" width="20" height="20" fill="#F4F4E4"/>
<rect x="158" y="17" width="9" height="89" transform="rotate(-90 158 17)" fill="#F4F4E4"/>
<rect x="319" y="54" width="9" height="88" transform="rotate(-90 319 54)" fill="#F4F4E4"/>
<rect x="337" y="37" width="11" height="52" transform="rotate(-90 337 37)" fill="#1D212D"/>
<rect x="327" y="27" width="9" height="72" transform="rotate(-90 327 27)" fill="#4D5762"/>
<rect x="327" y="45" width="9" height="72" transform="rotate(-90 327 45)" fill="#4D5762"/>
<rect x="338" y="63" width="9" height="50" transform="rotate(-90 338 63)" fill="#FF4F78"/>
<rect x="348" y="81" width="9" height="30" transform="rotate(-90 348 81)" fill="#FF4F78"/>
<rect x="360" y="99" width="9" height="9" transform="rotate(-90 360 99)" fill="#FF4F78"/>
<rect x="346" y="36" width="9" height="9" transform="rotate(-90 346 36)" fill="#FF4F78"/>
<rect x="319" y="18" width="9" height="49" transform="rotate(-90 319 18)" fill="#F4F4E4"/>
<rect x="359" y="18" width="18" height="9" transform="rotate(-90 359 18)" fill="#F4F4E4"/>
<rect x="379" y="18" width="18" height="9" transform="rotate(-90 379 18)" fill="#F4F4E4"/>
<rect x="398" y="27" width="18" height="9" transform="rotate(-90 398 27)" fill="#F4F4E4"/>
<rect x="319" y="27" width="18" height="9" transform="rotate(-90 319 27)" fill="#F4F4E4"/>
<rect x="319" y="54" width="18" height="9" transform="rotate(-90 319 54)" fill="#F4F4E4"/>
<rect x="398" y="54" width="18" height="9" transform="rotate(-90 398 54)" fill="#F4F4E4"/>
<rect x="379" y="18" width="9" height="28" transform="rotate(-90 379 18)" fill="#F4F4E4"/>
<rect x="359" y="9" width="9" height="29" transform="rotate(-90 359 9)" fill="#F4F4E4"/>
<rect x="158" y="138" width="9" height="39" transform="rotate(-90 158 138)" fill="#F4F4E4"/>
<rect x="8" y="298" width="92" height="67" transform="rotate(-90 8 298)" fill="#2F3649"/>
<rect x="27" y="252" width="67" height="686" transform="rotate(-90 27 252)" fill="#2F3649"/>
<rect x="118" y="207" width="67" height="320" transform="rotate(-90 118 207)" fill="#2F3649"/>
<rect x="18" y="207" width="11" height="10" transform="rotate(-90 18 207)" fill="#2F3649"/>
<rect x="17" y="207" width="10" height="10" transform="rotate(-90 17 207)" fill="#2F3649"/>
<rect x="575" y="188" width="10" height="17" transform="rotate(-90 575 188)" fill="#2F3649"/>
<rect x="649" y="47" width="10" height="10" transform="rotate(-90 649 47)" fill="#4E809C"/>
<rect x="658" y="46" width="18" height="10" transform="rotate(-90 658 46)" fill="#2F3649"/>
<rect x="860" y="46" width="9" height="8" transform="rotate(-90 860 46)" fill="#4E809C"/>
<rect x="852" y="46" width="18" height="10" transform="rotate(-90 852 46)" fill="#2F3649"/>
<rect x="872" y="144" width="10" height="17" fill="#2F3649"/>
<rect x="797" y="145" width="10" height="17" fill="#2F3649"/>
<rect x="667" y="26" width="186" height="67" fill="#2F3649"/>
<rect x="574" y="260" width="10" height="17" transform="rotate(-90 574 260)" fill="#2F3649"/>
<rect x="640" y="298" width="252" height="73" transform="rotate(-90 640 298)" fill="#2F3649"/>
<rect x="800" y="298" width="252" height="73" transform="rotate(-90 800 298)" fill="#2F3649"/>
<rect x="127" y="197" width="9" height="30" transform="rotate(-90 127 197)" fill="#1D212D"/>
<rect x="127" y="179" width="9" height="18" fill="#1D212D"/>
<rect x="148" y="179" width="9" height="18" fill="#1D212D"/>
<rect x="248" y="179" width="9" height="18" fill="#1D212D"/>
<rect x="27" y="188" width="9" height="109" transform="rotate(-90 27 188)" fill="#1D212D"/>
<rect x="118" y="147" width="9" height="320" transform="rotate(-90 118 147)" fill="#535E69"/>
<rect x="118" y="138" width="9" height="30" fill="#535E69"/>
<rect x="429" y="138" width="9" height="30" fill="#535E69"/>
<rect x="295" y="179" width="9" height="18" fill="#1D212D"/>
<rect x="359" y="179" width="9" height="18" fill="#1D212D"/>
<rect x="380" y="179" width="9" height="18" fill="#1D212D"/>
<rect x="400" y="179" width="9" height="18" fill="#1D212D"/>
<rect x="419" y="179" width="18" height="18" fill="#1D212D"/>
<rect x="168" y="179" width="9" height="18" fill="#1D212D"/>
<rect x="188" y="179" width="9" height="18" fill="#1D212D"/>
<rect x="148" y="188" width="9" height="29" transform="rotate(-90 148 188)" fill="#1D212D"/>
<rect x="380" y="188" width="9" height="29" transform="rotate(-90 380 188)" fill="#1D212D"/>
<rect x="188" y="188" width="9" height="69" transform="rotate(-90 188 188)" fill="#1D212D"/>
<rect x="168" y="197" width="9" height="29" transform="rotate(-90 168 197)" fill="#1D212D"/>
<rect x="359" y="197" width="9" height="30" transform="rotate(-90 359 197)" fill="#1D212D"/>
<rect x="400" y="197" width="9" height="30" transform="rotate(-90 400 197)" fill="#1D212D"/>
<rect x="248" y="197" width="9" height="56" transform="rotate(-90 248 197)" fill="#1D212D"/>
<rect x="295" y="188" width="9" height="73" transform="rotate(-90 295 188)" fill="#1D212D"/>
<rect x="266" y="188" width="9" height="20" transform="rotate(-90 266 188)" fill="#1D212D"/>
<rect x="18" y="197" width="9" height="9" transform="rotate(-90 18 197)" fill="#1D212D"/>
<rect x="9" y="206" width="9" height="9" transform="rotate(-90 9 206)" fill="#1D212D"/>
<rect x="50" y="294" width="9" height="9" transform="rotate(-90 50 294)" fill="#1D212D"/>
<rect x="59" y="298" width="4" height="11" transform="rotate(-90 59 298)" fill="#1D212D"/>
<rect x="59" y="285" width="9" height="10" transform="rotate(-90 59 285)" fill="#1D212D"/>
<rect x="59" y="249" width="9" height="9" transform="rotate(-90 59 249)" fill="#1D212D"/>
<rect x="50" y="258" width="9" height="9" transform="rotate(-90 50 258)" fill="#1D212D"/>
<rect x="59" y="267" width="9" height="10" transform="rotate(-90 59 267)" fill="#1D212D"/>
<rect x="50" y="276" width="9" height="9" transform="rotate(-90 50 276)" fill="#1D212D"/>
<rect x="68" y="240" width="9" height="9" transform="rotate(-90 68 240)" fill="#1D212D"/>
<rect x="86" y="240" width="9" height="9" transform="rotate(-90 86 240)" fill="#1D212D"/>
<rect x="113" y="249" width="9" height="9" transform="rotate(-90 113 249)" fill="#1D212D"/>
<rect x="122" y="240" width="9" height="9" transform="rotate(-90 122 240)" fill="#1D212D"/>
<rect x="131" y="249" width="9" height="9" transform="rotate(-90 131 249)" fill="#1D212D"/>
<rect x="140" y="240" width="9" height="9" transform="rotate(-90 140 240)" fill="#1D212D"/>
<rect x="149" y="249" width="9" height="9" transform="rotate(-90 149 249)" fill="#1D212D"/>
<rect x="158" y="240" width="9" height="9" transform="rotate(-90 158 240)" fill="#1D212D"/>
<rect x="167" y="249" width="9" height="9" transform="rotate(-90 167 249)" fill="#1D212D"/>
<rect x="176" y="240" width="9" height="9" transform="rotate(-90 176 240)" fill="#1D212D"/>
<rect x="185" y="249" width="9" height="9" transform="rotate(-90 185 249)" fill="#1D212D"/>
<rect x="194" y="240" width="9" height="9" transform="rotate(-90 194 240)" fill="#1D212D"/>
<rect x="203" y="249" width="9" height="9" transform="rotate(-90 203 249)" fill="#1D212D"/>
<rect x="212" y="240" width="9" height="9" transform="rotate(-90 212 240)" fill="#1D212D"/>
<rect x="221" y="249" width="9" height="9" transform="rotate(-90 221 249)" fill="#1D212D"/>
<rect x="230" y="240" width="9" height="9" transform="rotate(-90 230 240)" fill="#1D212D"/>
<rect x="239" y="249" width="9" height="9" transform="rotate(-90 239 249)" fill="#1D212D"/>
<rect x="248" y="240" width="9" height="9" transform="rotate(-90 248 240)" fill="#1D212D"/>
<rect x="138" y="167" width="9" height="9" transform="rotate(-90 138 167)" fill="#1D212D"/>
<rect x="156" y="167" width="9" height="9" transform="rotate(-90 156 167)" fill="#1D212D"/>
<rect x="174" y="167" width="9" height="9" transform="rotate(-90 174 167)" fill="#1D212D"/>
<rect x="192" y="167" width="9" height="9" transform="rotate(-90 192 167)" fill="#1D212D"/>
<rect x="210" y="167" width="9" height="9" transform="rotate(-90 210 167)" fill="#1D212D"/>
<rect x="228" y="167" width="9" height="9" transform="rotate(-90 228 167)" fill="#1D212D"/>
<rect x="246" y="167" width="9" height="9" transform="rotate(-90 246 167)" fill="#1D212D"/>
<rect x="284" y="167" width="9" height="9" transform="rotate(-90 284 167)" fill="#1D212D"/>
<rect x="302" y="167" width="9" height="9" transform="rotate(-90 302 167)" fill="#1D212D"/>
<rect x="320" y="167" width="9" height="9" transform="rotate(-90 320 167)" fill="#1D212D"/>
<rect x="338" y="167" width="9" height="9" transform="rotate(-90 338 167)" fill="#1D212D"/>
<rect x="356" y="167" width="9" height="9" transform="rotate(-90 356 167)" fill="#1D212D"/>
<rect x="374" y="167" width="9" height="9" transform="rotate(-90 374 167)" fill="#1D212D"/>
<rect x="392" y="167" width="9" height="9" transform="rotate(-90 392 167)" fill="#1D212D"/>
<rect x="410" y="167" width="9" height="9" transform="rotate(-90 410 167)" fill="#1D212D"/>
<rect x="257" y="249" width="9" height="9" transform="rotate(-90 257 249)" fill="#1D212D"/>
<rect x="275" y="249" width="9" height="9" transform="rotate(-90 275 249)" fill="#1D212D"/>
<rect x="284" y="240" width="9" height="9" transform="rotate(-90 284 240)" fill="#1D212D"/>
<rect x="293" y="249" width="9" height="9" transform="rotate(-90 293 249)" fill="#1D212D"/>
<rect x="302" y="240" width="9" height="9" transform="rotate(-90 302 240)" fill="#1D212D"/>
<rect x="311" y="249" width="9" height="9" transform="rotate(-90 311 249)" fill="#1D212D"/>
<rect x="320" y="240" width="9" height="9" transform="rotate(-90 320 240)" fill="#1D212D"/>
<rect x="329" y="249" width="9" height="9" transform="rotate(-90 329 249)" fill="#1D212D"/>
<rect x="338" y="240" width="9" height="9" transform="rotate(-90 338 240)" fill="#1D212D"/>
<rect x="347" y="249" width="9" height="9" transform="rotate(-90 347 249)" fill="#1D212D"/>
<rect x="356" y="240" width="9" height="9" transform="rotate(-90 356 240)" fill="#1D212D"/>
<rect x="365" y="249" width="9" height="9" transform="rotate(-90 365 249)" fill="#1D212D"/>
<rect x="374" y="240" width="9" height="9" transform="rotate(-90 374 240)" fill="#1D212D"/>
<rect x="383" y="249" width="9" height="9" transform="rotate(-90 383 249)" fill="#1D212D"/>
<rect x="392" y="240" width="9" height="9" transform="rotate(-90 392 240)" fill="#1D212D"/>
<rect x="401" y="249" width="9" height="9" transform="rotate(-90 401 249)" fill="#1D212D"/>
<rect x="410" y="240" width="9" height="9" transform="rotate(-90 410 240)" fill="#1D212D"/>
<rect x="419" y="249" width="9" height="9" transform="rotate(-90 419 249)" fill="#1D212D"/>
<rect x="437" y="249" width="9" height="9" transform="rotate(-90 437 249)" fill="#1D212D"/>
<rect x="446" y="240" width="9" height="9" transform="rotate(-90 446 240)" fill="#1D212D"/>
<rect x="455" y="249" width="9" height="9" transform="rotate(-90 455 249)" fill="#1D212D"/>
<rect x="464" y="240" width="9" height="9" transform="rotate(-90 464 240)" fill="#1D212D"/>
<rect x="473" y="249" width="9" height="9" transform="rotate(-90 473 249)" fill="#1D212D"/>
<rect x="482" y="240" width="9" height="9" transform="rotate(-90 482 240)" fill="#1D212D"/>
<rect x="491" y="250" width="10" height="9" transform="rotate(-90 491 250)" fill="#1D212D"/>
<rect x="500" y="240" width="9" height="9" transform="rotate(-90 500 240)" fill="#1D212D"/>
<rect x="509" y="250" width="10" height="9" transform="rotate(-90 509 250)" fill="#1D212D"/>
<rect x="518" y="240" width="9" height="9" transform="rotate(-90 518 240)" fill="#1D212D"/>
<rect x="527" y="250" width="10" height="9" transform="rotate(-90 527 250)" fill="#1D212D"/>
<rect x="536" y="240" width="9" height="9" transform="rotate(-90 536 240)" fill="#1D212D"/>
<rect x="545" y="250" width="10" height="9" transform="rotate(-90 545 250)" fill="#1D212D"/>
<rect x="554" y="240" width="9" height="9" transform="rotate(-90 554 240)" fill="#1D212D"/>
<rect x="563" y="250" width="10" height="9" transform="rotate(-90 563 250)" fill="#1D212D"/>
<rect x="598" y="240" width="9" height="9" transform="rotate(-90 598 240)" fill="#1D212D"/>
<rect x="607" y="249" width="9" height="9" transform="rotate(-90 607 249)" fill="#1D212D"/>
<rect x="616" y="240" width="9" height="9" transform="rotate(-90 616 240)" fill="#1D212D"/>
<rect x="625" y="249" width="9" height="9" transform="rotate(-90 625 249)" fill="#1D212D"/>
<rect x="634" y="240" width="9" height="9" transform="rotate(-90 634 240)" fill="#1D212D"/>
<rect x="701" y="89" width="9" height="9" transform="rotate(-90 701 89)" fill="#1D212D"/>
<rect x="692" y="98" width="9" height="9" transform="rotate(-90 692 98)" fill="#1D212D"/>
<rect x="701" y="107" width="9" height="9" transform="rotate(-90 701 107)" fill="#1D212D"/>
<rect x="692" y="116" width="9" height="9" transform="rotate(-90 692 116)" fill="#1D212D"/>
<rect x="701" y="125" width="9" height="9" transform="rotate(-90 701 125)" fill="#1D212D"/>
<rect x="692" y="134" width="9" height="9" transform="rotate(-90 692 134)" fill="#1D212D"/>
<rect x="701" y="143" width="9" height="9" transform="rotate(-90 701 143)" fill="#1D212D"/>
<rect x="692" y="152" width="9" height="9" transform="rotate(-90 692 152)" fill="#1D212D"/>
<rect x="701" y="161" width="9" height="9" transform="rotate(-90 701 161)" fill="#1D212D"/>
<rect x="692" y="170" width="9" height="9" transform="rotate(-90 692 170)" fill="#1D212D"/>
<rect x="701" y="179" width="9" height="9" transform="rotate(-90 701 179)" fill="#1D212D"/>
<rect x="692" y="188" width="9" height="9" transform="rotate(-90 692 188)" fill="#1D212D"/>
<rect x="701" y="197" width="9" height="9" transform="rotate(-90 701 197)" fill="#1D212D"/>
<rect x="692" y="206" width="9" height="9" transform="rotate(-90 692 206)" fill="#1D212D"/>
<rect x="701" y="215" width="9" height="9" transform="rotate(-90 701 215)" fill="#1D212D"/>
<rect x="692" y="224" width="9" height="9" transform="rotate(-90 692 224)" fill="#1D212D"/>
<rect x="701" y="233" width="9" height="9" transform="rotate(-90 701 233)" fill="#1D212D"/>
<rect x="853" y="175" width="9" height="9" transform="rotate(-90 853 175)" fill="#1D212D"/>
<rect x="862" y="184" width="9" height="9" transform="rotate(-90 862 184)" fill="#1D212D"/>
<rect x="853" y="193" width="9" height="9" transform="rotate(-90 853 193)" fill="#1D212D"/>
<rect x="862" y="202" width="9" height="9" transform="rotate(-90 862 202)" fill="#1D212D"/>
<rect x="853" y="211" width="9" height="9" transform="rotate(-90 853 211)" fill="#1D212D"/>
<rect x="862" y="220" width="9" height="9" transform="rotate(-90 862 220)" fill="#1D212D"/>
<rect x="853" y="229" width="9" height="9" transform="rotate(-90 853 229)" fill="#1D212D"/>
<rect x="853" y="55" width="9" height="9" transform="rotate(-90 853 55)" fill="#1D212D"/>
<rect x="862" y="64" width="9" height="9" transform="rotate(-90 862 64)" fill="#1D212D"/>
<rect x="853" y="73" width="9" height="9" transform="rotate(-90 853 73)" fill="#1D212D"/>
<rect x="862" y="82" width="9" height="9" transform="rotate(-90 862 82)" fill="#1D212D"/>
<rect x="853" y="91" width="9" height="9" transform="rotate(-90 853 91)" fill="#1D212D"/>
<rect x="862" y="100" width="9" height="9" transform="rotate(-90 862 100)" fill="#1D212D"/>
<rect x="853" y="109" width="9" height="9" transform="rotate(-90 853 109)" fill="#1D212D"/>
<rect x="862" y="118" width="9" height="9" transform="rotate(-90 862 118)" fill="#1D212D"/>
<rect x="853" y="127" width="9" height="9" transform="rotate(-90 853 127)" fill="#1D212D"/>
<rect x="862" y="136" width="9" height="9" transform="rotate(-90 862 136)" fill="#1D212D"/>
<rect x="853" y="145" width="9" height="9" transform="rotate(-90 853 145)" fill="#1D212D"/>
<rect x="862" y="238" width="9" height="9" transform="rotate(-90 862 238)" fill="#1D212D"/>
<rect x="853" y="247" width="9" height="9" transform="rotate(-90 853 247)" fill="#1D212D"/>
<rect x="862" y="256" width="9" height="9" transform="rotate(-90 862 256)" fill="#1D212D"/>
<rect x="853" y="265" width="9" height="9" transform="rotate(-90 853 265)" fill="#1D212D"/>
<rect x="862" y="274" width="9" height="9" transform="rotate(-90 862 274)" fill="#1D212D"/>
<rect x="853" y="283" width="9" height="9" transform="rotate(-90 853 283)" fill="#1D212D"/>
<rect x="853" y="298" width="6" height="9" transform="rotate(-90 853 298)" fill="#1D212D"/>
<rect x="862" y="292" width="9" height="9" transform="rotate(-90 862 292)" fill="#1D212D"/>
<rect x="692" y="242" width="9" height="9" transform="rotate(-90 692 242)" fill="#1D212D"/>
<rect x="683" y="251" width="9" height="9" transform="rotate(-90 683 251)" fill="#1D212D"/>
<rect x="692" y="260" width="9" height="9" transform="rotate(-90 692 260)" fill="#1D212D"/>
<rect x="701" y="251" width="9" height="9" transform="rotate(-90 701 251)" fill="#1D212D"/>
<rect x="701" y="269" width="9" height="9" transform="rotate(-90 701 269)" fill="#1D212D"/>
<rect x="692" y="278" width="9" height="9" transform="rotate(-90 692 278)" fill="#1D212D"/>
<rect x="701" y="287" width="9" height="9" transform="rotate(-90 701 287)" fill="#1D212D"/>
<rect x="692" y="296" width="9" height="9" transform="rotate(-90 692 296)" fill="#1D212D"/>
<rect x="701" y="298" width="2" height="9" transform="rotate(-90 701 298)" fill="#1D212D"/>
<rect x="710" y="80" width="9" height="9" transform="rotate(-90 710 80)" fill="#1D212D"/>
<rect x="719" y="89" width="9" height="9" transform="rotate(-90 719 89)" fill="#1D212D"/>
<rect x="728" y="80" width="9" height="9" transform="rotate(-90 728 80)" fill="#1D212D"/>
<rect x="737" y="89" width="9" height="9" transform="rotate(-90 737 89)" fill="#1D212D"/>
<rect x="760" y="80" width="9" height="9" transform="rotate(-90 760 80)" fill="#1D212D"/>
<rect x="769" y="89" width="9" height="9" transform="rotate(-90 769 89)" fill="#1D212D"/>
<rect x="778" y="80" width="9" height="9" transform="rotate(-90 778 80)" fill="#1D212D"/>
<rect x="787" y="89" width="9" height="9" transform="rotate(-90 787 89)" fill="#1D212D"/>
<rect x="104" y="252" width="67" height="9" transform="rotate(-90 104 252)" fill="#1D212D"/>
<rect x="266" y="252" width="63" height="9" transform="rotate(-90 266 252)" fill="#1D212D"/>
<rect x="428" y="254" width="63" height="9" transform="rotate(-90 428 254)" fill="#1D212D"/>
<rect x="570" y="259" width="81" height="9" transform="rotate(-90 570 259)" fill="#1D212D"/>
<rect x="589" y="259" width="81" height="9" transform="rotate(-90 589 259)" fill="#1D212D"/>
<rect x="658" y="37" width="9" height="9" transform="rotate(-90 658 37)" fill="#1D212D"/>
<rect x="853" y="37" width="9" height="9" transform="rotate(-90 853 37)" fill="#1D212D"/>
<rect x="862" y="46" width="9" height="9" transform="rotate(-90 862 46)" fill="#1D212D"/>
<rect x="871" y="140" width="94" height="9" transform="rotate(-90 871 140)" fill="#1D212D"/>
<rect x="649" y="46" width="9" height="9" transform="rotate(-90 649 46)" fill="#1D212D"/>
<rect x="640" y="180" width="134" height="9" transform="rotate(-90 640 180)" fill="#1D212D"/>
<rect x="710" y="298" width="203" height="9" transform="rotate(-90 710 298)" fill="#1D212D"/>
<rect x="800" y="298" width="133" height="9" transform="rotate(-90 800 298)" fill="#1D212D"/>
<rect x="800" y="140" width="47" height="9" transform="rotate(-90 800 140)" fill="#1D212D"/>
<rect x="790" y="160" width="17" height="9" transform="rotate(-90 790 160)" fill="#1D212D"/>
<rect x="751" y="90" width="64" height="9" transform="rotate(-90 751 90)" fill="#1D212D"/>
<rect x="881" y="163" width="17" height="9" transform="rotate(-90 881 163)" fill="#1D212D"/>
<rect x="871" y="298" width="133" height="9" transform="rotate(-90 871 298)" fill="#1D212D"/>
<rect x="640" y="298" width="49" height="9" transform="rotate(-90 640 298)" fill="#1D212D"/>
<rect x="77" y="250" width="10" height="9" transform="rotate(-90 77 250)" fill="#1D212D"/>
<rect x="95" y="250" width="10" height="9" transform="rotate(-90 95 250)" fill="#1D212D"/>
<rect y="298" width="92" height="9" transform="rotate(-90 0 298)" fill="#1D212D"/>
<rect x="68" y="298" width="42" height="9" transform="rotate(-90 68 298)" fill="#1D212D"/>
<rect x="68" y="258" width="9" height="511" transform="rotate(-90 68 258)" fill="#1D212D"/>
<rect x="419" y="188" width="9" height="160" transform="rotate(-90 419 188)" fill="#1D212D"/>
<rect x="667" y="28" width="9" height="186" transform="rotate(-90 667 28)" fill="#1D212D"/>
<rect x="710" y="98" width="9" height="99" transform="rotate(-90 710 98)" fill="#1D212D"/>
<rect x="790" y="148" width="9" height="100" transform="rotate(-90 790 148)" fill="#1D212D"/>
<rect x="591" y="188" width="9" height="58" transform="rotate(-90 591 188)" fill="#1D212D"/>
<rect x="589" y="258" width="9" height="54" transform="rotate(-90 589 258)" fill="#1D212D"/>
<rect x="570" y="267" width="9" height="28" transform="rotate(-90 570 267)" fill="#1D212D"/>
<rect x="570" y="179" width="9" height="28" transform="rotate(-90 570 179)" fill="#1D212D"/>
<rect x="643" y="148" width="9" height="70" transform="rotate(-90 643 148)" fill="#1D212D"/>
<rect x="790" y="166" width="9" height="100" transform="rotate(-90 790 166)" fill="#1D212D"/>
<rect x="188" y="129" width="9" height="30" transform="rotate(-90 188 129)" fill="#F4F4E4"/>
<rect x="238" y="88" width="9" height="27" transform="rotate(-90 238 88)" fill="#F4F4E4"/>
<rect x="138" y="88" width="9" height="27" transform="rotate(-90 138 88)" fill="#F4F4E4"/>
<rect x="208" y="138" width="9" height="39" transform="rotate(-90 208 138)" fill="#F4F4E4"/>
<rect x="238" y="8" width="9" height="80" fill="#F4F4E4"/>
<rect x="238" y="109" width="9" height="29" fill="#F4F4E4"/>
<rect x="247" y="100" width="9" height="9" fill="#F4F4E4"/>
<rect x="147" y="99" width="20" height="9" fill="#F4F4E4"/>
<rect x="256" y="79" width="9" height="21" fill="#F4F4E4"/>
<rect x="138" y="79" width="9" height="20" fill="#F4F4E4"/>
</svg>
