<svg width="892" height="191" viewBox="0 0 892 191" fill="none" xmlns="http://www.w3.org/2000/svg">
<g filter="url(#filter0_d_1_14)">
<path d="M7.25 78.75V67.5H29.75V11.25H7.25V0H74.75V11.25H52.25V67.5H74.75V78.75H7.25ZM86 78.75V22.5H153.5V33.75H164.75V78.75H142.25V33.75H108.5V78.75H86ZM187.25 78.75V67.5H176V33.75H187.25V22.5H232.25V0H254.75V78.75H187.25ZM198.5 67.5H232.25V33.75H198.5V67.5ZM277.25 78.75V67.5H266V22.5H288.5V67.5H322.25V22.5H344.75V78.75H277.25ZM356 78.75V67.5H412.25V56.25H367.25V45H356V33.75H367.25V22.5H423.5V33.75H378.5V45H423.5V56.25H434.75V67.5H423.5V78.75H356ZM479.75 78.75V33.75H457.25V22.5H479.75V0H502.25V22.5H524.75V33.75H502.25V78.75H479.75ZM569.75 33.75H581V45H569.75V78.75H547.25V22.5H569.75V33.75ZM614.75 22.5V33.75H581V22.5H614.75ZM659.75 11.25V0H682.25V11.25H659.75ZM637.25 78.75V67.5H659.75V33.75H648.5V22.5H682.25V67.5H704.75V78.75H637.25ZM727.25 78.75V67.5H716V56.25H727.25V45H772.25V33.75H727.25V22.5H783.5V33.75H794.75V78.75H727.25ZM738.5 67.5H772.25V56.25H738.5V67.5ZM817.25 78.75V67.5H839.75V11.25H828.5V0H862.25V67.5H884.75V78.75H817.25ZM29.75 168.75V101.25H7.25V90H74.75V101.25H52.25V168.75H29.75ZM97.25 168.75V157.5H86V112.5H108.5V157.5H142.25V112.5H164.75V168.75H97.25ZM176 168.75V112.5H243.5V123.75H254.75V168.75H232.25V123.75H221V168.75H198.5V123.75H187.25V168.75H176ZM277.25 168.75V157.5H266V90H288.5V112.5H333.5V123.75H344.75V157.5H333.5V168.75H277.25ZM288.5 157.5H322.25V123.75H288.5V157.5Z" fill="white"/>
</g>
<defs>
<filter id="filter0_d_1_14" x="0.25" y="0" width="891.5" height="190.75" filterUnits="userSpaceOnUse" color-interpolation-filters="sRGB">
<feFlood flood-opacity="0" result="BackgroundImageFix"/>
<feColorMatrix in="SourceAlpha" type="matrix" values="0 0 0 0 0 0 0 0 0 0 0 0 0 0 0 0 0 0 127 0" result="hardAlpha"/>
<feOffset dy="15"/>
<feGaussianBlur stdDeviation="3.5"/>
<feComposite in2="hardAlpha" operator="out"/>
<feColorMatrix type="matrix" values="0 0 0 0 0 0 0 0 0 0 0 0 0 0 0 0 0 0 1 0"/>
<feBlend mode="normal" in2="BackgroundImageFix" result="effect1_dropShadow_1_14"/>
<feBlend mode="normal" in="SourceGraphic" in2="effect1_dropShadow_1_14" result="shape"/>
</filter>
</defs>
</svg>
