<?xml version="1.0" encoding="UTF-8"?><svg id="a" xmlns="http://www.w3.org/2000/svg" viewBox="0 0 519.19 199.93"><defs><style>.d,.e,.f,.g,.h{fill:none;}.e{stroke-width:1.3px;}.e,.f,.g,.h{stroke:#141414;}.e,.g{stroke-miterlimit:10;}.i{fill:#f95d5d;}.j{fill:#033156;}.k{fill:#f4f3f2;}.l{fill:#fff;}.m{fill:#fbd766;}.n{fill:#062c4c;}.o{fill:#062538;}.p{fill:#141414;}.q,.r{fill:#0e394f;}.s,.t{fill:#0e3964;}.u{fill:#19517f;}.v{fill:#2c6e9b;}.w{fill:#4d9ac4;}.x{fill:#4cf58c;}.r{opacity:.2;}.r,.t{isolation:isolate;}.t{opacity:.3;}.f{stroke-miterlimit:10.06;stroke-width:2.01px;}.g{stroke-width:2px;}.h{stroke-miterlimit:10;stroke-width:2px;}</style></defs><g id="b"><g id="c"><path class="g" d="M360.46,179.64h21.06c6.37,.02,12.49-2.5,17-7h0c9.37-9.37,24.57-9.37,33.94,0l4.5,4.5c4.51,4.5,10.63,7.02,17,7h32.56"/><path class="v" d="M510.68,174.86c-4.86-9.31-13.56-16.29-24.79-16.29-12.89,.02-24.23,8.5-27.89,20.86-.98,3.44,1.01,7.03,4.45,8.01,.59,.17,1.19,.25,1.8,.25h35.71l11.66-1"/><path class="t" d="M467.11,179.43c-.99,3.43,.99,7.02,4.43,8.01,.59,.17,1.2,.25,1.81,.25h-9.14c-3.58,.01-6.49-2.88-6.5-6.46,0-.61,.08-1.21,.25-1.8,3.66-12.37,15.03-20.86,27.93-20.86,1.53,0,3.07,.12,4.58,.36-11.08,1.77-20.17,9.74-23.36,20.5Z"/><path class="g" d="M511.7,183.56c.09-10.5-6.48-19.89-16.37-23.42-15.22-5.21-31.78,2.91-36.99,18.14-.12,.35-.23,.71-.34,1.06-1.02,3.44,.94,7.06,4.38,8.08,.6,.18,1.22,.27,1.84,.27h43.37c2.28,0,4.12-1.84,4.12-4.12h0Z"/><path class="m" d="M130.7,123.28l16.81-5.21h0l9.88,31.86c1.44,4.64-1.16,9.57-5.8,11.01h0c-4.64,1.44-9.57-1.16-11.01-5.8h0l-9.88-31.86h0Z"/><path class="h" d="M135.27,110.29h0l12.14,39.16c2.94,9.5-2.37,19.58-11.86,22.52l-26.27,8.15c-9.5,2.94-19.58-2.37-22.52-11.86"/><path class="f" d="M150.22,125.04c6.92-2.16,10.78-9.53,8.62-16.46l-16.48-52.72"/><path class="r" d="M409,189.43c0,5.8-118.72,10.5-222,10.5S0,195.23,0,189.43s83.72-10.5,187-10.5,222,4.7,222,10.5Z"/><path class="r" d="M519.19,189.43c0,2.35-19,4.26-35.53,4.26s-29.93-1.91-29.93-4.26,13.4-4.26,29.93-4.26,35.53,1.91,35.53,4.26Z"/><path class="s" d="M372.76,1H167.35c-3,0-5.56,2.16-6.07,5.11l-23.84,156.62c-.57,3.35,1.68,6.54,5.03,7.11,.34,.06,.69,.09,1.04,.09h213.26c2.94-.02,5.45-2.11,6-5l24.67-146.16c1.53-8.14-3.83-15.98-11.97-17.51-.89-.17-1.8-.25-2.71-.26Z"/><path class="g" d="M372.76,1H167.35c-3,0-5.56,2.16-6.07,5.11l-23.84,156.62c-.57,3.35,1.68,6.54,5.03,7.11,.34,.06,.69,.09,1.04,.09h213.26c2.94-.02,5.45-2.11,6-5l24.67-146.16c1.53-8.14-3.83-15.98-11.97-17.51-.89-.17-1.8-.25-2.71-.26Z"/><path class="v" d="M373,1H158.76c-4.59,0-8.52,3.3-9.29,7.83l-24.62,161.1h226.15L378.3,7.39c.55-2.93-1.37-5.74-4.3-6.3-.33-.06-.67-.09-1-.09Z"/><path class="g" d="M373,1H158.76c-4.59,0-8.52,3.3-9.29,7.83l-24.62,161.1h226.15L378.3,7.39c.55-2.93-1.37-5.74-4.3-6.3-.33-.06-.67-.09-1-.09Z"/><polygon class="q" points="367.14 13 160.25 13 138.42 157.93 343.19 157.93 367.14 13"/><polygon class="o" points="367.73 13.22 366.6 19.22 159.8 19.22 160.83 13.22 367.73 13.22"/><polygon class="o" points="166.15 13 144.31 157.93 138.31 157.93 160.15 13 166.15 13"/><polygon class="x" points="189.67 29.07 178.55 29.07 177.13 33.28 189.12 33.28 189.67 29.07"/><polygon class="x" points="205.67 29.07 193.55 29.07 192.13 33.28 204.12 33.28 205.67 29.07"/><polygon class="x" points="219.67 29.07 208.55 29.07 208.13 33.28 218.12 33.28 219.67 29.07"/><polygon class="x" points="229.17 29.07 225.05 29.07 223.63 33.28 228.62 33.28 229.17 29.07"/><polygon class="x" points="175.17 29.07 171.05 29.07 169.63 33.28 174.21 33.42 175.17 29.07"/><polygon class="x" points="187.67 38.07 176.55 38.07 175.13 42.28 187.12 42.28 187.67 38.07"/><polygon class="x" points="202.67 38.07 191.55 38.07 190.13 42.28 202.12 42.28 202.67 38.07"/><polygon class="x" points="217.67 38.07 206.55 38.07 206.13 42.28 217.12 42.28 217.67 38.07"/><polygon class="x" points="226.17 38.07 222.05 38.07 220.63 42.28 225.62 42.28 226.17 38.07"/><polygon class="x" points="173.17 38.07 169.05 38.07 167.63 42.28 172.46 42.28 173.17 38.07"/><path class="u" d="M27.57,168.93H255.85v21H35.29c-7.56,0-13.68-6.11-13.69-13.67h0v-1.36c.02-3.29,2.68-5.95,5.97-5.97Z"/><path class="t" d="M255.85,181.93v8H35.28c-7.55,0-13.67-6.13-13.68-13.68v-1.35c0-.9,.2-1.79,.6-2.6,1.79,5.72,7.09,9.62,13.08,9.63H255.85Z"/><polygon class="t" points="353.86 162.93 353.86 168.93 125.03 168.93 125.86 162.93 353.86 162.93"/><path class="s" d="M90.85,168.93h81c0,6.08-4.92,11-11,11h-59c-6.08,0-11-4.92-11-11h0Z"/><path class="g" d="M90.85,168.93h81c0,6.08-4.92,11-11,11h-59c-6.08,0-11-4.92-11-11h0Z"/><polygon class="o" points="367.05 13 343.1 157.93 138.37 157.93 364.24 13 367.05 13"/><line class="d" x1="372.36" y1="157.93" x2="367.85" y2="160.93"/><rect class="n" x="366.62" y="60.1" width="15.48" height="3.52" rx="1.76" ry="1.76" transform="translate(255.65 422.24) rotate(-81.15)"/><rect class="n" x="370.08" y="37.85" width="15.48" height="3.52" rx="1.76" ry="1.76" transform="translate(280.56 406.84) rotate(-81.15)"/><rect class="p" x="119.85" y="172.67" width="15.48" height="3.52" rx="1.76" ry="1.76"/><path class="v" d="M38.08,168.99h24.31c1.47,0,2.66,1.19,2.66,2.66h0c0,1.47-1.19,2.66-2.66,2.66h-24.31c-1.47,0-2.66-1.19-2.66-2.66h0c0-1.47,1.19-2.66,2.66-2.66Z"/><circle class="v" cx="69.99" cy="171.65" r="2.66"/><path class="w" d="M135.93,113.99l3.75-24.02c.23-1.45,1.59-2.44,3.04-2.22h0c1.45,.23,2.44,1.59,2.22,3.04l-3.75,24.02c-.23,1.45-1.59,2.44-3.04,2.22h0c-1.45-.23-2.44-1.59-2.22-3.04Z"/><circle class="w" cx="143.47" cy="82.87" r="2.66"/><rect class="w" x="162.42" y="3.99" width="29.63" height="5.32" rx="2.66" ry="2.66"/><circle class="w" cx="196.99" cy="6.65" r="2.66"/><circle class="i" cx="245.85" cy="6.93" r="3"/><rect class="j" x="71.57" y="163.93" width="23" height="5"/><rect class="j" x="36.85" y="163.93" width="23" height="5"/><rect class="j" x="106.28" y="163.93" width="23" height="5"/><rect class="j" x="141" y="163.93" width="23" height="5"/><rect class="j" x="175.71" y="163.93" width="23" height="5"/><rect class="j" x="210.43" y="163.93" width="23" height="5"/><rect class="j" x="245.14" y="163.93" width="23" height="5"/><rect class="j" x="314.85" y="163.93" width="23" height="5"/><rect class="j" x="279.99" y="164.08" width="23" height="5"/><rect class="g" x="71.57" y="163.93" width="23" height="5"/><rect class="g" x="36.85" y="163.93" width="23" height="5"/><rect class="g" x="106.28" y="163.93" width="23" height="5"/><rect class="g" x="141" y="163.93" width="23" height="5"/><rect class="g" x="175.71" y="163.93" width="23" height="5"/><rect class="g" x="210.43" y="163.93" width="23" height="5"/><rect class="g" x="245.14" y="163.93" width="23" height="5"/><rect class="g" x="314.85" y="163.93" width="23" height="5"/><rect class="g" x="279.99" y="164.08" width="23" height="5"/><polygon class="g" points="367.04 13 160.15 13 138.32 157.93 343.09 157.93 367.04 13"/><path class="l" d="M338.69,29.57h-86c-4.22,0-7.82,3.08-8.44,7.26l-8.35,55.4c-.7,4.66,2.51,9,7.16,9.7,.42,.06,.85,.1,1.28,.1h85.23c4.18,0,7.75-3.02,8.43-7.14l9.16-55.4c.77-4.65-2.38-9.04-7.03-9.81-.48-.08-.96-.12-1.44-.11Z"/><path class="k" d="M347,39.5l-9.15,55.39c-.68,4.12-4.25,7.14-8.42,7.14h-85.22c-4.02,0-7.49-2.8-8.35-6.72L338.32,29.57h.27c4.72,0,8.53,3.84,8.52,8.56,0,.46-.04,.92-.11,1.37Z"/><path class="g" d="M27.57,168.93H255.85v21H35.29c-7.56,0-13.68-6.11-13.69-13.67h0v-1.36c.02-3.29,2.68-5.95,5.97-5.97Z"/><path class="s" d="M245.35,168.93h116c5.8,0,10.5,4.7,10.5,10.5h0c0,5.8-4.7,10.5-10.5,10.5h-116c-5.8,0-10.5-4.7-10.5-10.5h0c0-5.8,4.7-10.5,10.5-10.5Z"/><rect class="p" x="344.37" y="177.67" width="15.48" height="3.52" rx="1.76" ry="1.76"/><rect class="p" x="321.85" y="177.67" width="15.48" height="3.52" rx="1.76" ry="1.76"/><path class="g" d="M245.35,168.93h116c5.8,0,10.5,4.7,10.5,10.5h0c0,5.8-4.7,10.5-10.5,10.5h-116c-5.8,0-10.5-4.7-10.5-10.5h0c0-5.8,4.7-10.5,10.5-10.5Z"/><polygon class="m" points="265.39 76.4 254.27 76.4 252.85 80.62 264.84 80.62 265.39 76.4"/><polygon class="m" points="281.39 76.4 269.27 76.4 267.86 80.62 279.84 80.62 281.39 76.4"/><polygon class="m" points="295.39 76.4 284.27 76.4 283.86 80.62 293.84 80.62 295.39 76.4"/><polygon class="m" points="304.89 76.4 300.77 76.4 299.36 80.62 304.34 80.62 304.89 76.4"/><polygon class="m" points="250.89 76.4 246.77 76.4 245.35 80.62 249.93 80.75 250.89 76.4"/><polygon class="m" points="263.39 85.4 252.27 85.4 250.85 89.62 262.84 89.62 263.39 85.4"/><polygon class="m" points="278.39 85.4 267.27 85.4 265.86 89.62 277.84 89.62 278.39 85.4"/><polygon class="m" points="293.39 85.4 282.27 85.4 281.86 89.62 292.84 89.62 293.39 85.4"/><polygon class="m" points="301.89 85.4 297.77 85.4 296.36 89.62 301.34 89.62 301.89 85.4"/><polygon class="m" points="248.89 85.4 244.77 85.4 243.35 89.62 248.18 89.62 248.89 85.4"/><path class="e" d="M338.69,29.57h-86c-4.22,0-7.82,3.08-8.44,7.26l-8.35,55.4c-.7,4.66,2.51,9,7.16,9.7,.42,.06,.85,.1,1.28,.1h85.23c4.18,0,7.75-3.02,8.43-7.14l9.16-55.4c.77-4.65-2.38-9.04-7.03-9.81-.48-.08-.96-.12-1.44-.11Z"/></g></g></svg>