<svg width="408" height="246" viewBox="0 0 408 246" fill="none" xmlns="http://www.w3.org/2000/svg">
<path d="M402.832 183.358C400.339 170.739 393.798 159.204 385.63 149.406C379.957 142.789 373.705 136.533 366.26 131.905C360.514 127.964 354.371 124.565 348.119 121.491C345.626 120.298 343.024 119.394 340.53 118.201C338.362 117.261 336.121 116.61 333.881 115.887C330.195 114.766 326.545 113.537 322.714 113.067C314.727 101.677 303.814 92.3479 291.418 86.0926C294.888 85.3332 298.321 84.2846 301.718 83.2722C305.621 81.6451 309.776 80.5242 313.571 78.644C330.99 71.0869 346.927 60.131 360.262 46.6078C361.02 45.4507 362.755 44.5829 362.394 42.992C355.311 41.3287 348.011 41.5095 340.819 41.7626C332.76 42.305 324.774 43.4982 316.823 45.0168C311.764 46.3909 306.632 47.4394 301.645 49.1027C297.237 50.8383 292.683 52.1762 288.491 54.3457C284.01 56.2982 279.746 58.7931 275.554 61.288C273.205 63.0598 270.639 64.5061 268.398 66.4225C264.279 69.6044 260.448 73.1479 257.123 77.1615C255.136 77.2338 253.148 77.6315 251.233 78.2462C248.595 78.8609 245.993 79.7649 243.607 81.0304C237.5 84.6824 232.405 89.8168 227.924 95.3129C224.093 100.013 220.587 104.967 217.516 110.21C215.456 109.234 213.613 107.968 211.661 106.811C208.987 104.895 205.988 103.485 203.35 101.532C207.072 102.002 210.758 102.978 214.516 103.232C214.48 102.906 214.444 102.291 214.408 101.966C212.348 100.628 210.035 99.7965 207.939 98.5671C205.446 97.0123 202.699 95.9276 200.169 94.4451C197.82 93.0349 195.255 92.0225 192.942 90.5762C201.651 88.9129 210.505 87.7558 219.359 87.3942C220.84 87.6112 222.033 86.5988 223.009 85.6586C223.876 84.827 223.984 83.1999 223.045 82.3683C221.708 80.8858 219.684 80.488 217.841 80.0903C213.541 79.2587 209.204 78.644 204.903 77.957C201.326 77.1615 197.676 76.9445 194.062 76.4745C188.93 75.8598 183.799 75.3174 178.631 74.9558C178.234 72.027 177.908 69.062 177.33 66.1332C175.776 59.9502 174.728 53.6225 172.307 47.6925C171.114 44.5106 170.102 41.2202 168.368 38.2553C164.646 30.3366 159.08 22.888 151.347 18.5129C147.01 15.4394 141.734 14.2462 136.602 13.3784C134.832 13.2338 133.241 12.366 131.579 11.8959C123.484 9.54566 114.883 9.14792 106.499 9.9434C100.681 10.6666 94.8266 11.3897 89.2252 12.8722C86.3341 13.8123 83.3347 14.3909 80.4075 15.331C79.8293 15.5118 79.2149 15.7649 78.6006 15.5479C76.4684 15.0779 74.0471 15.114 72.2041 16.488C70.7224 17.392 69.6022 18.8745 69.6022 20.6462C66.675 22.6711 63.3503 24.0812 60.4592 26.1423C54.6048 29.5773 49.0395 33.4101 43.4743 37.3151C38.0897 41.2564 32.7774 45.3423 27.9348 49.9705C24.8992 52.9716 21.8636 56.0813 19.5508 59.6971C14.9974 65.6632 10.3355 72.0632 9.10685 79.6564C8.2034 84.3208 9.28754 89.0575 9.93803 93.6858C11.0222 98.1332 11.9618 102.617 13.1182 107.064C13.6241 109.848 14.7444 112.452 15.4672 115.2C16.3345 118.02 17.0572 120.913 18.033 123.733C19.7676 127.964 20.8156 132.483 22.8394 136.606C23.7789 139.1 25.0438 141.415 26.0918 143.873C22.8394 147.236 19.9483 150.997 16.732 154.432C15.4672 156.167 13.8771 157.613 12.54 159.313C11.6727 160.398 10.7331 161.41 9.79347 162.386C9.14299 163.146 8.23953 163.977 8.4925 165.098C10.0103 165.134 11.492 164.664 12.9736 164.375C16.1177 163.543 19.2617 162.929 22.4418 162.278C20.8156 165.424 19.4424 168.642 17.7439 171.715C14.7083 177.934 11.5642 184.117 8.45636 190.3C6.9747 193.663 5.09551 196.845 3.54157 200.208C3.21633 200.931 2.2406 202.016 3.21633 202.63C5.746 202.811 8.31181 202.63 10.8776 202.703C22.1889 202.703 33.464 202.703 44.7752 202.703C43.0406 203.932 41.2337 205.053 39.3906 206.102C37.7644 206.933 36.3912 208.163 34.765 209.03C33.8254 209.609 32.2714 209.971 32.6689 211.417C33.3917 211.453 34.1145 211.453 34.8372 211.417C46.0401 210.477 57.2068 209.428 68.4096 208.669C72.2402 208.09 76.107 207.873 79.9377 207.512C78.8897 209.464 77.8778 211.453 76.8298 213.442C74.0833 214.563 71.9873 216.732 69.9997 218.902C68.5903 220.854 67.4339 222.951 66.4943 225.157C65.374 228.303 64.9765 231.593 64.6512 234.883C61.6879 236.655 58.6884 238.535 56.5924 241.32C54.9301 243.489 53.1231 246.02 53.3761 248.913C58.1464 249.094 62.9527 249.13 67.723 248.768C86.8762 248.768 106.029 248.768 125.183 248.768C133.025 249.238 140.903 248.913 148.781 249.021C151.383 249.13 153.985 248.66 156.587 248.768C186.69 248.768 216.793 248.768 246.896 248.768C249.426 248.732 251.919 248.841 254.449 249.021C257.882 249.021 261.351 249.13 264.821 248.949C264.821 248.66 264.857 248.045 264.857 247.756C263.809 244.502 262.291 241.428 260.773 238.391C269.374 231.521 276.818 223.06 281.733 213.152C283.106 210.802 283.938 208.199 284.769 205.595C288.057 204.619 291.057 202.92 294.129 201.401C306.271 194.061 316.101 183.141 322.642 170.594C324.449 167.34 325.75 163.869 327.267 160.506C328.93 156.022 330.231 151.394 331.423 146.766C343.24 158.951 357.045 169.22 372.115 177.067C375.945 178.802 379.632 180.863 383.607 182.273C387.076 183.503 390.401 185.094 394.015 185.925C397.122 186.648 400.23 187.842 403.483 187.842C403.7 186.287 403.049 184.841 402.832 183.358ZM205.554 130.856C207.722 128.434 210.035 126.156 212.203 123.733C212.709 123.191 213.179 122.54 213.902 122.323H213.938C214.227 126.12 214.914 129.952 214.589 133.785C214.444 137.835 213.649 142.138 211.011 145.32C209.963 146.658 208.3 147.345 206.638 147.345C206.096 147.345 205.518 147.272 204.976 147.091C203.711 146.766 202.771 145.826 201.579 145.392C203.892 143.114 206.168 140.8 208.445 138.45C208.228 138.413 208.048 138.377 207.831 138.341C205.951 138.052 204.108 137.654 202.265 137.365C201.47 137.256 200.675 137.112 199.88 137.039C201.579 134.798 203.675 132.954 205.554 130.856ZM211.734 80.488C214.263 80.9219 216.829 81.175 219.25 82.0067C219.829 82.1875 220.371 82.4044 220.949 82.6575C221.672 82.9468 222.141 83.5253 222.539 84.14C222.503 84.14 222.503 84.14 222.467 84.14C221.816 84.7909 221.202 85.5863 220.262 85.8394C218.419 86.2733 216.504 86.1287 214.661 86.2372C199.302 87.3942 184.124 90.5038 169.416 95.0598C153.298 100.013 137.686 106.63 122.761 114.585C118.497 116.899 114.269 119.286 110.221 121.925C104.114 126.3 97.6092 130.133 90.743 133.171C89.695 133.641 88.5747 133.894 87.4183 134.038C83.2262 134.617 79.0342 135.195 74.8061 135.123C69.9635 135.159 64.8319 134.906 60.5315 132.411C60.5315 132.411 60.4953 132.411 60.4953 132.375C63.3502 127.458 67.1086 123.155 70.9031 118.96L70.9393 118.996L70.9754 119.033C83.1901 106.594 97.8622 96.9038 113.004 88.479C115.57 87.1411 118.172 85.9118 120.846 84.827C128.833 81.5728 137.289 79.4033 145.818 77.957C154.31 76.5106 162.947 75.7875 171.512 76.0406C185.027 76.5106 198.399 78.427 211.734 80.488ZM191.243 138.124C190.918 142.572 191.171 147.308 189.039 151.358C189.039 151.358 189.039 151.358 189.039 151.322C189.039 151.358 189.039 151.358 189.003 151.394C188.28 149.695 187.919 147.851 187.449 146.079C185.064 136.352 183.51 126.445 182.281 116.502C185.064 116.104 187.376 118.201 188.533 120.515C191.388 125.939 190.882 132.23 191.243 138.124ZM116.943 129.772C112.607 128.47 108.198 127.132 103.608 127.277C105.162 125.975 107.005 125.035 108.631 123.842C110.402 122.54 112.281 121.347 114.161 120.19C115.1 123.372 116.004 126.59 116.943 129.772ZM145.709 17.2474C148.564 18.2959 151.058 20.0677 153.587 21.6948C160.056 26.3231 164.429 33.157 167.717 40.244C167.934 40.714 168.151 41.1841 168.368 41.6903C173.066 52.5016 175.776 64.0722 177.258 75.7513C165.368 74.7389 153.37 75.7513 141.698 78.0293C130.061 80.3796 118.533 84.1039 108.342 90.3954C96.6696 97.0123 85.5391 104.678 75.565 113.645C73.758 115.272 72.168 117.044 70.2888 118.635L70.3249 118.671L70.2888 118.707C70.2888 118.707 70.2888 118.743 70.3249 118.743C66.3136 122.757 62.7359 127.277 59.8087 132.158C56.8092 132.881 53.9182 134.002 50.9549 134.87C47.341 125.035 45.1005 114.766 43.0767 104.533C43.0767 104.425 43.0406 104.316 43.0045 104.208C42.8599 103.629 42.6069 103.051 42.7515 102.472L42.7154 102.436L42.6431 102.328C41.3421 95.4937 40.258 88.6236 39.2461 81.7536C38.1619 75.0643 39.1015 68.2304 40.8362 61.7581C41.7758 58.4315 42.8599 55.105 44.3054 51.9592C47.3772 45.8485 51.8583 40.5694 56.9177 36.0135C63.0973 30.5536 70.0719 26.0699 77.5164 22.5988C77.6971 22.5264 77.8778 22.418 78.0585 22.3457C79.4317 21.731 80.8773 21.3694 82.3228 20.9716C95.1518 17.2474 108.378 14.427 121.786 13.957C129.844 13.7762 138.12 14.3547 145.709 17.2474ZM71.3007 19.3084C72.963 16.4519 77.1912 15.7649 79.757 17.8259C80.0099 18.079 80.5882 18.2598 80.552 18.6214C80.552 18.6937 80.5159 18.8022 80.4075 18.9106C77.9862 20.7909 74.9506 21.7671 71.8789 21.8394C71.4452 21.0801 70.6863 20.1762 71.3007 19.3084ZM26.4532 141.234C25.2606 138.956 24.321 136.569 23.3453 134.183C20.2013 126.12 17.5632 117.839 15.2865 109.487C13.6603 103.665 12.287 97.8078 11.1667 91.8779C10.6969 89.166 10.2271 86.418 10.2271 83.7061C10.2271 82.8022 10.2633 81.8982 10.3355 80.9942C10.5162 79.5841 10.8415 78.1739 11.2751 76.7999C11.3113 76.7276 11.3113 76.6553 11.3474 76.6191C11.4558 76.2937 11.5642 75.9683 11.6727 75.6428C11.7811 75.3536 11.8533 75.1005 11.9618 74.8112C11.9979 74.7027 12.0702 74.5581 12.1063 74.4496C12.2509 74.088 12.3954 73.7264 12.54 73.3649C12.5761 73.2564 12.6123 73.1479 12.6845 73.0756C12.7929 72.8225 12.9375 72.5332 13.0459 72.2801C13.4073 71.4846 13.841 70.6892 14.2385 69.9298C16.5152 65.9163 19.4062 62.3366 22.0443 58.5762C25.4413 54.0925 29.5972 50.2236 33.8615 46.5716C40.2218 41.2202 46.9797 36.4473 53.9182 31.8914C59.4835 28.3118 65.0487 24.8044 70.867 21.6948C71.12 21.9479 71.3368 22.1649 71.5898 22.418C75.312 22.7072 78.9258 21.1886 81.7446 18.8022C81.2748 18.1513 80.3352 17.7174 80.2629 16.9219V16.8858C82.4673 16.1988 84.7079 15.5479 86.9485 14.9694C92.8751 13.4146 98.9102 12.2575 104.981 11.6067C113.257 10.7027 121.786 10.775 129.881 12.9807C130.097 13.053 130.242 13.1615 130.387 13.3423C130.423 13.3784 130.459 13.4507 130.495 13.5231C126.014 13.4507 121.533 13.4146 117.052 13.5954C104.15 14.5355 91.4657 17.5005 79.1065 21.2609C76.9743 22.0202 74.9506 23.1411 72.9269 24.1536C64.8319 28.5287 57.2429 34.0609 51.0994 40.9671C48.0277 44.5106 45.245 48.3796 43.3297 52.6462C41.0891 57.9615 39.4991 63.5298 38.6317 69.2067C38.1981 72.1716 38.451 75.1728 38.3788 78.1739C38.3065 80.8496 38.8847 83.4892 39.2461 86.1287C40.0411 91.7332 41.1253 97.3016 41.9926 102.906L42.354 102.617C42.354 102.653 42.354 102.689 42.354 102.725L42.3901 102.689C42.354 103.81 42.3901 104.931 42.6431 106.016C43.9079 112.199 45.2089 118.382 46.8712 124.456C47.3772 126.228 47.8831 128 48.4613 129.772C48.4613 129.808 48.4613 129.808 48.4975 129.844C48.5697 130.097 48.642 130.314 48.7504 130.567C49.2564 132.158 49.8346 133.713 50.4128 135.268C42.8238 137.871 35.4154 141.017 27.7903 143.548C27.2844 142.789 26.8507 142.029 26.4532 141.234ZM74.2278 201.256C70.3249 202.522 66.0968 201.618 62.3745 200.172C58.1102 198.436 54.0989 196.086 50.5935 193.121C46.8712 189.36 43.6911 184.841 42.3178 179.67C41.848 177.898 41.6312 176.018 41.6673 174.174C41.7035 170.088 42.9322 166.002 45.2812 162.676C46.4014 161.338 47.9554 160.506 49.4371 159.638C51.9667 158.59 54.8939 158.337 57.4597 159.385C60.8929 160.723 63.6032 163.363 65.8799 166.147C66.9279 167.557 68.0482 168.931 68.771 170.522C69.0962 170.703 69.3853 170.811 69.7106 170.92C68.518 166.508 67.3616 162.206 66.6388 157.794C66.675 157.794 66.675 157.83 66.7111 157.83C66.7111 157.794 66.7111 157.794 66.7111 157.758C65.4824 151.611 64.5067 145.392 63.6032 139.173C63.6032 139.173 63.6032 139.173 63.6032 139.137L63.5671 139.354C63.5671 139.317 63.5671 139.317 63.5671 139.281L63.5309 139.426C63.2418 137.726 63.0973 135.991 62.772 134.255H62.8082C62.8082 134.219 62.8082 134.183 62.8082 134.183C67.723 135.919 72.9991 135.448 78.1308 135.485C81.8891 135.448 85.6114 134.906 89.2975 134.291C92.0801 133.496 94.5736 131.941 97.2117 130.748C99.5246 130.495 101.837 130.712 104.15 130.459C108.595 130.748 113.185 130.242 117.521 131.435C117.991 133.351 118.642 135.268 119.039 137.22C119.364 135.34 119.509 133.496 119.906 131.652C119.906 131.652 119.906 131.652 119.943 131.652C119.943 131.616 119.943 131.616 119.943 131.58C122.111 131.724 124.207 132.52 126.375 132.339C124.496 131.29 122.219 131.218 120.159 130.603V130.567C121.207 126.264 122.689 121.817 125.942 118.671C126.881 122.287 127.821 125.939 128.869 129.519C129.917 133.026 131.037 136.497 132.338 139.932C132.989 141.632 133.675 143.295 134.434 144.922C134.904 145.898 135.41 146.874 135.916 147.851C136.928 146.404 137.903 144.886 138.771 143.331H138.807C146.179 130.278 151.961 116.068 153.876 101.134C153.913 101.134 153.913 101.134 153.949 101.098C157.599 99.7242 161.249 98.2417 165.043 97.2293C161.249 102.291 157.96 107.751 154.852 113.247C152.575 117.406 150.335 121.564 148.42 125.867C148.528 125.83 148.636 125.83 148.709 125.758C149.395 125.396 149.648 124.42 150.082 123.806C154.021 117.08 158.357 110.572 163.67 104.895C165.332 103.232 167.067 101.496 169.054 100.122C169.091 100.086 169.163 100.05 169.199 100.013C169.38 99.905 169.56 99.7603 169.741 99.6519C171.476 98.531 173.355 97.6632 175.415 97.3378C175.487 96.1807 175.487 95.0236 175.487 93.9389C177.33 93.4688 179.137 92.9265 180.98 92.4202C180.98 92.4564 180.98 92.5287 180.98 92.5649C180.655 95.4575 180.763 98.3502 180.727 101.279C180.727 101.351 180.727 101.387 180.727 101.46C180.655 108.8 181.594 116.14 182.498 123.444C182.498 123.516 182.534 123.589 182.534 123.661C183.401 129.663 184.413 135.629 185.714 141.559C185.75 141.776 185.823 142.029 185.859 142.246C186.003 142.969 186.184 143.693 186.365 144.416C186.545 145.139 186.726 145.862 186.907 146.585C186.979 146.838 187.015 147.091 187.087 147.345C187.521 148.827 187.81 150.418 188.605 151.756C189.509 153.347 190.231 155.191 190.52 157.035C190.954 159.385 190.773 161.844 189.725 164.05C184.088 177.934 176.607 191.168 166.633 202.413C163.417 205.957 160.02 209.356 156.189 212.248C155.394 212.899 154.346 213.152 153.334 213.152C153.262 213.152 153.19 213.152 153.081 213.152C153.045 213.152 152.973 213.152 152.937 213.189C153.045 213.189 153.19 213.225 153.298 213.225L153.66 213.261C146.287 214.599 138.734 213.984 131.362 213.116C120.123 211.67 109.029 209.283 98.079 206.319C96.4167 205.921 94.8989 205.053 93.4172 204.258C88.9722 201.799 84.7079 198.761 81.7807 194.531C80.1545 197.532 77.5526 200.208 74.2278 201.256ZM190.484 193.555C186.075 195.796 181.594 197.821 177.258 200.208C171.945 202.956 166.705 205.957 161.465 208.85C161.502 208.813 161.574 208.741 161.61 208.705C161.574 208.741 161.502 208.777 161.465 208.777C165.332 204.945 169.054 200.931 172.307 196.556C173.391 195.254 174.294 193.772 175.415 192.434C175.848 192.217 176.354 192.253 176.824 192.181C181.378 192 186.075 192.036 190.484 193.482C190.448 193.482 190.412 193.519 190.412 193.519C190.412 193.555 190.448 193.555 190.484 193.555ZM82.1421 228.99C80.1545 233.907 78.2392 238.825 76.4323 243.815L76.36 243.778C76.36 243.778 76.3961 243.778 76.3961 243.815C75.9263 245.08 75.4565 246.309 74.9506 247.575C68.2289 247.575 61.5072 247.611 54.7494 247.575V247.539H54.7132C56.1949 242.441 60.4231 238.752 64.9765 236.33C67.1809 235.173 69.4937 234.16 71.8427 233.365C74.1917 232.569 76.6491 231.919 79.1065 231.412C79.3956 231.34 79.757 231.304 80.0099 231.195C80.2629 231.087 80.4436 230.942 80.4797 230.617C80.4797 230.581 80.4797 230.508 80.4797 230.472C76.3961 231.015 72.4571 232.244 68.6626 233.763C67.7952 234.124 66.8918 234.486 66.0245 234.883C66.0245 234.847 66.0245 234.847 66.0245 234.811C66.3136 229.496 67.723 224 71.12 219.806C72.6016 217.925 74.4808 216.334 76.5768 215.177C75.9986 216.443 75.3481 217.708 74.7338 218.938C72.8185 222.662 70.7224 226.314 68.9155 230.111C75.4927 226.097 81.9614 221.939 88.4301 217.817C89.8034 216.949 91.1766 216.081 92.5499 215.213C90.996 219.227 89.5143 223.277 87.9965 227.326C86.0812 227.941 84.0213 228.23 82.1421 228.99ZM108.378 247.539C107.367 247.539 106.319 247.539 105.307 247.539C103.97 247.539 102.632 247.684 101.331 247.503C100.103 246.743 99.2355 245.514 98.332 244.393C94.6459 239.584 91.3935 234.486 88.2495 229.315C90.3093 227.724 92.4415 226.206 94.5375 224.615C97.8622 222.156 101.187 219.661 104.512 217.202C104.512 217.202 104.512 217.202 104.548 217.202C107.33 219.372 110.077 221.577 112.823 223.747C113.582 224.253 113.546 225.193 113.727 225.989C114.992 233.184 116.293 240.343 117.594 247.539C114.522 247.539 111.45 247.575 108.378 247.539ZM122.436 247.72C121.533 247.72 120.593 247.684 119.69 247.647C119.22 247.611 118.786 247.611 118.316 247.575C116.979 240.018 115.534 232.497 114.305 224.94C115.281 225.663 116.257 226.422 117.232 227.182C118.208 227.941 119.148 228.737 120.051 229.532C121.244 235.571 122.689 241.609 123.846 247.684C123.34 247.72 122.87 247.72 122.436 247.72ZM124.604 247.611C123.34 241.609 121.894 235.607 120.81 229.568C117.774 223.096 114.558 216.768 111.667 210.332C113.582 210.73 115.461 211.128 117.377 211.525C128.146 213.659 139.096 215.105 150.082 214.49C150.046 214.49 150.046 214.526 150.01 214.526C150.046 214.526 150.046 214.526 150.082 214.526C145.565 217.021 141.047 219.806 137.723 223.819C136.602 225.229 135.59 226.784 135.229 228.592C133.964 234.92 132.736 241.283 131.435 247.611C129.158 247.575 126.881 247.611 124.604 247.611ZM132.121 247.575C132.121 247.539 132.121 247.575 132.121 247.575C132.121 247.539 132.121 247.539 132.121 247.575C133.241 242.296 134.217 237.053 135.265 231.774C135.627 230.111 135.771 228.303 136.602 226.748C136.711 226.567 136.819 226.35 136.928 226.169C138.554 223.385 141.083 221.18 143.685 219.335V219.372C143.613 219.625 143.541 219.878 143.432 220.167C141.734 225.88 140.614 231.81 139.457 237.704C139.349 238.246 139.24 238.825 139.132 239.367C138.662 242.115 138.12 244.863 137.723 247.611C135.916 247.9 134 247.684 132.121 247.575ZM156.551 247.611V247.575H156.514C152.178 247.611 147.841 247.611 143.469 247.575C141.77 247.575 140.072 247.575 138.409 247.575C139.602 240.235 141.011 232.895 142.637 225.627C143.252 223.277 143.685 220.818 144.77 218.648C146.866 217.021 149.215 215.828 151.564 214.599C153.154 213.695 155.213 214.056 156.623 212.791C158.357 211.345 160.417 210.332 162.369 209.175C164.248 208.09 166.163 207.042 168.043 205.993C173.68 202.847 179.426 199.81 185.208 196.954C190.773 194.278 196.375 191.494 202.374 189.903C205.012 189.143 207.758 190.156 209.963 191.602C213.107 193.772 215.384 196.954 217.046 200.352H217.01C217.01 200.389 217.046 200.389 217.046 200.425C214.552 200.208 212.023 200.135 209.529 200.063C209.565 200.244 209.674 200.533 209.71 200.678C215.998 201.039 222.322 201.329 228.61 201.654C228.574 201.69 228.574 201.69 228.538 201.726C228.574 201.726 228.574 201.726 228.61 201.726C226.442 203.787 224.274 205.812 222.178 207.982C215.6 214.563 209.276 221.469 204.072 229.171C203.711 229.641 203.097 229.821 202.591 230.111C189.111 236.004 175.523 241.645 161.971 247.394C160.201 247.864 158.358 247.503 156.551 247.611ZM174.837 247.575H174.8C171.078 247.575 167.32 247.575 163.561 247.575C167.247 245.876 171.078 244.393 174.8 242.766H174.837C174.837 244.357 174.837 245.984 174.837 247.575ZM261.785 244.176C261.966 244.538 262.11 244.935 262.291 245.297C262.616 246.056 262.941 246.816 263.23 247.575C257.268 247.575 251.269 247.575 245.27 247.575C246.499 246.888 247.691 246.201 248.884 245.514C250.076 244.827 251.269 244.104 252.425 243.381C254.774 241.898 257.051 240.343 259.219 238.644C259.544 239.403 259.906 240.126 260.231 240.886C260.412 241.247 260.592 241.609 260.737 242.007C261.098 242.694 261.424 243.417 261.785 244.176ZM391.991 169.69C391.629 169.907 391.232 170.088 390.834 170.233C386.064 172.077 380.824 172.077 375.801 172.041C372.079 171.968 368.284 171.824 364.598 171.173C350.107 162.676 337.241 151.575 326.075 139.064C325.858 138.703 325.533 138.558 325.135 138.703C325.207 138.847 325.28 139.173 325.316 139.281C326.725 140.619 327.882 142.138 329.255 143.512C329.689 143.982 330.447 144.416 330.158 145.175C329.399 148.899 328.388 152.551 327.159 156.167C323.256 167.376 317.51 178.115 309.343 186.829C306.09 190.373 302.513 193.627 298.646 196.447C298.501 196.556 298.357 196.628 298.212 196.737C297.706 197.098 297.237 197.424 296.731 197.785C296.044 198.255 295.357 198.689 294.671 199.123C294.237 199.376 293.803 199.665 293.37 199.919C293.225 199.991 293.117 200.063 292.972 200.135C292.9 200.172 292.792 200.244 292.719 200.28C292.502 200.389 292.286 200.533 292.069 200.642C291.96 200.714 291.852 200.75 291.743 200.822C291.563 200.931 291.382 201.003 291.238 201.112C287.624 203.028 283.721 204.474 279.673 205.089C277.505 205.415 275.301 205.342 273.096 205.234L273.024 205.885C276.457 206.138 279.962 205.921 283.323 205.053C281.444 211.055 278.336 216.551 274.722 221.65C270.494 227.507 265.435 232.642 259.797 237.125C255.389 240.633 250.654 243.706 245.74 246.346C245.523 246.454 245.306 246.563 245.089 246.707C244.872 246.816 244.655 246.96 244.475 247.069C243.824 247.43 243.174 247.684 242.451 247.647C227.671 247.611 212.89 247.72 198.11 247.575C198.073 245.695 198.688 243.923 199.338 242.151C198.652 242.007 198.001 241.826 197.351 241.645C197.784 239.873 200.097 239.548 200.422 237.776C202.229 232.642 205.482 228.158 208.77 223.891C213.179 218.323 218.022 213.08 223.081 208.09C224.49 206.716 225.791 205.27 227.309 204.077H227.345C227.381 204.041 227.381 204.041 227.418 204.004C228.213 202.884 229.333 202.088 230.381 201.22C226.225 200.822 222.069 200.786 217.877 200.497C215.962 196.339 213.071 192.398 208.915 190.264C206.602 188.963 203.783 188.963 201.254 189.577C197.893 190.481 194.676 191.891 191.496 193.229C186.545 191.313 181.161 191.385 175.957 191.602C175.993 191.566 175.993 191.53 176.029 191.494H175.993C181.341 183.647 185.823 175.186 189.472 166.4C190.051 164.917 190.81 163.435 191.171 161.844C191.207 161.591 191.279 161.338 191.279 161.085C191.568 159.168 191.279 157.36 190.954 155.552C194.496 152.551 197.784 149.225 201.073 145.934C201.362 152.19 203.458 158.228 206.53 163.652C209.818 169.509 214.408 174.572 219.467 178.983C219.503 178.838 219.612 178.477 219.684 178.296C216.323 175.15 212.89 172.004 210.36 168.135C210.324 168.099 210.288 168.063 210.252 168.027C205.446 161.772 202.157 154.07 201.723 146.115C201.759 146.151 201.759 146.151 201.796 146.187C201.796 146.187 201.796 146.187 201.796 146.151C202.446 146.694 203.169 147.164 203.928 147.489C205.229 148.032 206.638 148.212 208.048 147.851C209.854 147.561 211.192 146.224 212.203 144.813C213.974 142.282 214.661 139.245 215.058 136.244C215.528 131.29 215.131 126.337 214.299 121.455C216.757 118.96 219.07 116.357 221.491 113.862C220.407 113.175 219.286 112.488 218.202 111.801C221.925 105.365 226.297 99.2541 231.176 93.6134C235.043 89.2383 239.307 85.1163 244.403 82.2236C247.474 80.4519 250.944 79.6202 254.377 79.0055C257.485 78.3909 260.665 78.4632 263.809 78.7886C263.736 78.6078 263.592 78.2824 263.52 78.1377C261.893 77.8123 260.159 77.8485 258.46 77.8485L258.496 77.8123C258.46 77.8123 258.424 77.8123 258.388 77.8123C262.435 72.8948 267.35 68.7728 272.482 65.0846C278.264 61.0711 284.444 57.6722 290.876 54.8519C299.043 51.2722 307.608 48.5965 316.317 46.7163C321.485 45.5592 326.689 44.7276 332.038 43.9321C333.266 48.8858 331.134 53.8394 329.038 58.2146C325.822 64.3615 321.81 70.1468 317.185 75.2812C317.149 75.2812 317.149 75.3174 317.113 75.3174L317.076 75.3536C308.331 79.6202 299.007 82.8022 289.539 85.044C288.997 85.1524 288.383 85.3694 287.841 85.1163C282.42 82.6575 276.818 80.5242 270.964 79.3671C270.856 79.5118 270.639 79.7649 270.567 79.9095C291.129 84.6101 309.921 97.0123 321.955 114.404C333.23 116.248 343.927 120.732 353.937 126.084C359.177 128.904 364.237 132.086 369.115 135.521C379.704 143.548 388.558 153.925 394.918 165.604C394.846 167.448 393.545 168.859 391.991 169.69ZM100.536 26.757C100.247 26.8654 99.9944 27.0101 99.7052 27.1185C94.8989 29.1072 90.5262 31.9999 86.5871 35.3264C82.8287 38.6168 79.4679 42.3773 76.9382 46.6801C76.7214 47.0417 76.5407 47.4033 76.3239 47.7649C72.6016 54.5265 70.9393 62.4451 71.7343 70.1468C77.9862 67.1457 84.202 64.0722 90.4539 61.0711C90.2009 56.7321 91.7549 52.5377 94.2845 49.0666C95.188 47.8372 96.1998 46.6801 97.3201 45.6315C103.644 39.7739 112.245 36.8451 120.738 36.1581C126.7 35.688 133.025 37.3875 137.289 41.7626C141.445 39.7377 145.709 37.8937 149.865 35.905C144.95 28.3118 136.422 23.3581 127.532 22.2372C118.316 20.8993 109.029 23.1411 100.536 26.757ZM129.013 23.105C136.891 24.479 144.227 28.9626 148.853 35.5072C148.853 35.5072 148.817 35.5072 148.817 35.5434C144.986 37.3151 141.192 39.1231 137.325 40.8225C133.422 36.9897 127.965 35.3626 122.581 35.3626C121.352 35.3626 120.123 35.4349 118.895 35.5796C111.161 36.5197 103.427 39.2315 97.537 44.4022C92.839 48.4157 89.5866 54.3095 89.6588 60.5649C85.25 62.879 80.6966 64.94 76.2516 67.1818C75.9986 67.2903 75.7456 67.4349 75.4565 67.5434C74.5892 67.9773 73.758 68.4112 72.8546 68.7728C72.6739 68.8451 72.4932 68.9536 72.3125 69.0259H72.2764C72.0957 63.9999 72.6016 58.9016 74.3001 54.1287C76.9382 46.3909 82.1782 39.7739 88.5386 34.7118C92.4053 31.566 96.7419 29.0349 101.368 27.227C105.162 25.6361 109.137 24.3344 113.185 23.5027C118.389 22.4541 123.737 22.1649 129.013 23.105ZM110.474 67.6519C117.377 66.6756 124.062 63.5298 129.086 58.6485C132.085 55.6474 134.759 51.7784 134.687 47.3671C134.759 44.9445 133.531 42.6304 131.724 41.0394C131.29 40.6779 130.82 40.3163 130.314 40.027C129.194 39.34 128.038 38.8699 126.809 38.5807C126.773 38.5807 126.737 38.5445 126.7 38.5445C126.592 38.5084 126.484 38.5084 126.375 38.4722C126.267 38.4361 126.158 38.4361 126.014 38.3999C125.978 38.3999 125.942 38.3999 125.942 38.3999C124.894 38.1829 123.846 38.0745 122.798 38.0383C122.761 38.0383 122.725 38.0383 122.689 38.0383C122.508 38.0383 122.328 38.0383 122.147 38.0383C121.497 38.0383 120.846 38.0383 120.196 38.0745C119.798 38.1106 119.401 38.1106 119.003 38.1829C113.04 38.7615 107.33 41.2564 102.524 44.7637C98.8018 47.6202 95.4409 51.3807 94.3207 56.0451C93.634 58.9016 94.3568 62.0835 96.3444 64.1807C96.6335 64.47 96.9226 64.7592 97.2479 65.0123C100.97 67.905 105.957 68.1581 110.474 67.6519ZM95.4409 61.505C94.935 60.4202 94.7543 59.227 94.7905 58.07C94.8627 56.1174 95.5132 54.201 96.489 52.5377L96.5251 52.5016C96.8865 51.8869 97.284 51.3084 97.6815 50.7298C97.8983 50.4406 98.1152 50.1513 98.332 49.8982C99.1993 48.8135 100.175 47.801 101.223 46.8609C101.476 46.644 101.765 46.3909 102.018 46.1739C104.186 44.4022 106.644 42.9197 109.173 41.7264C109.896 41.401 110.619 41.0756 111.378 40.7863C112.498 40.3524 113.655 39.9909 114.811 39.7016C115.57 39.4846 116.365 39.34 117.16 39.1954C117.558 39.1231 117.955 39.0507 118.353 39.0146C122.039 38.5807 125.869 38.6892 129.266 40.3524C129.266 40.3524 129.266 40.3524 129.302 40.3524C129.302 40.3524 129.339 40.3524 129.339 40.3886C131.76 41.5818 133.784 44.0044 134 46.7524C134.037 47.1502 134.037 47.5841 134.037 47.9818C134 48.5965 133.928 49.175 133.784 49.7897C133.567 50.766 133.205 51.7423 132.736 52.6462C132.663 52.827 132.555 53.0078 132.446 53.1886C132.266 53.5502 132.049 53.9118 131.832 54.2372C131.615 54.5626 131.398 54.9242 131.145 55.2496C131.037 55.4304 130.892 55.575 130.784 55.7197C126.737 60.8903 120.774 64.3615 114.486 66.1332C113.004 66.5671 111.45 66.8564 109.896 67.0372C109.39 67.1095 108.848 67.1457 108.342 67.1818C107.836 67.218 107.294 67.218 106.788 67.218C106.788 67.218 106.788 67.218 106.752 67.218C105.451 67.218 104.186 67.0733 102.922 66.8202C102.669 66.7841 102.416 66.7118 102.163 66.6394C100.32 66.1694 98.5127 65.3016 97.1394 63.9637C96.4167 63.2406 95.8385 62.4451 95.4409 61.505ZM137.867 48.3072C137.795 48.8496 137.723 49.3558 137.542 49.8982C136.602 53.5863 134.289 56.7683 131.688 59.4801C129.302 61.8304 126.628 63.9276 123.773 65.627C118.208 69.1344 111.848 71.7739 105.198 71.6293H105.162C99.8859 71.4123 94.5736 69.2067 91.1766 65.0846C85.0693 67.7603 79.1065 70.7253 73.0714 73.4372C78.8174 80.5242 87.4544 85.1886 96.5612 85.8756C102.199 86.3818 107.872 85.6587 113.293 84.0677C116.943 82.9829 120.521 81.5366 123.882 79.7649C132.555 75.8959 140.541 69.9298 145.492 61.6858C149.431 55.0688 151.564 47.114 150.588 39.4123C146.287 41.0756 142.131 42.8835 137.867 44.5106C137.939 45.7762 138.012 47.0417 137.867 48.3072ZM138.662 44.9807C142.493 43.5344 146.215 41.8349 150.046 40.4609C150.046 40.4971 150.046 40.5332 150.046 40.5332H150.082C150.552 48.3434 148.311 56.2259 143.975 62.7344C139.024 70.2553 131.435 75.6067 123.303 79.2587C116.04 83.0191 107.872 85.4055 99.633 85.2971C97.7177 85.2609 95.8385 85.1163 93.9593 84.827C86.298 83.67 79.3233 79.5118 74.1917 73.7626C79.7208 71.1592 85.2861 68.6643 90.7791 65.9886C90.7791 65.9886 90.7791 65.9886 90.8153 65.9886C94.5014 69.8575 99.7414 72.3163 105.126 72.3163C108.053 72.4248 110.908 71.9909 113.655 71.1954C118.208 69.8214 122.545 67.4349 126.447 64.7592C131.182 61.4688 135.59 57.2383 137.723 51.7423C137.903 51.3084 138.048 50.8383 138.192 50.4044C138.662 48.6327 138.734 46.7886 138.662 44.9807ZM225.213 111.584C225.213 111.439 225.213 111.295 225.213 111.15C229.297 111.403 233.886 112.018 236.633 115.417C238.765 118.382 238.982 122.215 239.018 125.758C238.548 125.758 238.114 125.722 237.645 125.722C237.645 122.721 237.464 119.539 235.982 116.827C233.633 113.392 229.116 112.741 225.285 112.56C225.249 112.235 225.213 111.909 225.213 111.584ZM240.716 124.167C240.861 123.155 241.295 122.178 241.186 121.13C241.078 120.226 240.825 119.394 240.716 118.526C241.186 119.358 241.511 120.371 241.548 121.383C241.584 122.359 241.331 123.335 240.716 124.167ZM89.8034 154.685C88.647 150.129 88.394 145.247 89.6588 140.655C90.3455 138.124 91.7187 135.738 93.634 133.894C94.6098 132.99 95.6939 132.23 96.8865 131.688C100.645 130.242 105.126 131.037 108.234 133.604C111.559 136.389 113.655 140.366 114.739 144.524C113.113 140.691 111.017 136.786 107.583 134.255C104.584 132.013 100.428 131.326 96.9949 132.881C96.1998 133.279 95.4771 133.785 94.7905 134.364C92.7667 136.063 91.3212 138.413 90.5262 140.945C89.0445 145.356 89.2613 150.093 89.8034 154.685ZM159.333 147.2C161.212 143.765 163.308 140.402 165.91 137.473C167.5 135.81 169.344 134.111 171.656 133.641C174.331 133.098 176.463 135.232 178.053 137.076C177.981 137.148 177.8 137.293 177.691 137.437C177.547 137.582 177.402 137.69 177.33 137.799C176.21 136.678 175.126 135.448 173.608 134.87C173.21 134.761 172.813 134.689 172.415 134.725C172.018 134.761 171.62 134.798 171.223 134.942C171.078 134.978 170.97 135.051 170.861 135.087C170.753 135.159 170.608 135.195 170.5 135.268C168.151 136.533 166.38 138.594 164.79 140.691C164.067 141.668 163.381 142.68 162.73 143.693C161.646 145.392 160.634 147.164 159.767 148.972C159.514 148.935 159.044 148.827 158.791 148.791C158.863 148.212 159.044 147.706 159.333 147.2ZM158.213 141.198C158.032 141.27 157.743 141.342 157.562 141.378C159.008 138.883 160.454 136.208 162.766 134.4H163.345C161.212 136.316 159.731 138.775 158.213 141.198ZM245.27 137.509C245.125 136.569 245.089 135.557 245.234 134.581C246.788 134.798 248.739 135.665 248.595 137.546C247.51 137.835 246.354 137.907 245.27 137.509ZM106.029 135.485C105.632 135.159 105.198 135.051 104.728 135.015C103.717 135.015 102.669 135.665 102.235 136.606C101.548 138.052 101.404 139.679 101.548 141.27C101.548 141.306 101.548 141.342 101.548 141.378C101.982 145.862 102.994 150.237 104.403 154.468C104.439 154.54 104.439 154.576 104.439 154.648C104.512 154.902 104.62 155.155 104.692 155.408C105.523 157.83 106.463 160.217 107.475 162.567C108.668 165.315 109.968 168.027 111.306 170.703V170.739C106.933 172.33 102.416 173.27 97.8622 173.812L98.0429 174.102C101.837 173.74 105.56 172.908 109.246 171.824C109.716 171.679 110.149 171.534 110.619 171.39C112.57 170.703 114.522 169.907 116.293 168.859C117.16 168.352 117.991 167.738 118.75 167.087C118.75 166.942 118.786 166.725 118.786 166.581C118.244 167.015 117.738 167.448 117.196 167.919C117.196 167.919 117.196 167.919 117.196 167.882L117.16 167.919C115.931 158.445 113.835 148.935 109.426 140.402C108.559 138.594 107.62 136.75 106.029 135.485ZM116.365 168.461C115.028 169.184 113.618 169.835 112.245 170.486C110.98 168.642 110.149 166.508 109.21 164.484C106.861 159.349 104.873 153.998 103.536 148.502C103.464 148.068 103.355 147.634 103.247 147.2C102.994 146.115 102.777 145.03 102.741 143.91C102.741 143.693 102.741 143.476 102.741 143.222C102.235 141.342 102.09 139.209 102.885 137.401C103.102 135.991 104.656 135.629 105.813 135.955L105.776 135.991C105.776 135.991 105.776 135.991 105.813 135.991L105.487 136.352H105.885L105.921 136.389C107.005 137.763 108.089 139.173 108.704 140.836V140.872C113.113 149.369 115.281 158.951 116.365 168.461ZM257.701 163.941C256.111 163.977 254.702 163.435 253.365 162.676C252.281 162.061 251.269 161.265 250.329 160.506C250.112 160.325 249.896 160.145 249.643 159.964C249.353 159.711 249.064 159.421 248.811 159.168C244.728 155.082 242.198 149.622 241.078 144.018C237.97 145.754 234.212 145.681 230.887 144.705C229.911 144.452 228.972 143.982 228.176 143.367C226.876 142.391 225.827 141.017 225.285 139.462C224.996 138.667 224.996 137.799 224.418 137.148C223.84 139.354 225.322 141.523 226.767 143.15C225.9 148.104 225.394 153.094 225.032 158.084C224.888 162.386 224.671 166.725 225.466 170.992C225.575 171.571 225.683 172.113 225.864 172.655C226.044 173.27 226.297 173.921 226.586 174.499C226.731 174.789 226.912 175.078 227.092 175.331C227.201 175.512 227.345 175.693 227.49 175.873C228.538 177.03 230.092 177.717 231.682 177.754C234.501 177.934 237.247 176.813 239.632 175.367C245.053 171.751 250.401 168.099 255.822 164.484C257.232 164.917 258.677 164.592 259.906 163.833C259.87 163.688 259.797 163.58 259.761 163.507C259.255 163.037 258.352 163.977 257.701 163.941ZM239.054 174.825C236.922 176.09 234.465 177.103 231.935 177.03C231.573 177.03 231.212 176.994 230.851 176.922C228.935 176.596 227.381 175.114 226.803 173.27C225.213 168.678 225.575 163.724 225.647 158.951C227.671 157.939 229.983 157.433 232.296 157.396C234.465 157.396 236.633 157.83 238.548 158.807C239.596 159.349 240.572 160 241.439 160.868C243.933 163.182 246.643 166.074 246.715 169.69C244.15 171.426 241.62 173.125 239.054 174.825ZM247.51 169.184C246.679 164.7 243.318 161.193 239.705 158.662C237.609 157.433 235.187 156.782 232.766 156.746C230.345 156.673 227.887 157.18 225.683 158.192C225.936 153.311 226.586 148.465 227.273 143.62C231.068 146.224 236.235 146.694 240.5 144.994C241.873 150.165 244.113 155.263 247.836 159.168C249.028 160.398 250.365 161.519 251.811 162.495C252.787 163.146 253.835 163.724 254.883 164.194C252.461 165.894 249.968 167.557 247.51 169.184ZM275.265 146.621C275.192 146.621 275.156 146.621 275.084 146.621C275.228 146.513 275.337 146.404 275.481 146.332C276.312 145.79 277.252 145.537 278.228 145.5C279.673 145.464 281.155 145.971 282.311 146.766C281.01 146.477 279.782 145.862 278.481 145.862C278.3 145.862 278.119 145.862 277.903 145.898C277.83 145.898 277.758 145.898 277.722 145.898C276.818 145.826 276.132 146.549 275.265 146.621ZM273.096 151.43C273.024 150.96 273.024 150.49 272.988 150.02C276.891 149.333 281.047 148.719 284.986 149.767C285.275 149.839 285.6 149.948 285.889 150.056C287.985 150.78 289.503 152.407 290.804 154.142C293.189 157.396 294.779 161.265 295.141 165.315C294.779 165.315 294.129 165.351 293.767 165.387C293.225 160.47 290.948 155.589 287.154 152.334C285.058 150.96 282.709 150.563 280.288 150.599C277.866 150.599 275.409 151.033 273.096 151.43ZM108.668 151.213C108.668 150.816 108.704 150.382 108.776 149.984C109.318 149.442 109.788 150.237 110.041 150.635C111.486 153.021 112.209 155.769 112.787 158.481C112.823 158.662 112.86 158.843 112.896 159.024C113.076 160.217 113.185 161.41 112.968 162.603C112.823 162.676 112.57 162.856 112.426 162.929C110.836 161.157 110.258 158.734 109.535 156.493C109.137 154.793 108.631 152.985 108.668 151.213ZM178.992 151.864C177.258 154.395 174.873 156.384 172.957 158.698C172.885 156.601 172.957 154.504 172.885 152.443C170.536 155.119 168.259 157.83 165.802 160.361C165.838 160.289 165.838 160.253 165.874 160.181C166.055 159.819 166.308 159.421 166.597 159.096C168.874 156.637 171.006 154.07 173.246 151.647C173.246 153.708 173.246 155.769 173.246 157.83V157.867C175.234 155.95 176.896 153.672 178.992 151.864ZM153.298 155.082L153.985 154.974C155.611 156.709 157.418 158.373 159.586 159.349C159.008 161.446 158.647 163.543 157.96 165.604C157.852 165.424 157.707 165.062 157.635 164.881C157.815 163.146 158.357 161.482 158.755 159.783C156.659 158.59 154.708 157.035 153.298 155.082ZM76.5407 189.396C76.4684 189.975 76.0348 190.047 75.565 190.047C75.4204 190.047 75.2758 190.047 75.1313 190.047C74.9867 190.047 74.8783 190.047 74.7699 190.084C72.3125 189.939 69.9274 189.143 67.6146 188.348C66.6027 187.986 65.6631 187.372 64.9403 186.54C64.1091 185.564 63.5671 184.298 63.6032 182.997C63.4948 181.044 64.2898 179.128 65.3378 177.5C65.3378 177.5 65.3378 177.464 65.3017 177.464C62.9889 174.282 60.0978 171.245 56.2672 170.016C55.5805 169.835 54.8216 169.726 54.0627 169.69C52.834 169.654 51.6053 169.943 50.6657 170.775C50.3405 171.028 50.0514 171.317 49.7623 171.643C49.6177 171.787 49.5093 171.968 49.4009 172.113C49.0395 172.619 48.7866 173.161 48.5697 173.74C48.3529 174.319 48.2084 174.897 48.0999 175.512C47.9915 176.126 47.9554 176.741 47.9915 177.356C47.9915 177.573 47.9915 177.754 48.0277 177.971C48.0638 178.585 48.1722 179.2 48.3168 179.778C48.5697 181.695 49.7262 183.394 49.8707 185.311C49.6177 184.985 49.4009 184.587 49.1841 184.226C48.6059 183.105 48.2806 181.839 47.9554 180.61C47.0881 177.247 47.3049 173.198 49.9068 170.667C51.6776 168.786 54.5687 168.714 56.8454 169.509C60.7483 170.883 63.7116 174.065 66.0606 177.392C64.9403 179.019 64.073 180.935 64.1453 182.924C64.1453 183.177 64.1814 183.43 64.2176 183.684C64.2537 183.937 64.326 184.19 64.4344 184.443C64.6512 185.058 65.0126 185.6 65.4101 186.106C65.5547 186.251 65.6631 186.395 65.8438 186.54C65.9883 186.685 66.1329 186.793 66.2774 186.902C66.3859 186.974 66.4943 187.046 66.6027 187.119C66.9279 187.335 67.2893 187.516 67.6507 187.661C70.4695 188.782 73.4689 189.722 76.5407 189.396ZM117.883 176.488C118.714 175.584 119.473 174.608 120.485 173.921C120.485 173.921 120.485 173.921 120.485 173.957C117.81 177.392 114.666 180.393 111.812 183.647C111.775 182.888 111.739 182.165 111.739 181.406C111.739 181.044 111.739 180.646 111.739 180.285C111.739 179.923 111.739 179.525 111.739 179.164C111.739 178.802 111.739 178.404 111.739 178.043C111.739 176.922 111.775 175.801 111.775 174.68C110.33 176.307 108.884 177.971 107.439 179.634C105.993 181.297 104.548 182.924 103.138 184.587C103.03 184.768 102.885 184.877 102.741 184.949C102.596 185.021 102.416 185.094 102.235 185.13C105.487 181.333 108.812 177.537 112.101 173.776C112.101 176.741 111.812 179.67 111.992 182.635C112.173 182.526 112.354 182.418 112.498 182.309C112.751 182.129 113.004 181.912 113.221 181.659C114.703 179.851 116.365 178.224 117.883 176.488ZM162.875 178.368C163.055 178.549 163.236 178.694 163.417 178.838C163.272 178.983 163.128 179.128 162.983 179.272C162.839 179.417 162.694 179.561 162.586 179.706C162.369 179.923 162.188 180.176 161.971 180.393C161.827 180.538 161.682 180.682 161.538 180.827C161.321 181.044 161.104 181.225 160.851 181.369C160.67 181.478 160.526 181.586 160.345 181.659C160.164 181.731 159.984 181.803 159.767 181.839C159.839 181.406 160.092 181.044 160.454 180.755C161.321 180.032 162.08 179.164 162.875 178.368ZM295.899 188.746C295.936 185.889 293.876 183.394 291.418 182.165C288.094 180.538 284.227 180.429 280.649 181.116C277.216 181.803 273.891 183.213 271.072 185.274C270.133 185.961 269.229 186.757 268.398 187.625C266.266 189.867 264.568 192.759 264.676 195.941V195.977C264.748 198.798 266.664 201.329 269.157 202.486C272.12 204.041 275.59 204.077 278.878 203.715C283.793 202.956 288.563 200.75 292.105 197.171C294.201 194.929 296.044 192.036 295.899 188.818C295.899 188.782 295.899 188.782 295.899 188.746ZM295.249 189.396C295.249 189.433 295.249 189.433 295.249 189.469C295.032 192.325 293.37 194.856 291.418 196.881C287.262 200.895 281.516 203.173 275.734 203.281C273.349 203.209 270.892 202.775 268.796 201.509C266.772 200.28 265.29 198.074 265.363 195.652V195.616C265.363 192.542 267.17 189.83 269.266 187.697C270.314 186.685 271.47 185.817 272.735 185.021C274.144 184.117 275.626 183.394 277.18 182.816C277.288 182.78 277.433 182.743 277.541 182.671C278.77 182.237 279.999 181.912 281.263 181.695C284.697 181.08 288.455 181.261 291.527 182.96C293.84 184.262 295.43 186.757 295.249 189.396ZM124.604 189.939C124.46 189.794 124.207 189.505 124.062 189.36C124.568 189.288 125.11 189.252 125.616 189.216C126.014 189.216 126.411 189.18 126.809 189.18C127.423 189.18 128.074 189.18 128.688 189.18C129.628 189.18 130.567 189.18 131.507 189.035C138.337 188.818 145.095 187.516 151.636 185.491C151.636 185.672 151.636 186.034 151.636 186.215C143.469 188.963 134.832 189.903 126.267 189.903C125.725 189.939 125.183 189.939 124.604 189.939Z" fill="#0D1A1B"/>
<path d="M368.971 135.557C364.092 132.122 359.033 128.976 353.793 126.12C343.782 120.732 333.086 116.248 321.81 114.441C309.813 97.0485 290.985 84.6462 270.422 79.9457C270.53 79.801 270.783 79.4756 270.892 79.331H270.928C276.782 80.488 282.384 82.6214 287.804 85.0801C288.347 85.3332 288.961 85.1163 289.503 85.0078C298.971 82.766 308.295 79.5841 317.04 75.3174L317.076 75.2813C321.702 70.1468 325.677 64.3976 328.894 58.2508C330.99 53.8395 333.158 48.8858 331.893 43.9683C326.689 44.6914 321.449 45.5231 316.281 46.6801C307.572 48.5604 299.007 51.2361 290.84 54.8157C284.407 57.6361 278.228 61.0349 272.446 65.0485C267.314 68.7366 262.399 72.8587 258.352 77.7762C258.388 77.7762 258.424 77.7762 258.46 77.7762C260.123 77.7762 261.821 77.74 263.483 78.0654V78.1016C263.556 78.2462 263.7 78.6078 263.773 78.7524C260.629 78.427 257.448 78.3547 254.34 78.9694C250.907 79.5841 247.438 80.4157 244.366 82.1875C239.271 85.0801 235.007 89.2022 231.14 93.5773C226.261 99.218 221.888 105.329 218.166 111.765C219.25 112.452 220.371 113.139 221.455 113.826C219.033 116.321 216.721 118.924 214.263 121.419C215.094 126.3 215.492 131.254 215.022 136.208C214.625 139.209 213.938 142.246 212.167 144.777C211.155 146.187 209.818 147.525 208.011 147.815C206.638 148.176 205.193 147.995 203.892 147.453C203.097 147.128 202.374 146.694 201.759 146.151C201.723 146.115 201.723 146.115 201.687 146.079C202.121 154.034 205.409 161.735 210.216 167.991C210.252 168.027 210.288 168.063 210.324 168.099C210.324 168.063 210.288 168.063 210.288 168.027C212.348 169.726 214.155 171.715 216.179 173.451C227.96 183.9 241.222 192.976 255.858 198.942C256.942 199.376 258.027 199.81 259.147 200.208C259.147 200.208 259.147 200.208 259.111 200.208C259.147 200.208 259.183 200.244 259.219 200.244C254.593 200.352 249.968 200.389 245.342 200.714C239.235 201.148 233.091 201.907 227.345 204.077C227.381 204.041 227.381 204.004 227.418 204.004C227.381 204.004 227.345 204.041 227.309 204.041H227.273C225.755 205.234 224.454 206.68 223.045 208.054C217.985 213.044 213.143 218.287 208.734 223.855C205.446 228.122 202.193 232.606 200.386 237.74C200.061 239.512 197.748 239.837 197.314 241.609C197.965 241.79 198.615 241.971 199.302 242.115C198.652 243.887 198.037 245.659 198.073 247.539C212.854 247.684 227.634 247.575 242.415 247.611C243.138 247.684 243.824 247.394 244.439 247.033C244.655 246.924 244.872 246.816 245.053 246.671C245.27 246.563 245.487 246.418 245.703 246.31C250.618 243.67 255.352 240.597 259.761 237.089C265.363 232.642 270.386 227.507 274.578 221.686C278.228 216.587 281.336 211.055 283.179 205.089C279.818 205.957 276.349 206.174 272.879 205.921L272.952 205.198C272.988 205.198 273.024 205.198 273.06 205.198C275.264 205.306 277.469 205.378 279.637 205.053C283.685 204.438 287.588 202.956 291.201 201.076C291.382 200.967 291.563 200.895 291.707 200.786C291.816 200.714 291.924 200.678 292.033 200.606C292.249 200.497 292.466 200.352 292.683 200.244C292.755 200.208 292.864 200.135 292.936 200.099C293.081 200.027 293.189 199.955 293.334 199.882C293.767 199.629 294.201 199.376 294.635 199.087C295.321 198.653 296.008 198.219 296.694 197.749C297.2 197.424 297.67 197.062 298.176 196.7C298.321 196.592 298.465 196.52 298.61 196.411C302.44 193.591 305.982 190.373 309.198 186.865C317.365 178.187 323.111 167.448 327.014 156.203C325.713 155.372 324.665 154.07 324.449 152.515C323.654 148.14 324.593 143.693 325.171 139.317C325.099 139.173 325.027 138.847 324.991 138.703C325.027 138.667 325.063 138.667 325.099 138.667C325.497 138.522 325.786 138.667 326.039 139.028C337.205 151.539 350.071 162.639 364.562 171.137C368.248 171.787 372.043 171.932 375.765 172.004C380.788 172.041 386.028 172.041 390.798 170.197C391.196 170.052 391.557 169.871 391.955 169.654C393.472 168.786 394.737 167.448 394.737 165.604C388.413 153.961 379.595 143.584 368.971 135.557ZM275.481 146.332C276.312 145.79 277.252 145.537 278.228 145.5C279.673 145.464 281.191 145.971 282.348 146.766C282.311 146.766 282.311 146.766 282.275 146.766C280.974 146.477 279.746 145.862 278.445 145.862C278.264 145.862 278.083 145.862 277.903 145.898C277.903 145.898 277.903 145.898 277.866 145.898C277.794 145.898 277.722 145.898 277.686 145.898C276.818 145.898 276.132 146.585 275.265 146.658C275.192 146.658 275.156 146.658 275.084 146.658C275.228 146.513 275.337 146.404 275.481 146.332ZM284.986 149.767C285.311 149.839 285.636 149.948 285.925 150.056C287.985 150.78 289.539 152.443 290.84 154.142C293.225 157.397 294.779 161.302 295.177 165.315H295.141C294.779 165.315 294.129 165.351 293.767 165.387C293.225 160.47 290.948 155.589 287.154 152.334C285.058 150.96 282.709 150.563 280.288 150.599C277.866 150.635 275.409 151.069 273.096 151.43C273.024 150.96 273.024 150.49 272.988 150.02C276.891 149.333 281.047 148.719 284.986 149.767ZM245.27 137.509C245.125 136.569 245.089 135.557 245.234 134.581C246.788 134.798 248.739 135.665 248.595 137.546C247.51 137.835 246.354 137.907 245.27 137.509ZM236.633 115.417C238.765 118.382 238.982 122.215 239.018 125.758V125.794C238.548 125.794 238.078 125.758 237.609 125.758C237.645 122.721 237.428 119.539 235.946 116.863C233.597 113.392 229.116 112.777 225.249 112.597C225.213 112.235 225.213 111.91 225.213 111.584C225.213 111.439 225.213 111.295 225.213 111.15C229.297 111.403 233.886 112.018 236.633 115.417ZM240.716 124.167C240.861 123.155 241.295 122.178 241.186 121.13C241.078 120.262 240.789 119.394 240.716 118.526C241.222 119.358 241.511 120.371 241.548 121.383C241.584 122.359 241.331 123.335 240.716 124.167ZM255.822 164.484C250.401 168.099 245.053 171.751 239.632 175.367C237.247 176.777 234.537 177.934 231.682 177.754C230.092 177.717 228.502 177.03 227.454 175.837C227.309 175.656 227.165 175.476 227.056 175.295C226.875 175.042 226.695 174.752 226.55 174.463C226.225 173.885 226.008 173.27 225.827 172.619C225.647 172.077 225.538 171.498 225.43 170.956C224.635 166.689 224.852 162.35 224.996 158.047C225.358 153.058 225.864 148.068 226.731 143.114C225.285 141.487 223.804 139.317 224.382 137.112C224.996 137.726 224.996 138.667 225.285 139.462C225.827 140.981 226.839 142.355 228.14 143.331C228.935 143.946 229.875 144.416 230.851 144.669C234.212 145.645 237.934 145.717 241.042 143.982C241.042 143.982 241.042 143.982 241.078 143.982C242.234 149.586 244.728 155.082 248.811 159.168C249.1 159.458 249.353 159.711 249.643 159.964C249.859 160.145 250.076 160.325 250.329 160.506C251.305 161.265 252.317 162.061 253.365 162.676C254.702 163.471 256.147 163.977 257.701 163.941C258.352 163.977 259.255 163.037 259.725 163.471C259.797 163.543 259.87 163.652 259.906 163.833C258.677 164.592 257.232 164.917 255.822 164.484ZM268.398 187.589C269.229 186.757 270.097 185.961 271.072 185.274C273.891 183.177 277.216 181.767 280.649 181.116C284.227 180.429 288.094 180.502 291.418 182.129C293.876 183.322 295.936 185.853 295.899 188.71C295.899 188.746 295.899 188.782 295.899 188.818C296.044 192.036 294.201 194.929 292.105 197.171C288.563 200.75 283.793 202.956 278.878 203.715C275.59 204.077 272.12 204.041 269.157 202.486C266.664 201.329 264.748 198.798 264.676 195.977V195.941C264.495 192.759 266.266 189.83 268.398 187.589Z" fill="#FEDE00"/>
<path d="M330.122 145.211C329.363 148.935 328.315 152.624 327.123 156.203C325.822 155.372 324.81 154.07 324.557 152.515C323.762 148.14 324.702 143.693 325.28 139.317C326.689 140.619 327.846 142.174 329.219 143.548C329.616 144.018 330.375 144.488 330.122 145.211ZM255.858 198.942C241.222 192.976 227.96 183.9 216.179 173.451C214.155 171.715 212.348 169.726 210.288 168.027C210.288 168.063 210.324 168.063 210.324 168.099C210.722 168.75 211.191 169.365 211.625 169.943C211.77 170.16 211.95 170.341 212.095 170.522C212.745 171.317 213.432 172.113 214.155 172.872C214.516 173.27 214.878 173.668 215.275 174.029C215.492 174.246 215.709 174.463 215.889 174.644C216.685 175.439 217.516 176.235 218.347 176.994C218.383 177.03 218.383 177.03 218.419 177.067C218.817 177.464 219.214 177.826 219.648 178.224C219.612 178.368 219.503 178.73 219.431 178.911C214.372 174.499 209.782 169.437 206.494 163.58C203.422 158.156 201.326 152.117 201.037 145.862C197.748 149.152 194.46 152.479 190.918 155.48C191.243 157.288 191.532 159.096 191.243 161.012C191.207 161.265 191.171 161.519 191.135 161.772C190.81 163.399 190.015 164.881 189.4 166.436C185.75 175.186 181.305 183.575 175.993 191.421C175.957 191.458 175.957 191.494 175.921 191.53C181.125 191.313 186.509 191.241 191.46 193.157C194.64 191.819 197.857 190.409 201.217 189.505C203.747 188.89 206.566 188.89 208.879 190.192C213.035 192.325 215.926 196.267 217.841 200.425C221.997 200.714 226.153 200.75 230.345 201.148C230.381 201.148 230.417 201.148 230.417 201.148C229.405 202.016 228.249 202.847 227.418 203.968C227.381 204.004 227.381 204.041 227.345 204.041C233.091 201.871 239.235 201.112 245.342 200.678C249.968 200.352 254.593 200.316 259.219 200.208C259.183 200.208 259.147 200.172 259.111 200.172C258.027 199.81 256.942 199.376 255.858 198.942ZM136.928 226.169C136.819 226.35 136.711 226.531 136.602 226.748C135.771 228.303 135.627 230.111 135.265 231.774C134.217 237.053 133.241 242.296 132.121 247.539C134 247.647 135.88 247.9 137.759 247.539C138.156 244.791 138.698 242.043 139.168 239.295C139.277 238.752 139.385 238.21 139.493 237.668C140.65 231.774 141.734 225.88 143.469 220.131C143.541 219.878 143.613 219.625 143.685 219.372V219.335C141.083 221.216 138.554 223.385 136.928 226.169ZM117.196 227.182C116.22 226.422 115.245 225.663 114.269 224.94C115.498 232.497 116.943 240.018 118.28 247.575C118.75 247.611 119.184 247.611 119.654 247.647C120.557 247.683 121.497 247.72 122.4 247.72C122.87 247.72 123.34 247.72 123.773 247.72C122.617 241.645 121.171 235.643 119.979 229.568C119.111 228.737 118.136 227.977 117.196 227.182Z" fill="#E49E2B"/>
<path d="M161.61 208.705C161.574 208.741 161.502 208.777 161.465 208.777C165.332 204.945 169.054 200.931 172.307 196.556C173.391 195.254 174.294 193.772 175.415 192.434C175.848 192.217 176.354 192.253 176.824 192.181C181.378 192 186.075 192.036 190.484 193.482C190.448 193.482 190.412 193.519 190.412 193.519C186.075 195.76 181.594 197.749 177.258 200.136C171.945 202.847 166.814 205.812 161.61 208.705ZM222.105 207.982C216.287 206.68 210.035 206.897 204.578 209.392C202.229 210.477 200.025 211.851 198.037 213.514C194.749 216.226 192.002 219.625 189.978 223.385C188.605 225.844 185.967 227.543 183.184 228.05C180.799 228.484 178.45 227.507 176.029 227.688C171.873 227.833 168.079 230.002 165.26 232.931C161.14 236.981 158.61 242.26 156.551 247.575V247.611C158.357 247.503 160.201 247.864 161.971 247.394C175.523 241.645 189.111 236.005 202.591 230.111C203.097 229.821 203.711 229.641 204.072 229.171C209.276 221.469 215.6 214.563 222.177 207.982C222.141 207.982 222.141 207.982 222.105 207.982ZM92.5499 215.214C91.1766 216.081 89.8034 216.949 88.4301 217.817C81.9252 221.939 75.4565 226.097 68.9155 230.111C70.7224 226.314 72.7823 222.662 74.7337 218.938C75.1674 218.106 75.5649 217.275 75.9624 216.443C76.1793 216.009 76.36 215.611 76.5768 215.177C74.4808 216.334 72.6016 217.925 71.1199 219.806C67.7229 224.036 66.3136 229.496 66.0244 234.811C66.0244 234.847 66.0244 234.847 66.0244 234.884C66.4581 234.703 66.8918 234.522 67.3254 234.305C67.7591 234.124 68.1927 233.943 68.6264 233.763C69.0962 233.582 69.566 233.401 70.0719 233.184C73.4328 231.919 76.902 230.906 80.4797 230.436C80.4797 230.472 80.4797 230.545 80.4797 230.581C80.4436 230.906 80.2629 231.051 80.0099 231.159C79.7208 231.268 79.3594 231.268 79.1065 231.376C76.6491 231.846 74.2278 232.497 71.8427 233.329C69.4576 234.124 67.1809 235.137 64.9764 236.294C68.265 239.512 72.3848 241.573 76.36 243.742L76.4322 243.779C78.2391 238.789 80.1545 233.871 82.1421 228.954C84.0213 228.194 86.0811 227.905 87.9965 227.29C89.5143 223.277 90.9959 219.227 92.5499 215.214ZM94.5375 224.615C92.4415 226.206 90.3093 227.724 88.2494 229.315C91.3934 234.486 94.682 239.584 98.332 244.393C99.2354 245.514 100.103 246.743 101.331 247.503C102.669 247.647 103.97 247.539 105.307 247.539C100.175 240.777 95.8746 233.076 94.5375 224.615ZM262.255 245.297C262.074 244.936 261.929 244.538 261.749 244.176C261.424 243.417 261.062 242.694 260.701 241.934C260.52 241.573 260.339 241.211 260.195 240.814C259.833 240.09 259.508 239.331 259.183 238.572C258.099 239.44 256.979 240.235 255.858 241.03C254.738 241.826 253.582 242.585 252.389 243.308C251.233 244.032 250.04 244.755 248.847 245.442C247.655 246.129 246.462 246.816 245.234 247.503C251.233 247.503 257.232 247.503 263.194 247.503C262.905 246.816 262.58 246.056 262.255 245.297ZM163.561 247.575C167.32 247.575 171.078 247.575 174.8 247.575H174.836C174.836 245.984 174.836 244.357 174.836 242.766H174.8C171.042 244.393 167.284 245.876 163.561 247.575Z" fill="#1A5A87"/>
<path d="M72.3125 69.0259C72.1319 63.9999 72.6739 58.9016 74.3363 54.1287C76.9744 46.3909 82.2144 39.7377 88.5747 34.7118C92.4054 31.566 96.742 29.0349 101.368 27.227C105.162 25.6361 109.137 24.3344 113.185 23.5027C118.389 22.4541 123.737 22.1649 129.013 23.105C136.891 24.479 144.228 28.9626 148.853 35.5072C148.853 35.5072 148.817 35.5072 148.817 35.5434C144.986 37.3152 141.228 39.1231 137.361 40.7863C133.458 36.9536 127.965 35.3626 122.581 35.3626C121.352 35.3626 120.123 35.4349 118.895 35.5796C111.161 36.5197 103.428 39.2315 97.537 44.4022C92.839 48.4157 89.5866 54.3095 89.6589 60.5649C85.25 62.879 80.6966 64.94 76.2516 67.1818C75.9986 67.2903 75.7457 67.4349 75.4566 67.5434C74.5893 67.9773 73.7219 68.375 72.8546 68.7728C72.6739 68.8812 72.4932 68.9536 72.3125 69.0259ZM129.302 40.3163C129.302 40.3163 129.266 40.3163 129.266 40.2801C129.266 40.2801 129.266 40.2801 129.23 40.2801C125.833 38.6168 121.93 38.5445 118.316 38.9423C117.919 38.9784 117.521 39.0507 117.124 39.1231C116.329 39.2677 115.57 39.4485 114.775 39.6293C113.618 39.9185 112.462 40.2801 111.342 40.714C110.583 41.0033 109.86 41.2926 109.137 41.6541C108.198 42.088 107.258 42.5942 106.319 43.1005C106.029 43.2813 105.704 43.462 105.415 43.6428C104.512 44.1852 103.644 44.7999 102.813 45.4507C102.524 45.6677 102.271 45.8846 101.982 46.1016C101.693 46.3185 101.44 46.5716 101.187 46.7886C100.139 47.7287 99.1632 48.7411 98.2959 49.8259C98.0791 50.1152 97.8622 50.3683 97.6454 50.6575C97.2479 51.2361 96.8504 51.8146 96.489 52.4293L96.4528 52.4654C95.5133 54.1287 94.8266 56.0812 94.7544 57.9976C94.7182 59.1547 94.8989 60.3479 95.4048 61.4327C95.6939 62.1558 96.0915 62.7705 96.5974 63.349C96.7419 63.5298 96.9226 63.7106 97.1033 63.8914C98.4766 65.1931 100.283 66.0609 102.127 66.5671C102.38 66.6394 102.632 66.6756 102.885 66.7479C104.15 67.001 105.451 67.1457 106.716 67.1457C106.716 67.1457 106.716 67.1457 106.752 67.1457C107.258 67.1457 107.8 67.1457 108.306 67.1095C108.812 67.0733 109.354 67.0372 109.86 66.9649C111.414 66.7841 112.932 66.4587 114.45 66.0609C120.738 64.2892 126.7 60.818 130.748 55.6474C130.856 55.5027 131.001 55.3219 131.109 55.1773C131.362 54.8519 131.579 54.5264 131.796 54.1649C132.013 53.8033 132.23 53.4779 132.41 53.1163C132.519 52.9355 132.591 52.7547 132.699 52.5739C133.133 51.6699 133.494 50.6937 133.747 49.7174C133.892 49.1389 133.964 48.5242 134 47.9095C134 47.5118 134 47.0779 133.964 46.6801C133.711 43.9321 131.76 41.5095 129.302 40.3163ZM143.938 62.662C148.275 56.2259 150.516 48.3434 150.046 40.5332C150.046 40.4971 150.046 40.4609 150.046 40.4609C146.215 41.8349 142.493 43.5344 138.662 44.9807C138.735 46.8248 138.662 48.6327 138.192 50.4044C138.048 50.8745 137.903 51.3084 137.723 51.7423C135.59 57.2383 131.182 61.4688 126.448 64.7592C122.545 67.3988 118.208 69.8214 113.655 71.1954C110.872 72.027 108.017 72.4609 105.09 72.3163C99.7053 72.3163 94.5014 69.8575 90.7792 65.9886C85.2861 68.6643 79.7209 71.1592 74.1917 73.7626C79.3234 79.5118 86.298 83.67 93.9593 84.827C95.8385 85.1163 97.7538 85.2971 99.633 85.2971C107.836 85.3694 116.004 82.9829 123.267 79.1863C131.362 75.5344 138.951 70.1468 143.938 62.662ZM228.538 201.726C222.286 201.437 215.962 201.148 209.71 200.75C209.674 200.569 209.565 200.244 209.529 200.063C212.023 200.135 214.552 200.208 217.046 200.425C217.046 200.389 217.01 200.389 217.01 200.352C215.347 196.99 213.071 193.808 209.963 191.674C207.758 190.192 205.012 189.18 202.374 189.975C196.375 191.53 190.773 194.278 185.208 196.954C179.426 199.81 173.716 202.847 168.043 205.993C166.163 207.042 164.248 208.09 162.369 209.175C160.417 210.332 158.358 211.345 156.623 212.791C155.214 214.056 153.154 213.695 151.564 214.599C149.215 215.828 146.866 217.021 144.77 218.648C143.685 220.818 143.252 223.277 142.637 225.627C141.011 232.895 139.602 240.235 138.409 247.575C140.108 247.575 141.806 247.575 143.469 247.575C147.805 247.575 152.106 247.575 156.478 247.575C158.502 242.224 161.068 236.945 165.188 232.895C168.006 229.966 171.837 227.796 175.957 227.652C178.342 227.471 180.727 228.447 183.112 228.013C185.895 227.543 188.533 225.844 189.906 223.349C192.002 219.625 194.749 216.226 198.037 213.514C200.025 211.887 202.229 210.477 204.578 209.392C210.035 206.861 216.323 206.68 222.105 207.982C222.141 207.982 222.141 207.982 222.178 207.982C224.274 205.812 226.442 203.787 228.61 201.726C228.574 201.726 228.574 201.726 228.538 201.726ZM112.787 223.747C110.041 221.577 107.294 219.372 104.512 217.202C101.187 219.661 97.8622 222.156 94.5375 224.615C95.8746 233.076 100.175 240.777 105.307 247.539C106.319 247.539 107.367 247.539 108.378 247.539C111.45 247.539 114.522 247.539 117.558 247.539C116.257 240.38 114.956 233.184 113.691 225.989C113.546 225.193 113.546 224.217 112.787 223.747ZM65.0126 236.366C60.4954 238.789 56.3033 242.477 54.7494 247.539V247.575C61.5072 247.611 68.2289 247.575 74.9506 247.575C75.4566 246.31 75.9264 245.08 76.3962 243.815C76.3962 243.815 76.36 243.815 76.36 243.778C72.3848 241.645 68.3012 239.584 65.0126 236.366Z" fill="#227BC3"/>
<path d="M182.389 123.227C182.245 122.612 182.136 121.962 181.992 121.347C181.992 121.347 181.956 121.347 181.956 121.383C181.956 121.383 181.956 121.383 181.956 121.347C176.607 126.011 170.428 129.591 164.103 132.773C161.682 133.966 159.225 135.087 156.767 136.208C152.612 138.052 148.42 139.788 144.191 141.379C142.384 142.066 140.578 142.716 138.734 143.331C146.107 130.278 151.889 116.068 153.804 101.134C153.84 101.134 153.84 101.134 153.876 101.098C157.49 99.7243 161.14 98.2779 164.899 97.2655C161.104 102.364 157.815 107.788 154.708 113.284C152.467 117.406 150.19 121.564 148.275 125.903C148.419 125.867 148.528 125.83 148.636 125.758C149.323 125.397 149.576 124.42 150.01 123.806C153.949 117.08 158.285 110.572 163.598 104.895C165.26 103.232 166.995 101.496 168.982 100.122C169.018 100.086 169.091 100.05 169.127 100.014C169.307 99.9051 169.488 99.7604 169.669 99.6519C171.403 98.531 173.283 97.6994 175.342 97.374C175.342 97.374 175.342 97.374 175.342 97.3378C175.415 96.1808 175.415 95.0237 175.415 93.9389C177.258 93.4689 179.065 92.9265 180.908 92.5649C180.582 95.4576 180.691 98.3503 180.655 101.279C180.655 101.351 180.655 101.388 180.655 101.46C180.582 108.764 181.486 115.995 182.389 123.227ZM188.533 120.515C187.376 118.201 185.064 116.104 182.281 116.502C183.51 126.445 185.064 136.353 187.485 146.043C187.919 147.851 188.316 149.659 189.039 151.322C189.039 151.322 189.039 151.322 189.039 151.358C191.171 147.308 190.918 142.572 191.243 138.124C190.882 132.23 191.388 125.939 188.533 120.515ZM63.5309 139.281V139.209C63.5671 138.92 63.6393 138.305 63.6755 138.016C63.6755 138.016 63.7116 138.016 63.7116 138.052C63.7116 138.016 63.7116 138.016 63.7116 137.98C67.5061 141.595 71.7343 144.741 76.0347 147.706C80.3352 150.563 84.8886 153.202 89.7672 154.938C89.7672 154.938 89.8034 154.938 89.8034 154.974H89.8395C89.8034 154.902 89.8034 154.793 89.7672 154.721C88.6108 150.165 88.3578 145.284 89.6227 140.691C90.3093 138.16 91.6826 135.774 93.5979 133.93C94.5736 132.99 95.6578 132.23 96.8865 131.688C100.645 130.242 105.126 131.037 108.234 133.604C111.631 136.461 113.763 140.583 114.811 144.85C115.606 146.766 116.293 148.682 116.871 150.671C122.725 148.899 128.58 147.055 134.362 144.994C133.603 143.331 132.916 141.668 132.266 139.968C130.965 136.569 129.808 133.062 128.796 129.555C127.748 125.975 126.809 122.359 125.869 118.743C122.617 121.889 121.135 126.301 120.087 130.603V130.64C122.147 131.29 124.388 131.327 126.303 132.375C126.339 132.411 126.375 132.411 126.411 132.447C124.207 132.628 122.039 131.797 119.87 131.688C119.87 131.688 119.87 131.688 119.834 131.688C119.401 133.532 119.256 135.376 118.967 137.256C118.967 137.293 118.967 137.365 118.931 137.401C118.569 135.412 117.883 133.496 117.413 131.543C113.076 130.35 108.487 130.856 104.042 130.567C101.729 130.82 99.38 130.603 97.1033 130.856C94.5013 132.05 91.9717 133.604 89.189 134.4C85.5029 135.015 81.7807 135.557 78.0223 135.593C72.8907 135.557 67.6507 136.063 62.7359 134.291H62.6997C63.025 136.027 63.1695 137.763 63.4586 139.462L63.5309 139.281ZM116.943 129.772C116.004 126.59 115.1 123.372 114.16 120.19C112.281 121.347 110.402 122.54 108.631 123.842C107.005 125.071 105.198 125.975 103.608 127.277C108.198 127.132 112.607 128.47 116.943 129.772ZM148.889 163.688C150.19 164.122 151.419 164.628 152.756 165.026C153.081 165.134 153.443 165.207 153.768 165.279C154.274 164.086 155.105 163.001 155.394 161.699C153.84 160.108 152.178 158.662 150.516 157.216C150.335 159.458 150.046 161.736 148.889 163.688ZM153.262 213.189L153.623 213.225C146.251 214.563 138.698 213.948 131.326 213.08C120.087 211.634 108.993 209.247 98.0429 206.282C96.3805 205.885 94.8627 205.017 93.3811 204.221C88.9361 201.763 84.6718 198.725 81.7446 194.495C80.1545 197.532 77.5525 200.208 74.2278 201.256C70.3249 202.522 66.0967 201.618 62.3745 200.172C58.1102 198.436 54.0989 196.086 50.5935 193.121C46.8712 189.36 43.6911 184.841 42.3178 179.67C41.848 177.898 41.6312 176.018 41.6673 174.174C41.7396 170.16 42.9683 166.147 45.2811 162.856C46.4014 161.519 47.9192 160.687 49.4009 159.855C49.3286 160.036 49.2563 160.325 49.1841 160.47C49.1841 160.47 49.1841 160.47 49.2202 160.47C49.2202 160.506 49.2202 160.506 49.1841 160.542C55.7251 161.699 61.6879 165.641 65.374 171.173C66.3858 172.691 67.1447 174.391 67.9759 176.018C68.1566 175.15 68.3012 174.282 68.4096 173.415C68.518 172.8 68.5903 172.149 68.6625 171.534C68.6987 171.245 68.7348 170.992 68.771 170.703C69.0962 170.884 69.4214 171.028 69.7467 171.137C69.7467 171.064 69.7105 170.992 69.7105 170.92C68.518 166.508 67.3616 162.206 66.6388 157.794C66.6749 157.794 66.6749 157.83 66.7111 157.83C69.2769 159.928 70.9392 162.856 72.6016 165.677C76.3238 172.113 79.0342 179.019 81.4916 186.034C81.8891 187.119 82.4673 188.131 83.2624 188.927C86.298 192.253 90.2009 194.676 94.14 196.845C98.9463 199.34 103.897 201.654 109.137 203.173C115.714 205.234 122.4 207.114 129.086 208.85C136.928 210.694 144.806 212.646 152.901 213.153C153.009 213.189 153.154 213.189 153.262 213.189ZM47.9192 180.646C48.1361 181.406 48.3529 182.201 48.6059 182.96C48.7504 183.43 48.9311 183.864 49.1479 184.298C49.3286 184.66 49.5454 185.058 49.8345 185.383C49.69 183.43 48.5336 181.767 48.2806 179.851C48.1361 179.272 48.0276 178.658 47.9915 178.043C47.9915 177.826 47.9554 177.645 47.9554 177.428C47.9554 176.814 47.9915 176.199 48.0638 175.584C48.1722 174.969 48.3167 174.391 48.5336 173.812C48.7504 173.234 49.0395 172.691 49.3648 172.185C49.4732 172.004 49.6177 171.86 49.7261 171.715C49.9791 171.39 50.2682 171.101 50.6296 170.847C51.5692 170.016 52.7979 169.727 54.0266 169.763C54.7855 169.763 55.5444 169.907 56.231 170.088C60.0617 171.317 62.9527 174.355 65.2656 177.537C65.2656 177.537 65.2656 177.573 65.3017 177.573C64.2537 179.2 63.4586 181.116 63.5671 183.069C63.5309 184.407 64.073 185.636 64.9042 186.612C65.6269 187.444 66.5304 188.059 67.5784 188.42C69.8912 189.216 72.2764 190.011 74.7338 190.156C74.8422 190.12 74.9867 190.12 75.0951 190.12C75.2397 190.12 75.3842 190.12 75.5288 190.12C75.9986 190.12 76.4322 190.047 76.5045 189.505C73.4328 189.83 70.4333 188.89 67.5784 187.806C67.217 187.661 66.8556 187.48 66.5304 187.263C66.422 187.191 66.3136 187.119 66.2051 187.046C66.0606 186.938 65.916 186.793 65.7715 186.685C65.6269 186.54 65.4824 186.395 65.3378 186.251C64.9042 185.745 64.5789 185.202 64.3621 184.588C64.2898 184.334 64.2175 184.081 64.1453 183.828C64.1091 183.575 64.073 183.322 64.073 183.069C64.0007 181.08 64.868 179.164 65.9883 177.537C63.6755 174.21 60.676 171.028 56.7731 169.654C54.4964 168.859 51.6053 168.895 49.8345 170.811C47.2326 173.234 47.0158 177.284 47.9192 180.646ZM117.377 211.525C115.461 211.164 113.546 210.766 111.667 210.332C114.558 216.768 117.774 223.096 120.81 229.568C121.894 235.607 123.34 241.609 124.604 247.611C126.881 247.611 129.158 247.575 131.435 247.611C132.736 241.284 133.964 234.92 135.229 228.592C135.59 226.784 136.602 225.229 137.723 223.819C141.047 219.806 145.565 217.021 150.082 214.527C150.046 214.527 150.046 214.527 150.01 214.527C139.06 215.141 128.146 213.623 117.377 211.525Z" fill="#CE9065"/>
<path d="M50.9549 134.798C47.3411 124.999 45.1005 114.73 43.0768 104.461C43.0768 104.389 43.0406 104.316 43.0045 104.208C42.8599 103.629 42.607 103.051 42.7515 102.472V102.436C43.1129 102.725 43.1129 103.195 43.2936 103.593C43.5466 103.593 43.7995 103.593 44.0525 103.593C48.1 103.665 52.0752 104.678 55.7974 106.233C61.7602 108.728 66.675 113.247 70.2527 118.563C70.2527 118.563 70.2527 118.563 70.2527 118.599L70.2888 118.635L70.325 118.671L70.2888 118.707C66.2775 122.757 62.7721 127.204 59.8088 132.086C56.8093 132.809 53.9182 133.93 50.9549 134.798ZM190.484 157.035C190.918 159.385 190.737 161.844 189.689 164.05C184.052 177.934 176.571 191.168 166.597 202.413C163.381 205.957 159.984 209.356 156.153 212.248C155.358 212.899 154.31 213.152 153.298 213.152C153.226 213.152 153.154 213.152 153.045 213.152C144.914 212.682 137 210.73 129.122 208.813C122.436 207.078 115.787 205.198 109.174 203.137C103.933 201.618 98.9825 199.304 94.1762 196.809C90.2371 194.639 86.3703 192.253 83.2986 188.89C82.5035 188.059 81.8892 187.082 81.5278 185.998C79.0704 179.019 76.36 172.077 72.6378 165.641C70.9393 162.82 69.277 159.855 66.675 157.758C65.4463 151.611 64.4706 145.392 63.5671 139.173C63.5671 139.173 63.5671 139.173 63.5671 139.137C63.6033 138.847 63.6755 138.341 63.7117 138.016C63.7117 137.98 63.7117 137.98 63.7117 137.943C67.5062 141.559 71.7343 144.705 76.0348 147.67C80.3352 150.526 84.8886 153.166 89.7673 154.902C89.7673 154.902 89.8034 154.902 89.8034 154.938H89.8396H89.8757L89.948 155.263C91.2851 161.88 94.3568 167.991 97.8261 173.74L97.8622 173.776L98.0429 174.065C101.837 173.704 105.632 172.872 109.282 171.787C109.716 171.643 110.185 171.498 110.619 171.354C112.57 170.667 114.522 169.871 116.293 168.822C117.16 168.28 117.991 167.702 118.786 167.051C118.786 166.906 118.822 166.653 118.822 166.508C118.931 161.157 118.316 155.806 116.871 150.635C122.725 148.863 128.58 147.019 134.362 144.958C134.868 145.934 135.338 146.911 135.843 147.887C136.855 146.404 137.795 144.922 138.698 143.367L138.807 143.331C140.614 142.716 142.384 142.065 144.191 141.378C148.42 139.787 152.612 138.052 156.767 136.208C159.225 135.123 161.682 133.966 164.14 132.773C170.464 129.591 176.607 125.975 181.956 121.383C181.956 121.383 181.992 121.383 181.992 121.347C182.136 121.961 182.281 122.576 182.389 123.227C182.389 123.299 182.426 123.372 182.426 123.444C182.426 123.516 182.462 123.589 182.462 123.661C183.329 129.663 184.341 135.629 185.642 141.559C185.678 141.776 185.75 142.029 185.786 142.246C185.967 142.969 186.112 143.693 186.292 144.416C186.473 145.139 186.654 145.862 186.834 146.585C186.907 146.838 186.943 147.091 187.015 147.345C187.015 147.381 187.051 147.417 187.051 147.453C187.449 148.972 187.738 150.563 188.569 151.9C189.509 153.455 190.159 155.227 190.484 157.035ZM179.065 151.792C179.029 151.828 179.029 151.828 178.992 151.864C176.896 153.672 175.234 155.95 173.246 157.867V157.83C173.246 155.769 173.246 153.708 173.246 151.647C171.006 154.07 168.874 156.637 166.597 159.096C166.308 159.421 166.055 159.783 165.874 160.181C165.838 160.253 165.802 160.289 165.802 160.361C165.802 160.398 165.766 160.398 165.766 160.434C168.259 157.903 170.536 155.155 172.885 152.479C172.957 154.576 172.885 156.637 172.957 158.734C174.909 156.348 177.366 154.359 179.065 151.792ZM162.586 179.706C162.73 179.561 162.839 179.417 162.983 179.272C163.128 179.128 163.272 178.983 163.417 178.838C163.236 178.694 163.056 178.549 162.875 178.368C162.08 179.164 161.321 180.032 160.454 180.755C160.092 181.008 159.839 181.369 159.767 181.839C159.984 181.803 160.164 181.731 160.345 181.659C160.526 181.586 160.707 181.478 160.851 181.369C161.104 181.225 161.321 181.008 161.538 180.827C161.682 180.682 161.827 180.538 161.971 180.393C162.188 180.176 162.369 179.923 162.586 179.706ZM165.91 137.473C163.308 140.402 161.212 143.765 159.333 147.2C159.044 147.67 158.863 148.212 158.719 148.755C158.972 148.791 159.442 148.899 159.695 148.935C160.562 147.128 161.574 145.356 162.658 143.656C163.308 142.644 163.995 141.632 164.718 140.655C166.308 138.558 168.079 136.497 170.428 135.232C170.536 135.159 170.681 135.087 170.789 135.051C170.898 134.978 171.042 134.942 171.15 134.906C171.331 134.834 171.548 134.798 171.729 134.761C171.946 134.725 172.126 134.689 172.343 134.689C172.741 134.689 173.174 134.725 173.536 134.834C175.017 135.448 176.101 136.678 177.258 137.763C177.33 137.69 177.475 137.546 177.619 137.401C177.764 137.293 177.908 137.148 177.981 137.039C176.391 135.195 174.258 133.062 171.584 133.604C169.344 134.111 167.501 135.774 165.91 137.473ZM157.563 141.378C157.743 141.342 158.032 141.27 158.213 141.234C159.731 138.811 161.249 136.316 163.381 134.4H163.345H162.766C160.454 136.208 159.008 138.883 157.563 141.378ZM154.021 154.974L153.298 155.082C154.708 157.035 156.659 158.59 158.755 159.783C158.358 161.482 157.815 163.146 157.635 164.881C157.707 165.062 157.852 165.387 157.96 165.604C157.96 165.604 157.96 165.641 157.996 165.641C158.683 163.58 159.044 161.446 159.622 159.349C157.418 158.337 155.647 156.709 154.021 154.974ZM120.485 173.921C119.437 174.608 118.678 175.584 117.883 176.488C116.365 178.224 114.703 179.851 113.221 181.622C113.004 181.876 112.787 182.093 112.498 182.273C112.318 182.382 112.173 182.49 111.992 182.599C111.812 179.634 112.101 176.705 112.101 173.74C108.812 177.5 105.487 181.297 102.235 185.094C102.416 185.058 102.596 185.021 102.741 184.913C102.885 184.804 103.03 184.696 103.138 184.551C104.584 182.888 105.993 181.225 107.439 179.598C108.884 177.934 110.33 176.307 111.775 174.644C111.775 175.765 111.739 176.886 111.739 178.007C111.739 178.368 111.739 178.766 111.739 179.128C111.739 179.489 111.739 179.887 111.739 180.248C111.739 180.61 111.739 181.008 111.739 181.369C111.739 182.129 111.775 182.852 111.812 183.611C114.666 180.357 117.811 177.356 120.485 173.921ZM126.303 189.939C134.868 189.939 143.505 188.999 151.672 186.251C151.672 186.07 151.672 185.708 151.672 185.528C145.131 187.552 138.373 188.854 131.543 189.071C130.603 189.18 129.664 189.216 128.724 189.216C128.11 189.216 127.459 189.216 126.845 189.216C126.448 189.216 126.05 189.216 125.653 189.252C125.11 189.288 124.568 189.324 124.062 189.396C124.207 189.541 124.46 189.83 124.604 189.975C125.147 189.939 125.725 189.939 126.303 189.939ZM153.768 165.279C154.31 164.086 155.141 163.001 155.394 161.699C153.84 160.108 152.178 158.626 150.516 157.216C150.335 159.458 150.046 161.735 148.889 163.688C150.19 164.122 151.419 164.628 152.756 165.026C153.081 165.098 153.407 165.207 153.768 165.279ZM241.403 160.868C240.536 160.036 239.56 159.349 238.512 158.807C236.597 157.83 234.428 157.396 232.26 157.396C229.947 157.396 227.671 157.939 225.611 158.951C225.575 163.76 225.177 168.714 226.803 173.27C227.381 175.114 228.935 176.596 230.851 176.922C231.212 176.994 231.574 177.03 231.899 177.03C234.428 177.103 236.886 176.09 239.018 174.825C241.584 173.125 244.113 171.426 246.643 169.69C246.607 166.074 243.897 163.182 241.403 160.868ZM57.4598 159.494C54.894 158.445 51.9668 158.662 49.4371 159.747C49.4371 159.783 49.401 159.819 49.401 159.855C49.3287 160.036 49.2564 160.325 49.1841 160.47C49.1841 160.47 49.1841 160.47 49.2203 160.47C55.7613 161.627 61.6879 165.568 65.374 171.1C66.3859 172.655 67.1448 174.319 67.976 175.946C68.1567 175.114 68.3012 174.246 68.4096 173.415C68.4819 172.8 68.5903 172.149 68.6626 171.534C68.6987 171.245 68.7349 170.956 68.771 170.63C68.0483 169.039 66.928 167.665 65.88 166.255C63.5671 163.471 60.8929 160.832 57.4598 159.494Z" fill="#F6B58B"/>
<path d="M72.8908 24.1173C64.7958 28.4925 57.2068 34.0247 51.0633 40.9309C47.9916 44.4744 45.2089 48.3072 43.2936 52.61C41.053 57.9253 39.463 63.4936 38.5956 69.1705C38.162 72.1354 38.415 75.1366 38.3427 78.1377C38.2704 80.8134 38.8486 83.4529 39.21 86.0925C40.005 91.7332 41.0892 97.2654 41.9565 102.906C41.8481 102.978 41.6313 103.087 41.5228 103.087C32.416 103.159 23.4899 105.618 15.2865 109.487C13.6603 103.665 12.287 97.8078 11.1668 91.8778C10.697 89.1659 10.2272 86.4179 10.2272 83.7061C10.2272 82.8021 10.2633 81.9343 10.3356 81.0303C10.5163 79.584 10.8415 78.1739 11.2752 76.7998C11.3113 76.7275 11.3113 76.6552 11.3475 76.619C11.4559 76.2936 11.5643 75.9682 11.6727 75.6428C11.7811 75.3535 11.8534 75.1004 11.9618 74.8111C11.9979 74.7027 12.0702 74.558 12.1064 74.4496C12.2509 74.088 12.3955 73.7264 12.54 73.3648C12.5762 73.2563 12.6123 73.1479 12.6846 73.0755C12.793 72.8224 12.9375 72.5332 13.046 72.2801C13.4073 71.4846 13.8049 70.7253 14.2385 69.9659C16.5152 65.9885 19.4063 62.3727 22.0444 58.6123C25.4413 54.0925 29.5972 50.2236 33.8615 46.6077C40.2219 41.2563 47.0158 36.4835 53.9182 31.9275C59.4474 28.3479 65.0488 24.8405 70.867 21.7309C71.12 21.984 71.3368 22.201 71.5898 22.4541C75.312 22.7433 78.962 21.2247 81.7446 18.8382C81.7446 18.8382 81.7446 18.8383 81.7446 18.8021C81.2748 18.1512 80.3352 17.7173 80.263 16.9219C82.4674 16.1987 84.708 15.5479 86.9485 14.9693C92.8752 13.4145 98.9103 12.2575 104.981 11.6066C113.257 10.7027 121.786 10.775 129.881 12.9806C130.098 13.0529 130.242 13.1614 130.387 13.3422C130.423 13.3784 130.459 13.4145 130.459 13.4868C125.978 13.4145 121.497 13.3422 117.015 13.5592C104.114 14.5354 91.4297 17.5004 79.0704 21.2247C76.9021 21.984 74.9145 23.1049 72.8908 24.1173ZM80.4075 18.9106C80.4798 18.8021 80.5159 18.7298 80.5521 18.6213C80.5882 18.2597 80.0461 18.0428 79.757 17.8258C77.1912 15.7648 72.963 16.4518 71.3007 19.3083C70.7225 20.2123 71.4814 21.0801 71.8789 21.8394C74.9506 21.7671 77.9863 20.7908 80.4075 18.9106ZM222.539 84.14C222.141 83.5253 221.672 82.9467 220.949 82.6575C220.407 82.4044 219.829 82.1874 219.25 82.0066C216.865 81.2111 214.299 80.958 211.842 80.5241C198.507 78.4631 185.1 76.5467 171.62 76.0767C162.983 75.7874 154.31 76.5106 145.818 77.9569C137.325 79.4032 128.833 81.5727 120.846 84.827C118.172 85.9117 115.57 87.1049 113.04 88.4789C97.8984 96.9038 83.2263 106.63 71.0116 119.033C73.6135 122.902 77.5165 125.903 81.8892 127.53C86.9847 129.446 92.8752 128.542 97.4286 125.686C107.656 118.201 118.859 112.199 130.387 106.956C133.964 105.329 137.614 103.81 141.264 102.364C153.009 97.6993 165.115 93.975 177.439 91.0823C192.183 87.5388 207.289 85.4417 222.394 84.14C222.431 84.14 222.431 84.14 222.467 84.14C222.503 84.14 222.503 84.14 222.539 84.14Z" fill="#ED4024"/>
<path d="M213.938 122.323C214.227 126.12 214.914 129.952 214.588 133.785C214.444 137.835 213.649 142.138 211.011 145.32C209.963 146.657 208.3 147.344 206.638 147.344C206.096 147.344 205.554 147.272 205.012 147.091C203.747 146.766 202.807 145.826 201.615 145.392C203.928 143.114 206.241 140.764 208.481 138.45C208.264 138.413 208.047 138.377 207.831 138.341C205.951 138.052 204.108 137.654 202.265 137.365C201.47 137.256 200.711 137.112 199.916 137.039C201.615 134.798 203.711 132.954 205.59 130.856C207.722 128.434 210.035 126.156 212.203 123.733C212.709 123.191 213.179 122.576 213.938 122.323C213.938 122.323 213.902 122.323 213.938 122.323ZM291.527 183.033C288.455 181.333 284.697 181.116 281.263 181.731C279.999 181.948 278.734 182.273 277.541 182.707C277.433 182.743 277.288 182.78 277.18 182.852C275.626 183.43 274.144 184.154 272.735 185.057C271.506 185.853 270.35 186.757 269.266 187.769C267.17 189.867 265.363 192.615 265.363 195.688C265.29 198.111 266.772 200.316 268.796 201.546C270.892 202.811 273.349 203.245 275.734 203.317C281.516 203.209 287.262 200.931 291.418 196.917C293.37 194.892 295.032 192.361 295.249 189.505C295.249 189.469 295.249 189.469 295.249 189.433C295.357 186.793 293.767 184.298 291.527 183.033Z" fill="#E40000"/>
<path d="M222.394 84.1399C222.431 84.1399 222.431 84.1399 222.467 84.1399C221.816 84.7907 221.202 85.5862 220.262 85.8393C218.419 86.2732 216.504 86.1286 214.661 86.2371C199.302 87.3941 184.124 90.5037 169.416 95.0597C153.298 100.013 137.687 106.63 122.761 114.585C118.497 116.899 114.269 119.286 110.221 121.925C104.114 126.3 97.6093 130.133 90.743 133.17C89.695 133.64 88.5747 133.894 87.4183 134.038C83.2263 134.617 79.0342 135.195 74.8061 135.123C69.9636 135.159 64.8319 134.906 60.5315 132.411C63.3864 127.494 67.1448 123.191 70.9393 118.996L70.9754 119.033L71.0116 119.069C73.6135 122.938 77.5164 125.939 81.8892 127.566C86.9846 129.482 92.8752 128.578 97.4286 125.722C107.656 118.237 118.859 112.235 130.387 106.992C133.964 105.365 137.614 103.81 141.264 102.364C153.009 97.6992 165.115 93.9749 177.439 91.0823C192.183 87.5388 207.289 85.4416 222.394 84.1399ZM48.4614 129.844C48.4614 129.808 48.4614 129.808 48.4252 129.772C47.847 128 47.3411 126.228 46.8351 124.456C45.1366 118.346 43.8357 112.126 42.5708 105.943C42.354 104.895 42.2817 103.81 42.3179 102.725C42.3179 102.689 42.3179 102.653 42.3179 102.617L41.9565 102.906H41.9203C41.8119 102.978 41.5951 103.087 41.4867 103.087C32.3799 103.159 23.4537 105.618 15.2504 109.487C17.5271 117.839 20.1652 126.12 23.3092 134.183C24.2849 136.569 25.2245 138.956 26.4171 141.234C26.8146 141.993 27.2121 142.752 27.6819 143.475C35.3071 140.944 42.7154 137.799 50.3044 135.195C49.7262 133.677 49.1841 132.122 48.6782 130.567C48.642 130.314 48.5336 130.097 48.4614 129.844ZM105.451 136.388L105.487 136.352L105.813 135.991C105.813 135.991 105.813 135.991 105.777 135.991C104.62 135.629 103.102 135.991 102.885 137.401C103.066 137.148 103.428 136.678 103.608 136.425H103.644C104.259 136.425 104.837 136.425 105.451 136.388ZM116.365 168.461C114.992 169.184 113.618 169.835 112.245 170.486C110.98 168.642 110.149 166.508 109.21 164.483C106.861 159.349 104.873 153.998 103.536 148.501C103.464 148.068 103.355 147.634 103.247 147.2C103.175 146.911 103.138 146.657 103.066 146.368C102.958 145.826 102.849 145.283 102.813 144.705C102.777 144.416 102.741 144.162 102.741 143.873C102.741 143.656 102.741 143.439 102.741 143.186C103.283 144.633 104.078 146.115 105.451 146.874H105.487C106.319 147.2 107.403 147.127 107.945 146.332C109.246 144.777 108.595 142.572 108.668 140.764C108.668 140.8 108.704 140.8 108.704 140.836C113.113 149.369 115.281 158.951 116.365 168.461ZM112.896 159.024C112.86 158.843 112.823 158.662 112.787 158.481C112.209 155.769 111.486 153.021 110.041 150.635C109.788 150.237 109.318 149.442 108.776 149.984C108.704 150.382 108.668 150.816 108.668 151.213C108.631 152.985 109.137 154.793 109.535 156.492C110.221 158.734 110.8 161.121 112.426 162.929C112.57 162.856 112.823 162.675 112.968 162.603C113.185 161.41 113.076 160.217 112.896 159.024ZM251.811 162.495C250.365 161.518 249.064 160.398 247.836 159.168C244.113 155.263 241.873 150.165 240.5 144.994C236.235 146.694 231.068 146.224 227.273 143.62C226.586 148.465 225.936 153.311 225.683 158.192C227.887 157.179 230.309 156.673 232.766 156.746C235.187 156.818 237.609 157.433 239.705 158.662C243.355 161.157 246.679 164.7 247.51 169.184C249.968 167.557 252.461 165.894 254.883 164.194C253.798 163.724 252.787 163.146 251.811 162.495Z" fill="#8D1D1F"/>
<path d="M168.332 41.6181C168.115 41.148 167.934 40.7141 167.717 40.2441C164.429 33.1571 160.056 26.3232 153.587 21.6949C151.058 20.0678 148.564 18.296 145.709 17.2474C138.12 14.3548 129.845 13.7763 121.786 13.9571C108.378 14.4271 95.1519 17.2474 82.3228 20.9717C80.9134 21.4056 79.4679 21.7672 78.0585 22.3458C77.8778 22.4181 77.6971 22.4904 77.5164 22.5989C70.072 26.07 63.0973 30.5537 56.9177 36.0135C51.8583 40.5695 47.3772 45.8486 44.3055 51.9593C42.8599 55.1051 41.7758 58.4316 40.8362 61.7582C39.1016 68.2305 38.162 75.0644 39.2461 81.7537C40.258 88.6237 41.3421 95.4938 42.6431 102.328L42.7154 102.436L42.7515 102.472V102.436C43.1129 102.725 43.1129 103.195 43.2936 103.593C43.5466 103.593 43.7995 103.593 44.0525 103.593C48.1 103.666 52.0752 104.678 55.7974 106.233C61.7602 108.728 66.675 113.247 70.2527 118.563C72.0957 117.008 73.7581 115.164 75.5288 113.573C85.503 104.569 96.6335 96.9401 108.306 90.3232C118.461 84.0316 129.989 80.3073 141.662 77.957C153.37 75.6791 165.332 74.6667 177.222 75.6791C175.74 64 173.03 52.4294 168.332 41.6181ZM76.3239 47.765C76.5407 47.4034 76.7214 47.0418 76.9382 46.6802C79.4679 42.3774 82.8288 38.6169 86.5871 35.3265C90.5262 32 94.8989 29.1073 99.7053 27.1186C99.9944 27.0102 100.247 26.8655 100.536 26.7571C101.079 26.5401 101.584 26.3232 102.127 26.1062C102.669 25.8893 103.175 25.7085 103.717 25.4915C103.753 25.4915 103.753 25.4915 103.789 25.4554C104.295 25.2746 104.801 25.0938 105.307 24.913C105.343 24.8768 105.415 24.8768 105.451 24.8407C105.921 24.696 106.391 24.5152 106.861 24.3706C106.969 24.3345 107.077 24.2983 107.186 24.2621C107.583 24.1537 107.981 24.009 108.378 23.9006C108.595 23.8282 108.776 23.7921 108.993 23.7198C109.282 23.6474 109.607 23.539 109.896 23.4667C110.221 23.3943 110.547 23.2859 110.908 23.2135C111.089 23.1774 111.233 23.1412 111.414 23.1051C116.69 21.8757 122.111 21.4056 127.532 22.165C136.458 23.2859 144.95 28.2395 149.865 35.8328L149.901 35.8689C145.709 37.8938 141.445 39.7378 137.253 41.7627C132.989 37.3876 126.664 35.6881 120.702 36.1582C112.209 36.809 103.608 39.7378 97.284 45.6316C96.1999 46.6441 95.188 47.765 94.2846 48.9943C91.7549 52.4655 90.2009 56.6599 90.4539 60.9989V61.035C84.202 64.0723 77.9501 67.1457 71.6982 70.1469C70.867 62.4813 72.5294 54.5265 76.3239 47.765ZM94.3207 56.009C95.441 51.3446 98.8018 47.5842 102.524 44.7277C107.33 41.1842 113.04 38.7254 119.003 38.1469C119.401 38.1107 119.798 38.0746 120.196 38.0384C120.846 38.0022 121.497 38.0022 122.147 38.0022C122.328 38.0022 122.508 38.0022 122.689 38.0022C122.725 38.0022 122.761 38.0022 122.798 38.0022C123.846 38.0384 124.93 38.1469 125.942 38.3638C125.978 38.3638 126.014 38.3638 126.014 38.3638C126.122 38.4 126.231 38.4 126.375 38.4361C126.484 38.4723 126.592 38.4723 126.701 38.5085C126.737 38.5085 126.773 38.5446 126.809 38.5446C128.038 38.87 129.23 39.3401 130.314 39.9909C130.82 40.2802 131.29 40.6056 131.724 41.0034C133.567 42.5943 134.795 44.9085 134.723 47.3672C134.795 51.7785 132.121 55.6474 129.122 58.6486C124.099 63.5299 117.449 66.6395 110.511 67.652C105.993 68.1582 100.97 67.9051 97.284 64.9763C96.9588 64.7231 96.6335 64.4339 96.3444 64.1085C94.3568 62.0474 93.6341 58.8655 94.3207 56.009ZM145.528 61.6859C140.578 69.9299 132.591 75.8599 123.918 79.765C120.557 81.5367 116.979 82.983 113.293 84.0678C107.873 85.6587 102.199 86.3819 96.5613 85.8757C87.4544 85.1887 78.8174 80.5243 73.0714 73.4373C79.1427 70.7254 85.1055 67.7604 91.1767 65.0847C91.1767 65.0847 91.1767 65.0847 91.2128 65.0847C94.6098 69.2068 99.9221 71.4124 105.198 71.6294C111.848 71.774 118.208 69.1344 123.773 65.6271C126.628 63.9277 129.302 61.8305 131.688 59.4802C134.29 56.7683 136.602 53.5864 137.542 49.8983C137.687 49.3921 137.795 48.8497 137.867 48.3073C138.012 47.0418 137.976 45.7763 137.867 44.5107C142.132 42.8836 146.287 41.0757 150.588 39.4124H150.624C151.636 47.1141 149.468 55.0689 145.528 61.6859ZM116.907 150.635C118.316 155.769 118.931 161.157 118.859 166.508L118.822 166.545C118.28 166.979 117.774 167.412 117.232 167.882C117.232 167.882 117.232 167.882 117.232 167.846C115.967 158.373 113.871 148.899 109.499 140.366C108.559 138.594 107.656 136.75 106.066 135.485C105.668 135.159 105.198 135.015 104.728 135.015C103.717 135.015 102.669 135.666 102.235 136.606C101.548 138.052 101.404 139.679 101.548 141.27C101.548 141.306 101.548 141.379 101.548 141.415C101.982 145.898 103.03 150.237 104.403 154.468C104.439 154.54 104.439 154.576 104.439 154.649C104.512 154.902 104.62 155.155 104.692 155.408C105.524 157.83 106.463 160.217 107.475 162.567C108.668 165.315 109.969 168.027 111.27 170.703V170.739C106.897 172.33 102.38 173.27 97.8261 173.812L97.79 173.776C94.3207 168.027 91.249 161.916 89.9118 155.299L89.8396 154.974C89.2614 150.31 89.0084 145.464 90.5262 140.908C91.3212 138.414 92.7306 136.099 94.7182 134.364C95.4048 133.785 96.1276 133.279 96.9227 132.881C100.356 131.327 104.512 132.014 107.511 134.255C110.944 136.786 113.04 140.692 114.666 144.524C114.703 144.633 114.739 144.705 114.775 144.814C115.642 146.73 116.329 148.646 116.907 150.635ZM108.668 140.8C108.595 142.608 109.246 144.814 107.945 146.368C107.403 147.2 106.319 147.236 105.487 146.911C104.114 146.151 103.355 144.633 102.813 143.259C102.307 141.379 102.127 139.245 102.958 137.437C103.066 137.148 103.428 136.678 103.644 136.425C104.259 136.425 104.837 136.425 105.451 136.389H105.487H105.921C107.005 137.763 108.089 139.173 108.704 140.836V140.872C108.704 140.836 108.668 140.836 108.668 140.8Z" fill="#F0FBFA"/>
</svg>
