<svg width="894" height="275" viewBox="0 0 894 275" fill="none" xmlns="http://www.w3.org/2000/svg">
<rect x="173" y="118" width="9" height="21" fill="#272B3D"/>
<rect x="173" y="127" width="18" height="12" fill="#272B3D"/>
<rect x="199" y="127" width="9" height="12" fill="#272B3D"/>
<rect x="28" y="125" width="9" height="12" fill="#272B3D"/>
<rect x="382" y="127" width="9" height="12" fill="#272B3D"/>
<rect x="400" y="127" width="9" height="12" fill="#272B3D"/>
<rect x="9" y="142" width="857" height="38" fill="#272B3D"/>
<rect x="164" y="167" width="44" height="38" fill="#272B3D"/>
<rect x="193" y="159" width="44" height="38" fill="#272B3D"/>
<rect x="216" y="167" width="140" height="38" fill="#272B3D"/>
<rect x="351" y="159" width="67" height="38" fill="#272B3D"/>
<rect x="435" y="178" width="122" height="38" fill="#272B3D"/>
<rect x="583" y="167" width="139" height="38" fill="#272B3D"/>
<rect x="750" y="15" width="51" height="103" fill="#1D212D"/>
<rect x="791" y="113" width="13" height="19" fill="#1D212D"/>
<rect x="746" y="111" width="13" height="19" fill="#1D212D"/>
<rect x="749" y="7" width="9" height="25" fill="#F4F4E4"/>
<rect x="741" y="24" width="9" height="60" fill="#F4F4E4"/>
<rect x="750" y="84" width="9" height="25" fill="#F4F4E4"/>
<rect x="741" y="109" width="9" height="26" fill="#F4F4E4"/>
<rect x="758" y="127" width="9" height="35" transform="rotate(-90 758 127)" fill="#F4F4E4"/>
<rect x="784" y="135" width="9" height="26" transform="rotate(-90 784 135)" fill="#F4F4E4"/>
<rect x="758" y="67" width="9" height="18" transform="rotate(-90 758 67)" fill="#F4F4E4"/>
<rect x="758" y="49" width="9" height="18" fill="#F4F4E4"/>
<rect x="758" y="118" width="9" height="18" fill="#F4F4E4"/>
<rect x="784" y="118" width="9" height="18" fill="#F4F4E4"/>
<rect x="801" y="109" width="9" height="18" fill="#F4F4E4"/>
<rect x="792" y="84" width="9" height="25" fill="#F4F4E4"/>
<rect x="801" y="7" width="9" height="77" fill="#F4F4E4"/>
<rect x="784" y="7" width="26" height="8" fill="#F4F4E4"/>
<rect x="793" y="58" width="17" height="8" fill="#F4F4E4"/>
<rect x="758" width="26" height="8" fill="#F4F4E4"/>
<rect x="758" y="8" width="26" height="16" fill="#F4F4E4"/>
<rect x="741" y="135" width="9" height="26" transform="rotate(-90 741 135)" fill="#F4F4E4"/>
<rect x="741" y="24" width="35" height="8" fill="#F4F4E4"/>
<rect x="758" y="7" width="26" height="8" fill="#FF4F78"/>
<rect x="758" y="7" width="18" height="17" fill="#FF4F78"/>
<rect x="553" y="171" width="34" height="17" fill="#272B3D"/>
<rect x="114" y="168" width="54" height="21" fill="#272B3D"/>
<rect x="114" y="185" width="25" height="12" fill="#272B3D"/>
<rect x="129" y="193" width="10" height="12" fill="#272B3D"/>
<rect x="139" y="205" width="9" height="9" fill="#1F232F"/>
<rect x="155" y="187" width="11" height="10" fill="#272B3D"/>
<rect x="164" y="204" width="18" height="10" fill="#1F232F"/>
<rect x="173" y="211" width="9" height="21" fill="#1F232F"/>
<rect x="199" y="203" width="9" height="28" fill="#1F232F"/>
<rect x="190" y="203" width="11" height="11" fill="#1F232F"/>
<rect x="206" y="214" width="11" height="9" fill="#1F232F"/>
<rect x="225" y="203" width="18" height="11" fill="#272B3D"/>
<rect x="234" y="212" width="9" height="11" fill="#272B3D"/>
<rect x="260" y="204" width="18" height="28" fill="#1F232F"/>
<rect x="269" y="214" width="18" height="18" fill="#272B3D"/>
<rect x="304" y="204" width="9" height="54" fill="#1F232F"/>
<rect x="295" y="204" width="10" height="10" fill="#1F232F"/>
<rect x="312" y="214" width="10" height="10" fill="#1F232F"/>
<rect x="295" y="223" width="10" height="10" fill="#1F232F"/>
<rect x="312" y="231" width="10" height="11" fill="#1F232F"/>
<rect x="338" y="203" width="10" height="11" fill="#1F232F"/>
<rect x="365" y="193" width="9" height="39" fill="#1F232F"/>
<rect x="487" y="191" width="25" height="18" fill="#1F232F"/>
<rect x="356" y="214" width="13" height="9" fill="#1F232F"/>
<rect x="382" y="196" width="27" height="9" fill="#1F232F"/>
<rect x="391" y="204" width="18" height="10" fill="#1F232F"/>
<rect x="391" y="213" width="9" height="19" fill="#1F232F"/>
<rect x="382" y="214" width="13" height="9" fill="#1F232F"/>
<rect x="330" y="203" width="9" height="20" fill="#1F232F"/>
<rect x="295" y="240" width="10" height="10" fill="#1F232F"/>
<rect x="251" y="214" width="18" height="9" fill="#272B3D"/>
<rect x="260" y="231" width="9" height="9" fill="#272B3D"/>
<rect x="155" y="214" width="9" height="9" fill="#1F232F"/>
<rect x="190" y="231" width="9" height="9" fill="#1F232F"/>
<rect x="225" y="223" width="9" height="9" fill="#1F232F"/>
<rect x="269" y="240" width="9" height="9" fill="#1F232F"/>
<rect x="295" y="258" width="9" height="9" fill="#1F232F"/>
<rect x="356" y="232" width="9" height="9" fill="#1F232F"/>
<rect x="435" y="258" width="9" height="9" fill="#1F232F"/>
<rect x="409" y="214" width="9" height="9" fill="#1F232F"/>
<rect x="415" y="176" width="12" height="12" fill="#272B3D"/>
<rect x="426" y="196" width="26" height="36" fill="#1F232F"/>
<rect x="426" y="223" width="9" height="35" fill="#1F232F"/>
<rect x="443" y="214" width="9" height="35" fill="#1F232F"/>
<rect x="461" y="213" width="9" height="45" fill="#1F232F"/>
<rect x="496" y="213" width="9" height="45" fill="#1F232F"/>
<rect x="522" y="213" width="9" height="45" fill="#1F232F"/>
<rect x="548" y="206" width="9" height="60" fill="#1F232F"/>
<rect x="592" y="204" width="9" height="27" fill="#1F232F"/>
<rect x="618" y="203" width="26" height="55" fill="#1F232F"/>
<rect x="679" y="203" width="26" height="28" fill="#272B3D"/>
<rect x="643" y="202" width="19" height="21" fill="#272B3D"/>
<rect x="617" y="265" width="27" height="10" fill="#1F232F"/>
<rect x="626" y="240" width="27" height="26" fill="#1F232F"/>
<rect x="487" y="202" width="44" height="30" fill="#1F232F"/>
<rect x="466" y="213" width="24" height="10" fill="#1F232F"/>
<rect x="462" y="231" width="17" height="9" fill="#1F232F"/>
<rect x="486" y="240" width="17" height="9" fill="#1F232F"/>
<rect x="505" y="232" width="19" height="8" fill="#1F232F"/>
<rect x="539" y="232" width="27" height="8" fill="#1F232F"/>
<rect x="539" y="249" width="15" height="9" fill="#1F232F"/>
<rect x="551" y="214" width="15" height="9" fill="#1F232F"/>
<rect x="574" y="187" width="15" height="10" fill="#272B3D"/>
<rect x="583" y="204" width="15" height="10" fill="#1F232F"/>
<rect x="551" y="185" width="15" height="21" fill="#272B3D"/>
<rect x="609" y="193" width="15" height="21" fill="#1F232F"/>
<rect x="631" y="211" width="22" height="21" fill="#272B3D"/>
<rect x="702" y="193" width="21" height="21" fill="#272B3D"/>
<rect x="717" y="210" width="28" height="27" fill="#1F232F"/>
<rect x="708" y="219" width="12" height="9" fill="#1F232F"/>
<rect x="717" y="233" width="10" height="13" fill="#1F232F"/>
<rect x="727" y="246" width="10" height="10" fill="#1F232F"/>
<rect x="792" y="209" width="10" height="10" fill="#1F232F"/>
<rect x="820" y="209" width="10" height="10" fill="#1F232F"/>
<rect x="847" y="191" width="10" height="10" fill="#1F232F"/>
<rect x="866" y="181" width="10" height="10" fill="#1F232F"/>
<rect x="884" y="142" width="10" height="30" fill="#272B3D"/>
<rect x="860" y="158" width="16" height="14" fill="#272B3D"/>
<rect x="773" y="177" width="19" height="32" fill="#1F232F"/>
<rect x="763" y="177" width="19" height="23" fill="#1F232F"/>
<rect x="782" y="168" width="19" height="23" fill="#272B3D"/>
<rect x="792" y="174" width="74" height="7" fill="#272B3D"/>
<rect x="809" y="178" width="11" height="31" fill="#1F232F"/>
<rect x="836" y="177" width="11" height="14" fill="#272B3D"/>
<rect x="818" y="191" width="11" height="10" fill="#1F232F"/>
<rect x="864" y="141" width="25" height="22" fill="#272B3D"/>
<rect x="720" y="180" width="18" height="17" fill="#272B3D"/>
<rect x="731" y="189" width="7" height="17" fill="#272B3D"/>
<rect x="717" y="143" width="47" height="75" fill="#272B3D"/>
<rect x="679" y="224" width="9" height="17" fill="#272B3D"/>
<rect x="670" y="214" width="15" height="9" fill="#272B3D"/>
<rect x="470" y="258" width="9" height="9" fill="#1F232F"/>
<rect x="513" y="258" width="9" height="9" fill="#1F232F"/>
<rect x="539" y="266" width="9" height="9" fill="#1F232F"/>
<rect x="574" y="214" width="9" height="9" fill="#1F232F"/>
<rect x="688" y="241" width="9" height="9" fill="#1F232F"/>
<rect x="339" y="223" width="9" height="9" fill="#1F232F"/>
<rect x="114" y="194" width="7" height="15" fill="#272B3D"/>
<rect x="112" y="227" width="9" height="8" fill="#1F232F"/>
<rect x="103" y="178" width="9" height="49" fill="#272B3D"/>
<rect x="93" y="209" width="16" height="10" fill="#1F232F"/>
<rect x="93" y="179" width="16" height="12" fill="#272B3D"/>
<rect x="78" y="170" width="16" height="12" fill="#272B3D"/>
<rect x="56" y="174" width="28" height="26" fill="#272B3D"/>
<rect x="47" y="178" width="18" height="13" fill="#272B3D"/>
<rect x="56" y="197" width="9" height="13" fill="#272B3D"/>
<rect x="65" y="210" width="10" height="10" fill="#1F232F"/>
<rect x="37" y="191" width="10" height="10" fill="#1F232F"/>
<rect x="18" y="177" width="10" height="14" fill="#272B3D"/>
<rect x="9" y="168" width="41" height="14" fill="#272B3D"/>
<rect y="142" width="41" height="30" fill="#272B3D"/>
<rect x="110" y="160" width="9" height="49" fill="#272B3D"/>
<rect y="135" width="894" height="9" fill="#535E69"/>
<rect x="37" y="144" width="10" height="10" fill="#1D212D"/>
<rect x="121" y="144" width="10" height="10" fill="#1F232F"/>
<rect x="177" y="144" width="10" height="10" fill="#1F232F"/>
<rect x="65" y="162" width="10" height="10" fill="#1F232F"/>
<rect x="102" y="154" width="10" height="10" fill="#1F232F"/>
<rect x="121" y="162" width="10" height="10" fill="#1F232F"/>
<rect x="111" y="172" width="10" height="10" fill="#1F232F"/>
<rect x="168" y="163" width="10" height="10" fill="#1F232F"/>
<rect x="164" y="182" width="28" height="23" fill="#1F232F"/>
<rect x="190" y="193" width="18" height="10" fill="#1F232F"/>
<rect x="214" y="163" width="10" height="10" fill="#1F232F"/>
<rect x="227" y="179" width="29" height="16" fill="#1F232F"/>
<rect x="234" y="205" width="9" height="18" fill="#1F232F"/>
<rect x="225" y="197" width="9" height="17" fill="#1F232F"/>
<rect x="207" y="177" width="10" height="10" fill="#1F232F"/>
<rect x="260" y="172" width="10" height="10" fill="#1F232F"/>
<rect x="279" y="176" width="10" height="10" fill="#1F232F"/>
<rect x="268" y="194" width="10" height="10" fill="#1F232F"/>
<rect x="308" y="179" width="10" height="10" fill="#1F232F"/>
<rect x="326" y="172" width="10" height="10" fill="#1F232F"/>
<rect x="350" y="175" width="10" height="10" fill="#1F232F"/>
<rect x="405" y="177" width="10" height="10" fill="#1F232F"/>
<rect x="461" y="203" width="10" height="10" fill="#1F232F"/>
<rect x="484" y="172" width="10" height="10" fill="#1F232F"/>
<rect x="504" y="172" width="22" height="10" fill="#1F232F"/>
<rect x="524" y="172" width="10" height="44" fill="#1F232F"/>
<rect x="583" y="184" width="13" height="20" fill="#1F232F"/>
<rect x="587" y="144" width="10" height="10" fill="#1F232F"/>
<rect x="597" y="154" width="10" height="10" fill="#1F232F"/>
<rect x="615" y="163" width="19" height="10" fill="#1F232F"/>
<rect x="604" y="176" width="30" height="10" fill="#1F232F"/>
<rect x="643" y="181" width="10" height="10" fill="#1F232F"/>
<rect x="624" y="144" width="10" height="20" fill="#1F232F"/>
<rect x="660" y="163" width="10" height="28" fill="#1F232F"/>
<rect x="669" y="170" width="10" height="22" fill="#1F232F"/>
<rect x="670" y="144" width="10" height="10" fill="#1F232F"/>
<rect x="689" y="144" width="10" height="10" fill="#1F232F"/>
<rect x="699" y="154" width="10" height="10" fill="#1F232F"/>
<rect x="717" y="144" width="10" height="10" fill="#1F232F"/>
<rect x="688" y="172" width="30" height="10" fill="#1F232F"/>
<rect x="726" y="181" width="10" height="10" fill="#1F232F"/>
<rect x="736" y="191" width="9" height="10" fill="#1F232F"/>
<rect x="745" y="201" width="19" height="17" fill="#1F232F"/>
<rect x="726" y="201" width="10" height="10" fill="#1F232F"/>
<rect x="764" y="162" width="10" height="10" fill="#1F232F"/>
<rect x="764" y="144" width="10" height="10" fill="#1F232F"/>
<rect x="801" y="144" width="10" height="10" fill="#1F232F"/>
<rect x="848" y="144" width="10" height="10" fill="#1F232F"/>
<rect x="875" y="144" width="10" height="10" fill="#1F232F"/>
<rect x="65" y="181" width="10" height="10" fill="#1F232F"/>
<rect x="223" y="144" width="10" height="10" fill="#1F232F"/>
<rect x="242" y="144" width="10" height="10" fill="#1F232F"/>
<rect x="270" y="144" width="10" height="10" fill="#1F232F"/>
<rect x="252" y="154" width="10" height="11" fill="#1F232F"/>
<rect x="289" y="152" width="10" height="11" fill="#1F232F"/>
<rect x="317" y="144" width="10" height="10" fill="#1F232F"/>
<rect x="344" y="144" width="10" height="10" fill="#1F232F"/>
<rect x="334" y="154" width="10" height="11" fill="#1F232F"/>
<rect x="363" y="144" width="10" height="10" fill="#1F232F"/>
<rect x="372" y="163" width="10" height="11" fill="#1F232F"/>
<rect x="409" y="144" width="10" height="10" fill="#1F232F"/>
<rect x="419" y="162" width="10" height="11" fill="#1F232F"/>
<rect x="484" y="153" width="10" height="10" fill="#1F232F"/>
<rect x="494" y="144" width="10" height="9" fill="#1F232F"/>
<rect x="512" y="144" width="10" height="10" fill="#1F232F"/>
<rect x="522" y="154" width="9" height="9" fill="#1F232F"/>
<rect x="540" y="144" width="9" height="9" fill="#1F232F"/>
<rect x="540" y="163" width="9" height="9" fill="#1F232F"/>
<rect x="513" y="163" width="9" height="9" fill="#1F232F"/>
<rect x="494" y="163" width="9" height="9" fill="#1F232F"/>
<rect x="65" y="144" width="28" height="10" fill="#1F232F"/>
<rect x="142" y="153" width="26" height="10" fill="#1F232F"/>
<rect x="188" y="153" width="26" height="10" fill="#1F232F"/>
<rect x="270" y="163" width="19" height="9" fill="#1F232F"/>
<rect x="307" y="163" width="19" height="9" fill="#1F232F"/>
<rect x="382" y="154" width="19" height="9" fill="#1F232F"/>
<rect x="285" y="186" width="19" height="10" fill="#1F232F"/>
<rect x="251" y="214" width="36" height="9" fill="#1F232F"/>
<rect x="216" y="194" width="52" height="11" fill="#1F232F"/>
<rect x="295" y="196" width="18" height="9" fill="#1F232F"/>
<rect x="260" y="223" width="18" height="9" fill="#1F232F"/>
<rect x="326" y="191" width="19" height="9" fill="#1F232F"/>
<rect x="360" y="185" width="19" height="9" fill="#1F232F"/>
<rect x="386" y="187" width="19" height="9" fill="#1F232F"/>
<rect x="435" y="182" width="19" height="9" fill="#1F232F"/>
<rect x="437" y="173" width="19" height="9" fill="#1F232F"/>
<rect x="549" y="172" width="19" height="9" fill="#1F232F"/>
<rect x="578" y="164" width="19" height="9" fill="#1F232F"/>
<rect x="547" y="191" width="19" height="9" fill="#1F232F"/>
<rect x="641" y="154" width="19" height="9" fill="#1F232F"/>
<rect x="660" y="191" width="19" height="9" fill="#1F232F"/>
<rect x="679" y="200" width="19" height="9" fill="#1F232F"/>
<rect x="679" y="219" width="19" height="9" fill="#1F232F"/>
<rect x="698" y="191" width="19" height="9" fill="#1F232F"/>
<rect x="718" y="163" width="19" height="9" fill="#1F232F"/>
<rect x="745" y="172" width="19" height="9" fill="#1F232F"/>
<rect x="737" y="154" width="19" height="9" fill="#1F232F"/>
<rect x="782" y="154" width="19" height="9" fill="#1F232F"/>
<rect x="790" y="172" width="19" height="9" fill="#1F232F"/>
<rect x="819" y="163" width="19" height="9" fill="#1F232F"/>
<rect x="847" y="164" width="19" height="9" fill="#1F232F"/>
<rect x="866" y="154" width="28" height="10" fill="#1F232F"/>
<rect x="828" y="172" width="19" height="9" fill="#1F232F"/>
<rect x="819" y="144" width="19" height="10" fill="#1F232F"/>
<rect x="549" y="153" width="29" height="10" fill="#1F232F"/>
<rect x="465" y="163" width="19" height="9" fill="#1F232F"/>
<rect x="457" y="144" width="27" height="9" fill="#1F232F"/>
<rect x="463" y="182" width="21" height="9" fill="#1F232F"/>
<rect x="6" y="144" width="10" height="7" fill="#1D212D"/>
<rect x="18" y="154" width="10" height="10" fill="#1F232F"/>
<rect y="164" width="18" height="8" fill="#1F232F"/>
<rect x="18" y="180" width="10" height="11" fill="#1F232F"/>
<rect x="28" y="164" width="19" height="8" fill="#1F232F"/>
<rect x="47" y="191" width="19" height="9" transform="rotate(-90 47 191)" fill="#1F232F"/>
<rect x="56" y="210" width="19" height="9" transform="rotate(-90 56 210)" fill="#1F232F"/>
<rect x="75" y="200" width="19" height="9" transform="rotate(-90 75 200)" fill="#1F232F"/>
<rect x="84" y="182" width="20" height="9" transform="rotate(-90 84 182)" fill="#1F232F"/>
<rect x="93" y="191" width="19" height="9" transform="rotate(-90 93 191)" fill="#1F232F"/>
<rect x="103" y="227" width="18" height="9" transform="rotate(-90 103 227)" fill="#1F232F"/>
<rect x="112" y="209" width="19" height="9" transform="rotate(-90 112 209)" fill="#1F232F"/>
<rect x="121" y="197" width="18" height="9" transform="rotate(-90 121 197)" fill="#1F232F"/>
<rect x="129" y="205" width="15" height="10" transform="rotate(-90 129 205)" fill="#1F232F"/>
<rect x="155" y="197" width="15" height="9" transform="rotate(-90 155 197)" fill="#1F232F"/>
<rect x="183" y="186" width="15" height="9" transform="rotate(-90 183 186)" fill="#1F232F"/>
<rect x="139" y="190" width="18" height="16" transform="rotate(-90 139 190)" fill="#1F232F"/>
<rect x="9" y="172" width="38" height="10" fill="#1F232F"/>
</svg>
