<?xml version="1.0" encoding="utf-8"?>
<!-- Generator: Adobe Illustrator 24.2.0, SVG Export Plug-In . SVG Version: 6.00 Build 0)  -->
<svg version="1.1" id="Layer_1" xmlns="http://www.w3.org/2000/svg" xmlns:xlink="http://www.w3.org/1999/xlink" x="0px" y="0px"
	 viewBox="0 0 2652.4 2390.8" style="enable-background:new 0 0 2652.4 2390.8;" xml:space="preserve">
<style type="text/css">
	.st0{fill:#231F20;}
	.st1{fill:#F13E2D;}
	.st2{fill:#A09D9D;}
	.st3{fill:#58585A;}
	.st4{fill:#363638;}
	.st5{fill:#FEFEFE;}
</style>
<g>
	<path class="st0" d="M2524.3,1186.5c1.2-603.2-492.1-1083.8-1088.1-1075.9C876,118.1,378.5,566.6,378.3,1186
		c-0.2,600.1,488.1,1075.9,1081.9,1070.2C2090.9,2250.2,2530.6,1725.5,2524.3,1186.5z M410,1110.8c17.2-235.1,104.2-440.9,259-618.3
		c8.1-9.3,16.8-18,25.2-27c0,0,0,0,0,0c10.5-11.1,20.9-22.2,31.3-33.4c23.2-24.8,50.7-44.7,77.3-65.6c36.1-31.4,76-57.3,117-81.7
		c122.7-72.9,254.9-120,396.5-136.6c312.7-36.5,590.4,46.8,827.5,254.8c179.8,157.8,289.8,357,334.8,592
		c8.2,43,12.6,86.6,15.5,130.4c1,14.8,0.5,15-13.2,9.5c-74.5-30.2-147.3-64.6-222.4-93.3c-60.1-23-121.5-41.7-184.6-54.2
		c-11.2-2.2-15.9-7-18.7-18.1c-38.6-150.7-174.9-263.6-329.4-273.4c-159.3-10.1-298.1,71.9-365.6,216.8c-4.7,10-10.1,13.2-21,13.5
		c-184.1,5.6-364.5,35-541.5,86c-125.2,36.1-247.4,80.7-368.6,128.1c-6.3,2.5-12.7,4.7-20.2,7.5
		C407.2,1134.7,409.1,1122.8,410,1110.8z M2468.3,1413.7c-10.5,42.9-22.6,85.4-38.1,126.8c-21.6,57.4-46.6,113.1-78.8,165.4
		c-3.1,5-6.9,9.6-10.3,14.4c-8.5,22-23.4,40-36.4,59.1c-41.4,60.5-90.5,114.6-143.9,164.6c-60.7,56.7-127.5,105.1-200,145.7
		c-84.2,47.2-173.3,81.8-267.2,104.1c-55.7,13.2-112,21.7-169.2,25.7c-24.6,1.7-49.2,2.2-73.7,2.9c-33.8,0.9-67.9-1.7-101.6-5
		c-93.5-9-184.3-30.5-272-64.2c-112.6-43.2-215-103.8-306.4-182.7c-171.5-148.1-284-332.2-337.9-552.3c-2.8-11.5,0.4-15.4,10.6-19.3
		c100.6-38.3,202.5-72.6,306.5-100.7c5.3-1.4,10.6-2.8,15.9-4.2c98.5-26.6,198.3-47.1,299.3-62c67.6-10,135.5-16.8,203.6-21.8
		c26.2-1.9,52.6-2.4,78.9-4.3c8.3-0.6,10.8,3.8,13.7,9.9c46.7,99.4,121.4,168.6,226.4,200.9c126.6,38.9,242.5,14.5,345.9-68.1
		c27.7-22.1,51.3-48.3,70.6-78.1c4.9-7.6,9.6-9.7,18.8-7.8c129.7,27,255.8,66,379.7,112.4c19.1,7.2,37.9,15.3,57.3,21.5
		C2469.8,1399.9,2470.4,1405.2,2468.3,1413.7z M2486.9,1374.8c-2.4,9.9-7.7,7.8-14,5.3c-67.5-26.8-135.8-51.3-205-73.4
		c-84.9-27.1-170.9-49.9-258.2-67.7c-8.7-1.8-11.5,2.5-14.9,7.9c-27.8,45.3-63.8,82.6-108.6,111.1c-48.4,30.9-101.1,49-158.6,53.9
		c-82.4,7.1-157.3-13-225.6-58.8c-59-39.5-100.6-93.2-127.7-158.4c-3.8-9.3-8.7-10.9-17.1-10.4c-42.3,2.7-84.8,4.1-127,7.9
		c-55.6,5.1-111.2,11.1-166.5,19.1c-76,11-151.1,25.7-225.9,42.5c-28,6.3-55.1,16.6-83,23.2c-35,8.4-69.2,19.6-103.8,29.4
		c-6.1,1.7-11.5,5.8-18.2,5.4c-34.3,11.6-68.7,23-103,34.9c-33.1,11.5-66.4,22.5-98.5,36.6c-7.8,3.4-9.6-0.1-11.3-6.4
		c-5.7-21.2-8.4-43-12.1-64.6c-7.2-42.1-4.4-84.6-5.2-126.9c-0.2-9.4,2.9-14.5,12.2-17.9c23.4-8.4,45.8-19.6,69.7-26.8
		c50.3-19.2,100.7-38,151.5-55.5c57.6-19.9,115.4-39.3,174.3-54.8c73.3-19.2,146.8-37.9,221.7-50.6c58-9.9,116.2-18.4,175-23.3
		c36.8-3.1,73.5-6.5,110.4-7.8c14.8-0.5,29.6-2.1,44.5-1.9c7,0.1,9.4-3.5,11.6-9.2c28.5-72.4,76.4-129,142.3-169.9
		c42.7-26.5,89.4-42.7,139.5-48.5c93.9-10.9,178.8,12.1,253.9,69.1c66.7,50.7,109.4,117.7,128,199.5c2.6,11.4,7.7,15.8,18.5,17.8
		c110,20.9,213.4,61.2,315.3,106.4c39.6,17.6,79.6,34.1,119.7,50.5c7.4,3,11.2,7.2,11.4,14.8
		C2504.3,1243.7,2502.4,1309.7,2486.9,1374.8z M1707.3,801c-142.5-2.1-257.2,115.5-257.2,255.9c-0.1,139.9,111.6,256.6,255.4,257
		c144.3,0.4,256.4-114.1,257.8-254.6C1964.7,915.2,1846.9,799.3,1707.3,801z M1941.1,1065.2c-1.7,126.4-110.3,228.3-241.2,226.4
		c-125.4-1.8-229.5-109.7-228-236.3c1.6-129.9,107.8-234.6,236.5-233.1C1841.1,823.9,1942.9,930.2,1941.1,1065.2z M1707,876.4
		c-98.6-0.5-180,79.9-180.8,178.5c-0.8,101.1,79.6,182.7,180.1,182.9c99.4,0.2,180.1-79.9,180.9-179.7
		C1888.1,958.4,1807.3,877,1707,876.4z M1873,1060c-4.5,97.1-80.7,167.5-176.2,162.9c-88.4-4.2-161-83.7-156.4-171.2
		c4.8-93.1,82.2-165.3,172.4-160.8C1803.8,895.4,1877.1,972.8,1873,1060z"/>
	<path class="st1" d="M409,1147.8c-1.8-13.1,0.1-25.1,1-37.1c17.2-235.1,104.2-440.9,259-618.3c8.1-9.3,16.8-18,25.2-27c0,0,0,0,0,0
		c0,0,0,0,0,0c0.9,5-3.2,7.6-5.6,10.9c-14.7,21-27.5,43-37.2,66.8c-16.4,40-24.9,81.4-17.9,124.7c12.5,77.1,74.4,128.9,158,133.4
		C865,805.1,931.2,783.1,992,744c77.5-49.8,135.7-115.7,163.1-205.5c11.6-38.1,13.9-77,2.3-115.7c-20-67-82-110.1-160-112.1
		c-65.9-1.7-125.7,17.8-182.1,50.3c-3.9,2.2-7,6.5-12.4,5.5c36.1-31.4,76-57.3,117-81.7c122.7-72.9,254.9-120,396.5-136.6
		c312.7-36.5,590.4,46.8,827.5,254.8c179.8,157.8,289.8,357,334.8,592c8.2,43,12.6,86.6,15.5,130.4c1,14.8,0.5,15-13.2,9.5
		c-74.5-30.2-147.3-64.6-222.4-93.3c-60.1-23-121.5-41.7-184.6-54.2c-11.2-2.2-15.9-7-18.7-18.1
		c-38.6-150.7-174.9-263.6-329.4-273.4c-159.3-10.1-298.1,71.9-365.6,216.8c-4.7,10-10.1,13.2-21,13.5c-184.1,5.6-364.5,35-541.5,86
		c-125.2,36.1-247.4,80.7-368.6,128.1C422.9,1142.8,416.5,1145.1,409,1147.8z"/>
	<path class="st2" d="M2341,1720.4c-8.5,22-23.4,40-36.4,59.1c-41.4,60.5-90.5,114.6-143.9,164.6c-60.7,56.7-127.5,105.1-200,145.7
		c-84.2,47.2-173.3,81.8-267.2,104.1c-55.7,13.2-112,21.7-169.2,25.7c-24.6,1.7-49.2,2.2-73.7,2.9c-33.8,0.9-67.9-1.7-101.6-5
		c-93.5-9-184.3-30.5-272-64.2c-112.6-43.2-215-103.8-306.4-182.7c-171.5-148.1-284-332.2-337.9-552.3c-2.8-11.5,0.4-15.4,10.6-19.3
		c100.6-38.3,202.5-72.6,306.5-100.7c5.3-1.4,10.6-2.8,15.9-4.2c-7.1,4.1-4.5,10.1-2.9,15.8c34.2,127,92.4,241.8,174.4,344.8
		c46.7,58.6,99.9,110.4,159,156c58.4,45.1,121.7,82.5,189.4,112.5c144,63.9,294.7,89.5,451.5,78.7c58.2-4,115.6-13.8,172.1-29.1
		c93-25.3,180.5-63,262-114.8c45.7-29,88.6-61.9,128.7-98.1C2313.8,1747.1,2330.1,1736.5,2341,1720.4z M2188,1842.7
		c-62.9,42-129.7,76.2-200.7,101.8c-116.5,42-236.6,60.7-360.6,55.1c-48.6-2.2-96.7-7.3-144.2-17.1
		c-146.1-30.1-278-90.7-395.3-183.5c-87-68.8-159-150.7-216.8-245C823.1,1476.8,788,1394,765,1306.2c-1.1-4.2-2.4-8.2,0.6-12.1
		c-7.1,4.1-4.5,10.1-2.9,15.8c34.2,127,92.4,241.8,174.4,344.8c46.7,58.6,99.9,110.4,159,156c58.4,45.1,121.7,82.5,189.4,112.5
		c144,63.9,294.7,89.5,451.5,78.7c58.2-4,115.6-13.8,172.1-29.1c93-25.3,180.5-63,262-114.8c45.7-29,88.6-61.9,128.7-98.1
		c14.1-12.7,30.5-23.3,41.4-39.5c-4.7,3.6-9.6,7-14,10.9C2282.4,1770.6,2237.6,1809.6,2188,1842.7z"/>
	<path class="st3" d="M2490.7,1162.5c-40.1-16.4-80.1-33-119.7-50.5c-101.8-45.2-205.3-85.5-315.3-106.4
		c-10.8-2.1-15.9-6.5-18.5-17.8c-18.6-81.8-61.3-148.8-128-199.5c-75-57-159.9-80-253.9-69.1c-50.2,5.8-96.8,21.9-139.5,48.5
		c-65.9,40.9-113.7,97.5-142.3,169.9c-2.2,5.7-4.6,9.3-11.6,9.2c-14.8-0.3-29.7,1.3-44.5,1.9c-36.9,1.3-73.6,4.8-110.4,7.8
		c-58.7,4.9-116.9,13.5-175,23.3c-74.8,12.7-148.4,31.4-221.7,50.6c-58.9,15.5-116.7,34.8-174.3,54.8
		c-50.9,17.6-101.3,36.4-151.5,55.5c-4.6,12.5,0.3,24.6,3.4,35.8c19.3,69.3,64.2,114.2,133.3,134.4c3.6,1,7.6,0.7,11.4,0.9
		c6.7,0.4,12.1-3.7,18.2-5.4c34.6-9.8,68.7-21.1,103.8-29.4c27.9-6.7,55-17,83-23.2c74.8-16.7,150-31.5,225.9-42.5
		c55.4-8,110.9-14.1,166.5-19.1c42.2-3.8,84.6-5.2,127-7.9c8.4-0.5,13.3,1.1,17.1,10.4c27,65.2,68.7,118.9,127.7,158.4
		c68.3,45.7,143.2,65.8,225.6,58.8c57.6-4.9,110.2-23,158.6-53.9c44.8-28.6,80.8-65.9,108.6-111.1c3.3-5.4,6.1-9.7,14.9-7.9
		c87.3,17.8,173.3,40.6,258.2,67.7c69.2,22.1,137.5,46.6,205,73.4c6.3,2.5,11.6,4.6,14-5.3c15.6-65,17.5-131.1,15.2-197.4
		C2501.8,1169.7,2498.1,1165.6,2490.7,1162.5z M1705.5,1313.9c-143.8-0.4-255.5-117.1-255.4-257c0.1-140.4,114.7-258,257.2-255.9
		c139.6-1.7,257.4,114.1,255.9,258.3C1961.9,1199.7,1849.8,1314.2,1705.5,1313.9z"/>
	<path class="st4" d="M632.8,1311.9c-34.3,11.6-68.7,23-103,34.9c-33.1,11.5-66.4,22.5-98.5,36.6c-7.8,3.4-9.6-0.1-11.3-6.4
		c-5.7-21.2-8.4-43-12.1-64.6c-7.2-42.1-4.4-84.6-5.2-126.9c-0.2-9.4,2.9-14.5,12.2-17.9c23.4-8.4,45.8-19.6,69.7-26.8
		c-5.7,3.2-4.8,8.3-4,13.4c10.9,72.2,49.7,123.1,116.8,152C608.4,1311,619.9,1316.5,632.8,1311.9z M488,1176.6
		c-3.1-11.2-8.1-23.4-3.4-35.8c-5.7,3.2-4.8,8.3-4,13.4c10.9,72.2,49.7,123.1,116.8,152c11.1,4.8,22.6,10.3,35.4,5.7
		c-3.8-0.3-7.8,0.1-11.4-0.9C552.2,1290.8,507.4,1245.9,488,1176.6z"/>
	<path class="st5" d="M2468.3,1413.7c-10.5,42.9-22.6,85.4-38.1,126.8c-21.6,57.4-46.6,113.1-78.8,165.4c-3.1,5-6.9,9.6-10.3,14.4
		c-4.7,3.6-9.6,7-14,10.9c-44.6,39.3-89.4,78.3-139,111.5c-62.9,42-129.7,76.2-200.7,101.8c-116.5,42-236.6,60.7-360.6,55.1
		c-48.6-2.2-96.7-7.3-144.2-17.1c-146.1-30.1-278-90.7-395.3-183.5c-87-68.8-159-150.7-216.8-245C823.1,1476.8,788,1394,765,1306.2
		c-1.1-4.2-2.4-8.2,0.6-12.1c98.5-26.6,198.3-47.1,299.3-62c67.6-10,135.5-16.8,203.6-21.8c26.2-1.9,52.6-2.4,78.9-4.3
		c8.3-0.6,10.8,3.8,13.7,9.9c46.7,99.4,121.4,168.6,226.4,200.9c126.6,38.9,242.5,14.5,345.9-68.1c27.7-22.1,51.3-48.3,70.6-78.1
		c4.9-7.6,9.6-9.7,18.8-7.8c129.7,27,255.8,66,379.7,112.4c19.1,7.2,37.9,15.3,57.3,21.5C2469.8,1399.9,2470.4,1405.2,2468.3,1413.7
		z M689.9,480.2c-26,38.1-45.2,79-52.5,124.8c-8.7,54.6,1.4,104.4,40.9,145.2c21.5,22.2,48.4,35.9,78.7,42.3
		c57.7,12.2,113.4,3.9,167.6-17.4c51-20.1,96.2-49.8,134.8-88.2c51.6-51.4,90.1-111.1,99.9-185.4c13.4-101.7-45.6-171.7-137.8-184.8
		c-70.8-10.1-135.6,9.3-197.1,43c-6.5,3.6-12.1,11.7-21.4,6.8c-26.6,20.9-54,40.8-77.3,65.6c-10.4,11.1-20.9,22.3-31.3,33.4
		C698,471.9,692.9,475.9,689.9,480.2z M688.7,476.4c-14.7,21-27.5,43-37.2,66.8c-16.4,40-24.9,81.4-17.9,124.7
		c12.5,77.1,74.4,128.9,158,133.4C865,805.1,931.2,783.1,992,744c77.5-49.8,135.7-115.7,163.1-205.5c11.6-38.1,13.9-77,2.3-115.7
		c-20-67-82-110.1-160-112.1c-65.9-1.7-125.7,17.8-182.1,50.3c-3.9,2.2-7,6.5-12.4,5.5c9.4,4.9,14.9-3.2,21.4-6.8
		c61.5-33.6,126.3-53,197.1-43c92.2,13.1,151.2,83.1,137.8,184.8c-9.8,74.2-48.3,134-99.9,185.4c-38.5,38.4-83.8,68.1-134.8,88.2
		c-54.2,21.4-109.9,29.7-167.6,17.4c-30.3-6.4-57.2-20.2-78.7-42.3c-39.5-40.8-49.6-90.5-40.9-145.2c7.3-45.9,26.5-86.8,52.5-124.8
		c2.9-4.3,8.1-8.3,4.3-14.7c0,0,0,0,0,0C695.2,470.5,691,473.1,688.7,476.4z M1941.1,1065.2c-1.7,126.4-110.3,228.3-241.2,226.4
		c-125.4-1.8-229.5-109.7-228-236.3c1.6-129.9,107.8-234.6,236.5-233.1C1841.1,823.9,1942.9,930.2,1941.1,1065.2z M1887.3,1058.1
		c0.8-99.7-80-181.1-180.3-181.7c-98.6-0.5-180,79.9-180.8,178.5c-0.8,101.1,79.6,182.7,180.1,182.9
		C1805.7,1238,1886.5,1157.9,1887.3,1058.1z M1712.8,890.9c-90.1-4.5-167.6,67.7-172.4,160.8c-4.5,87.5,68.1,167,156.4,171.2
		c95.5,4.6,171.7-65.9,176.2-162.9C1877.1,972.8,1803.8,895.4,1712.8,890.9z"/>
</g>
</svg>
