<?xml version="1.0" encoding="utf-8"?>
<!-- Generator: Adobe Illustrator 23.0.2, SVG Export Plug-In . SVG Version: 6.00 Build 0)  -->
<svg version="1.1" xmlns="http://www.w3.org/2000/svg" xmlns:xlink="http://www.w3.org/1999/xlink" x="0px" y="0px"
	 viewBox="0 0 7119.5 2701.2" style="enable-background:new 0 0 7119.5 2701.2;" xml:space="preserve">
<style type="text/css">
	.st0{fill:url(#SVGID_1_);}
	.st1{fill:#F3C644;}
	.st2{fill:#435792;}
</style>
<g id="Слой_4">
	<g>
		
			<linearGradient id="SVGID_1_" gradientUnits="userSpaceOnUse" x1="2940.0674" y1="-91.7171" x2="2940.0674" y2="2108.2773" gradientTransform="matrix(1.1979 0 0 1.1979 -3.6007 206.9562)">
			<stop  offset="0" style="stop-color:#5E9EC1"/>
			<stop  offset="1" style="stop-color:#C1DBEA"/>
		</linearGradient>
		<path class="st0" d="M258.4,1474.7c0,0,60.1,101.1,60.3,100.9l106-53l14.7-7.4l485.7,1081.9l46.7,104l108.8-36l263-87l115.2-38.1
			l-30.5-117L1288.8,1887c40.3-30.1,77.7-62.1,112.2-95.6c-7.7,64.4-3.7,129.3,13.8,191.3c36.6,129.8,121.7,231.9,239.8,287.6
			c127.6,60.1,283.3,58.6,427.2-4c72.3-31.6,136.6-76.8,190.8-130.9l19.8,213.6l460.3-72.6l-0.6-414l962.1,466.9v-461.7
			c38.9-3.5,78.2-10.1,117.8-20c106.1-26.7,196.5-63,277-112.1l-40.4,248l518.7,76.6l28.7-187.6l135.5,249.5l82.6-160.8l30.2,262.2
			l588.3,97.9l-31.2-198.1c80.4,8.2,165.4-3.3,247.3-35.1c19.6-7.7,38.7-16.5,57.2-26.1l-23.7,211.5l391.5,50.8l3.2,160.8
			l407.9,124.4l531.7-1610.9l-553.5-128.8l-52.5,217.6L6382,847.3l-650.4-136.6l4.8,362.2l97.9,20.8l-7.3,65.6
			c-1-0.5-1.9-1.1-2.8-1.6c-121.2-63.2-271.8-68.1-413.7-13c-47.3,18.7-91.5,43.3-131.8,72.6L5181,598l-432.6,4.5l-12.1,71.3
			l-455.1,4.7l-52.1,319.9l-37.8-46.3c-110.3-134.9-270.1-208.1-447.2-210l386.3-212.1L3861,129.8l-487,567.3l84.2,102.1
			c-76.4,32-142.8,75.5-197.6,128l-417.5-366.8l-146.3,282l5.7-269.4l-652.9,215.6l16.7,351.5l111.1-30.2l16.5,178.1
			c-126.8-55.8-279.2-53.1-420.8,8.5c-41.8,18.5-81,41.5-117.2,68.1c24.5-108.8,18.7-215.8-22.5-310.7
			c-48.7-112.1-134.4-204.4-239.5-262.1c-73.7-48.4-161.5-78.2-253.6-87.6c-225.7-37.3-496.9,6.3-763.7,122.8
			c-98.1,42.8-189.8,91.7-272.3,145.1L0,1039.8l63,106 M2965.3,1400.1l123.6-121.6c-5.3,55.5-2.5,113.2,9.1,171.8L2965.3,1400.1z
			 M4179.1,1305.8l-84.9-75.7l90.7-97.8l27.2-29.3L4179.1,1305.8z"/>
	</g>
</g>
<g id="Слой_3">
	<g>
		<path class="st1" d="M6564.8,767.5l-52.7,217.1l-48.7-240.7l-651.8-143.4l4.8,362.3l98.2,21.9l-7.4,65.5c-1-0.5-1.9-1.1-2.8-1.6
			c-121.5-64.5-272.4-70.9-414.6-17.3c-47.4,18.2-91.7,42.4-132.1,71.2L5259.8,482h-433.5l-12.1,71.2h-456.1l-52.2,319.3l-37.9-46.6
			c-110.5-136-270.7-210.9-448.2-214.6l387.2-208L3937,0l-488.1,562.2l84.4,103c-76.5,31.2-143.1,74-198.1,125.9L2916.9,420
			l-146.6,280.4L2776,431l-654.3,208.8l16.7,351.7l111.3-29l16.6,178.3c-127.1-57.2-279.8-56-421.7,4.1
			c-41.9,18-81.2,40.6-117.4,66.9c24.6-108.6,18.8-215.6-22.6-311c-48.8-112.6-134.7-205.8-240-264.6
			c-73.8-49.2-161.9-79.9-254.2-90.2c-226.2-39.7-498,1.1-765.4,114.8c-98.4,41.8-190.2,89.7-272.9,142.3L67.5,869.7l63.1,106.7
			l195.8,331c0,0,60.2,101.7,60.5,101.6l106.2-51.9l14.8-7.2l486.8,1087l46.8,104.5l109-34.9l263.6-84.3l115.4-36.9l-30.5-117.3
			l-139.9-537.5c40.3-29.7,77.9-61.3,112.5-94.5c-7.7,64.3-3.7,129.2,13.8,191.5c36.6,130.2,122,233.2,240.4,290.1
			c127.8,61.4,283.9,61.6,428.1,0.5c72.4-30.9,136.9-75.4,191.2-128.9l19.9,213.8l461.3-67.8l-0.6-414L3790,2198v-461.7
			c39-3.1,78.4-9.3,118-18.8c106.3-25.6,196.9-61,277.6-109.2l-40.5,247.6l519.9,82l28.7-187.3l135.8,251l82.8-159.9l30.3,262.5
			l589.6,104l-31.3-198.4c80.6,9.1,165.7-1.5,247.9-32.5c19.7-7.5,38.8-16.1,57.3-25.5l-23.7,211.3l392.3,54.9l3.2,160.9
			l408.8,128.6L7119.5,902L6564.8,767.5z M1217.4,1367.6c-19-63-60-198.9-60-198.9c0.2,0.7-8.3-29.3-17.8-63
			c37.5-6.6,73.4-3.1,102.9,11.2c16.4,8,44.9,26.5,51.1,61.4C1307.6,1256.4,1280.5,1312,1217.4,1367.6z M3039.4,1261l123.9-120.3
			c-5.3,55.5-2.5,113.2,9.1,171.9L3039.4,1261z M3608.1,1212.1c-32.7-59.8-25.8-136.2,22.8-189.3c46.9-51.3,118.9-65.7,180.1-42.1
			L3608.1,1212.1z M4255.8,1179.3l-85.1-76.6l90.9-96.8l27.3-29L4255.8,1179.3z"/>
	</g>
</g>
<g id="Слой_2">
	<g>
		<g>
			<path class="st2" d="M6564.8,767.5l-52.7,217.1l-48.7-240.7l-651.8-143.4l4.8,362.3l98.2,21.9l-7.4,65.5c-1-0.5-1.9-1.1-2.8-1.6
				c-121.5-64.5-272.4-70.9-414.6-17.3c-47.4,18.2-91.7,42.4-132.1,71.2L5259.8,482h-433.5l-12.1,71.2h-456.1l-52.2,319.3
				l-37.9-46.6c-110.5-136-270.7-210.9-448.2-214.6l387.2-208L3937,0l-488.1,562.2l84.4,103c-76.5,31.2-143.1,74-198.1,125.9
				L2916.9,420l-146.6,280.4L2776,431l-654.3,208.8l16.7,351.7l111.3-29l16.6,178.3c-127.1-57.2-279.8-56-421.7,4.1
				c-41.9,18-81.2,40.6-117.4,66.9c24.6-108.6,18.8-215.6-22.6-311c-48.8-112.6-134.7-205.8-240-264.6
				c-73.8-49.2-161.9-79.9-254.2-90.2c-226.2-39.7-498,1.1-765.4,114.8c-98.4,41.8-190.2,89.7-272.9,142.3L67.5,869.7l63.1,106.7
				l195.8,331c0,0,60.2,101.7,60.5,101.6l106.2-51.9l14.8-7.2l486.8,1087l46.8,104.5l109-34.9l263.6-84.3l115.4-36.9l-30.5-117.3
				l-139.9-537.5c40.3-29.7,77.9-61.3,112.5-94.5c-7.7,64.3-3.7,129.2,13.8,191.5c36.6,130.2,122,233.2,240.4,290.1
				c127.8,61.4,283.9,61.6,428.1,0.5c72.4-30.9,136.9-75.4,191.2-128.9l19.9,213.8l461.3-67.8l-0.6-414L3790,2198v-461.7
				c39-3.1,78.4-9.3,118-18.8c106.3-25.6,196.9-61,277.6-109.2l-40.5,247.6l519.9,82l28.7-187.3l135.8,251l82.8-159.9l30.3,262.5
				l589.6,104l-31.3-198.4c80.6,9.1,165.7-1.5,247.9-32.5c19.7-7.5,38.8-16.1,57.3-25.5l-23.7,211.3l392.3,54.9l3.2,160.9
				l408.8,128.6L7119.5,902L6564.8,767.5z M4261.6,1005.9l27.3-29l-33.1,202.5l-85.1-76.6L4261.6,1005.9z M3916.2,179.1l142.7,194
				l-408.2,202.3l-28.2-42.7L3916.2,179.1z M3172.4,1312.6l-133-51.6l123.9-120.3C3157.9,1196.2,3160.7,1253.8,3172.4,1312.6z
				 M1212.5,1675.2l162.7,625l-263.6,84.3L570.4,1176.1c-29.3,15.4-83.6,41.4-133.7,66L240.9,911.2
				c78.1-49.7,163.4-93.9,254.3-132.5c255.2-108.5,498.2-140.7,693.2-106.5c68.7,7.9,141.8,28.4,205.4,70.7
				c87.7,49.3,154.7,119.4,193.5,208.9C1681.3,1169,1523.9,1482.9,1212.5,1675.2z M2330.3,1829.3c-54.8,75.9-130.5,139.2-220,177.4
				c-228.8,97-457.5,0-518.6-217c-59.3-210.3,78.5-460,300.2-555.3c141.4-59.9,283.3-45.7,385.2,23.4
				c63,42.8,110.7,106.5,133.4,186.9c2.5,8.7,4.5,17.6,6.3,26.4c6.3,30.6,8.9,61.8,7.8,93C2421.7,1657,2387.5,1750,2330.3,1829.3z
				 M3669.3,2005.8l-956.8-478.6l1.7,501.4l-247.5,33.9l-17.4-207c76.6-130.8,104.5-285.3,64.5-426.6
				c-21.9-77.7-62.2-145.6-117.2-199.5L2361,807.6l-111.3,29l-4.8-106.5l397.6-118.4l24.2,409.9l292.9-411.5l286.2,272.5
				l-400.1,421.8l375.9,148.8c42.2,79.5,105.9,147.4,186.5,197c77.9,47.9,166.8,76.5,261.2,85.4V2005.8z M3878.7,1596.6
				c-30.1,7.3-59.7,12.1-88.7,14.9c-219.5,21.4-403.6-79.6-473.7-243c-8.4-19.5-15.1-39.9-20.1-61.1
				c-32.5-137.8-4.9-260.8,63.1-357.2c19.7-27.9,42.9-53.5,68.9-76.6c64.2-57.1,146-99,238.7-121.4c209.4-50.5,393.6,13.5,506.2,152
				l-398.4,424.3c27.2,4.8,70.1-2.3,101.8-9.9c95-22.9,148.3-73.1,194.8-128.2l159.2,143.3l48.4,43.5c-21.2,21.9-42.9,42-65.4,60.5
				C4121.8,1513.6,4017.2,1563.2,3878.7,1596.6z M5384.4,2053.5l-325.7-49.7l-86.5-574.1l-122.5,316.7l-183.6-395.7h-2l-72.7,458.5
				l-305.7-53.2l42.9-255.8c11.5-10.8,23-21.8,34.2-33.4l98.9-102l-95.9-86.3l102-609h308.8l77,421.5l86.8-488.7H5161l91.7,595.4
				c-116.7,132.9-173.1,311.2-134.2,474.7c30.1,126.4,108,228.6,219.4,287.8c11.3,6,22.9,11.3,34.7,16.3L5384.4,2053.5z
				 M5710.5,1876.2c-79.1,29.8-157.2,35.9-227.2,22.2c-48.5-9.5-93.1-28.7-131.5-56.3c-61.3-44.1-106.7-109.8-126.4-192.4
				c-23.6-98.8-2-204.7,51.1-296.7c26.4-45.8,60.6-88.2,101.1-124.6c44.8-40.4,97.2-73.4,155-95.6c134.9-50.8,267.5-33.1,361.6,34.2
				c34.1,24.4,63.1,55.3,85.3,91.9c17.1,28.2,30.3,59.6,38.5,94.1c28.5,118.6-5.6,246-80.5,348.6c-31.9,43.7-71.2,83-116.2,115.1
				C5787.3,1840.9,5750.2,1861.1,5710.5,1876.2z M6510,2358.1l-226.2-67.6l-19.7-833.8l-113.8,643.2l-246.8-39.2l17.6-185.5
				c161.2-136.1,246.7-350.8,200-545.5c-20.6-86.3-64.8-161.2-127.6-218.5l20.7-218.4L5921,868l6.4-116.7l425.2,85.5l143,678
				L6642,907l323.5,71.6L6510,2358.1z"/>
			<path class="st2" d="M5826.5,1281.8c2.6,9.7,3.9,19.9,3.4,30.4c-2.6,63.2-62.2,112.1-133.2,109.2c-71-2.9-126.4-56.4-123.9-119.6
				c2.4-59.3,55.2-106,120.4-109.1c-12.5-2.7-25.4-4.5-38.7-5c-118.6-4.8-215.6,79.3-219.9,184c-4.5,111.5,85.4,203.2,202.2,207.9
				c118.6,4.8,215.6-79.3,220.2-190.8C5858.6,1350.1,5847.3,1313.2,5826.5,1281.8z"/>
			<path class="st2" d="M2225.5,1409.5c0,63.2-57.6,114.5-128.6,114.5c-71,0-128.6-51.3-128.6-114.5c0-59.4,50.8-108.2,115.8-113.9
				c-12.6-2.2-25.6-3.5-38.9-3.5c-118.7,0-212.2,88-212.2,192.8c0,111.6,93.5,199.6,210.4,199.6c118.7,0,212.2-87.9,212.2-199.6
				c0-38.7-12.8-75.1-34.8-105.6C2223.8,1389,2225.5,1399.1,2225.5,1409.5z"/>
		</g>
		<path class="st2" d="M3613.5,1195.9c-29.5-53.6-23.5-122,20-169.8c42-46.1,106.4-59.2,161.3-38.2L3613.5,1195.9z M3633.4,1026.1
			c-43.4,47.7-49.4,116.2-20,169.8l181.3-208C3739.9,966.9,3675.4,980,3633.4,1026.1z M3895.3,956.7c-93-84.6-236.9-77.8-321.5,15.1
			c-84.6,93-77.8,236.9,15.1,321.5c7.7,7,15.9,13.2,24.3,19l298.3-339.4C3906.4,967.3,3901,961.9,3895.3,956.7z M3613.5,1195.9
			c-29.5-53.6-23.5-122,20-169.8c42-46.1,106.4-59.2,161.3-38.2L3613.5,1195.9z"/>
		<path class="st2" d="M1380.1,1159c-23.2-128.1-189.9-199.8-356.6-110.4l41.9,146.7l65.9,216.9l30.1,98.9
			C1286.3,1431.6,1412.2,1336.3,1380.1,1159z M1214.2,1354.6c-18-59.3-56.9-187.3-56.9-187.3c0.2,0.7-7.9-27.6-16.9-59.3
			c35.3-6.3,69.1-3.1,97,10.4c15.5,7.5,42.4,24.9,48.3,57.7C1298.9,1249.7,1273.6,1302.1,1214.2,1354.6z"/>
	</g>
</g>
</svg>
