<?xml version="1.0" encoding="utf-8"?>
<!-- Generator: Adobe Illustrator 24.2.0, SVG Export Plug-In . SVG Version: 6.00 Build 0)  -->
<svg version="1.1" id="Layer_1" xmlns="http://www.w3.org/2000/svg" xmlns:xlink="http://www.w3.org/1999/xlink" x="0px" y="0px"
	 viewBox="0 0 190 183" style="enable-background:new 0 0 190 183;" xml:space="preserve">
<style type="text/css">
	.st0{fill:#0D131A;}
	.st1{fill:#84CABF;}
	.st2{fill:#72B0A6;}
	.st3{fill:#F2E100;}
	.st4{fill:#CBBD00;}
	.st5{fill:#CF7100;}
	.st6{fill:#EEEEEF;}
	.st7{fill:#C6000B;}
	.st8{fill:#FFFFFF;}
	.st9{fill:#A95B00;}
	.st10{fill:#C8C9CA;}
</style>
<g>
	<path class="st0" d="M126.8,36.1c-0.4-1.5-0.3-3.3,0.1-5.2c0.2-0.9,0.5-1.7,0.8-2.5c0.4,0.8,1.1,1.3,2,1.6c1,0.3,2,0.1,3.1-0.5
		c0.7-0.4,1.2-0.9,1.6-1.5c0.2,1.3,0.1,2.8-0.2,4.5c-0.4,2-1,3.6-2,4.9c-1,1.4-2.1,1.9-3.2,1.7C127.9,38.7,127.2,37.8,126.8,36.1z
		 M155,58.7c0.5-0.2,0.4-1-0.4-2.2c-0.8-1.2-1.4-1.7-1.8-1.5c-0.4,0.2-0.2,0.9,0.4,2.2C153.9,58.4,154.5,59,155,58.7z M165,59.9
		c1-0.7,1.3-1.3,1.1-1.7c-0.2-0.4-0.8-0.2-1.7,0.6c-1,0.9-1.3,1.4-1.1,1.7C163.5,60.8,164,60.6,165,59.9z M169.9,31.4
		c0.4,0.2,0.7,0,1-0.6l1.2-1.9l1.2-1.2c0.6-0.4,0.8-0.7,0.7-0.9l-1.1,0.1c-1.3,0.6-2.3,1.7-3.1,3.3
		C169.5,30.8,169.5,31.2,169.9,31.4z M137.7,16c1.9,1.1,3.1,2.8,3.5,5.1c0.2,1,0.4,1.5,0.8,1.5c0.4,0,0.5-0.6,0.4-1.6
		c-0.1-1.3-0.6-2.5-1.5-3.6c-0.8-1-1.8-1.8-3-2.3c-0.6-0.3-1-0.3-1.1,0C136.8,15.4,137,15.7,137.7,16z M121.2,43
		c-0.3-1.2-0.3-3.1,0-5.8c0.3-3,0.9-5.8,1.8-8.5c2.5-7.3,6.1-10.9,10.9-10.5c5,0.3,7.1,5.1,6.6,14.4c-0.2,3.4-0.7,6.7-1.6,9.8
		c-0.9,3-1.6,4.6-2.3,4.9c-1.4,0.6-4.1,0.4-8.3-0.7C123.8,45.5,121.5,44.3,121.2,43z M124.5,31.3c-0.6,2-1,4.3-1.3,7
		c-0.3,2.3-0.4,3.7-0.3,4.2l0.2,0.3l0.9,0.6c1.5,0.8,3.7,1.4,6.7,1.9l0.8,0.1c2.6-2.3,4.5-5.7,5.7-10.2c1.1-4,1.4-7.5,0.9-10.6
		c0,0,0,0,0,0c-0.3-1.2-0.7-2.2-1.1-3c-0.7-1-1.7-1.6-2.9-1.8c-0.1,0-0.3-0.1-0.4-0.1c-1.9-0.1-3.7,0.8-5.3,2.7
		c-0.5,0.6-0.9,1.2-1.3,1.9C126.1,26.3,125.2,28.5,124.5,31.3z M133.1,45.6l2.7,0.2c0.4-0.5,0.9-1.9,1.5-4.4
		c0.3-1.3,0.6-2.6,0.8-3.9C136.9,40.9,135.2,43.6,133.1,45.6z M190,96c0,0.4-0.3,1-0.9,1.9c-0.8,1.1-1.9,2.3-3.3,3.5
		c0.7,0.8,1,1.7,1,2.7c0,1-1,2-3,3.2c-2.1,1.2-4.8,2.2-7.9,2.9c-7.7,1.7-15,1.2-21.9-1.7c-1.1,7.9-3.4,14.8-7.1,20.9
		c4.3,3.3,7.2,7.7,8.6,13.1c1.4,5.2,1.3,9.6-0.5,13.3c5.4,2.3,8,4.1,8,5.4c0,0.7-1.2,1.9-3.6,3.6c0.4,0.4,0.5,0.8,0.4,1.1
		c-0.7,2.1-4.4,4.4-11,7c-6.5,2.5-11.3,3.6-14.3,3.2c-0.7-0.1-3.5-3-8.4-8.6c-5.3-6.2-10.2-10.7-14.7-13.3c-1.6,0.4-3.2,0.6-4.9,0.9
		c-6.2,0.8-11,0.4-14.4-1c-0.2,0.4-0.5,0.8-0.8,1.2c-4.1,5.2-7.1,9.1-9.1,11.9l-5.4,8.6c-2.6,4.1-4.3,6.2-5.1,6.3
		c-1.3,0.3-3.7-1.9-7.3-6.6c-2.3,1.5-4.6,2.7-6.9,3.6c-2.2,0.9-3.7,1.2-4.3,1c-0.5-0.2-0.9-0.9-1-2c-0.1-0.9-0.2-2.9-0.2-6.1
		l-5.6-2.4c-2.4-1.2-3.6-2.2-3.7-3c-0.1-0.7,0.5-1.8,1.8-3.2c1.5-1.6,3.6-3.3,6.3-5l1.6-10.2c0.2-1,0.4-2,0.7-3
		c-9.6-0.4-19.4-4.7-29.3-13c-9.3-7.8-16-16.9-20.2-27.4c-1.8-3.3-2.7-7-2.7-11c0-9.1,3.3-16.7,9.9-22.8c6.1-5.6,13.1-8.4,21-8.4
		c8.1,0,14.3,2.9,18.5,8.6c3.4,4.6,5.3,10.7,5.8,18.5c0.8-2.5,1.7-4.8,2.8-7.1c2.7-5.7,6-10.9,9.8-15.8c-4.5-9.6-6.2-15.6-5.4-18.1
		c0.3-0.9,1.7-1.5,4.1-1.6l4.9,0.3c0.2-2,0.6-4,1.3-6.1c0.9-2.8,1.9-4.3,3-4.5c1-0.2,4.6,2.3,10.9,7.5c1.1,0.9,2.2,1.8,3.2,2.6
		c1.5-1.4,3.1-2.4,5.1-2.9c-0.2-2.6,0-5.3,0.4-8c1.9-11.7,7.6-20.6,17.1-26.7c9.6-6.1,21.2-8.1,34.8-6c10.4,1.6,18.8,6.5,25,14.8
		c2.5,3.3,4.2,6.5,4.9,9.7c0.7,2.9,0.4,5.2-0.7,6.7c0.2,0.5,0.4,1.1,0.6,1.7c0.6,2.1,0.9,4.2,0.7,6.2c-0.2,3.2-0.7,5.8-1.5,7.7
		c1.8,1.9,2.7,4.3,2.5,7.2c-0.2,3.1-1.3,5.4-3.4,6.9l-0.3,0c-1.7,5.3-5.4,9.8-11.3,13.5c2.2,0.9,4.9,2.5,8.3,4.6
		c2.7,1.7,4.8,3.2,6.4,4.6l4.1-0.2c1.8,0.1,2.9,0.5,3.3,1c0.2,0.3,0.2,1.1,0,2.2l-0.9,3.1C188.4,94,189.8,95,190,96z M184.3,104.8
		c0.3-0.3,0.4-0.5,0.4-0.7c0-0.6-0.3-1.3-0.8-2.3c-0.2-0.3-0.2-0.6,0.1-0.9c2.3-2.3,3.5-3.8,3.7-4.5c-0.3-0.5-1.4-1.1-3.2-1.7
		l-0.5-0.3v-0.6c0.6-2.1,0.9-3.6,0.9-4.6v-0.1l-2-0.4l-2.4-0.1c0.4,0.4,0.7,0.8,1,1.1c0.4,0.5,0.4,0.8,0.1,1.1
		c-0.3,0.3-0.6,0.2-1-0.3c-1.5-1.9-4.6-4.2-9.4-6.9c-4-2.3-7-3.8-8.9-4.3c-0.2,0.1-0.4,0.2-0.6,0.3c-3.4,1.8-7,3-10.6,3.8
		c2.2,5.1,3.3,10.1,3.3,14.7c0,0.8,0,1.5-0.1,2.2c-0.1,2.2-0.2,4.4-0.4,6.5c1.7,0.6,3.6,1.2,5.8,1.7l10.3,1c3.4,0,6.8-0.7,10.1-2.2
		C182.4,106.2,183.7,105.4,184.3,104.8z M153.1,142.5c-1.5-4.4-4.1-8-7.7-10.9c-4.1,6.2-9.7,11.4-16.6,15.6
		c-0.4,0.2-0.8,0.5-1.2,0.7c-4.3,2.5-8.7,4.4-13.4,5.6c4.5,2.6,9,6.7,13.7,12.6l4.5,6c1.3,1.7,2.2,2.5,2.6,2.4
		c3.2-0.2,7.8-1.5,13.8-4c5.8-2.4,8.6-3.9,8.7-4.7c0-0.3-0.4-0.8-1.4-1.3c-0.7-0.4-1.6-0.8-2.5-1.1c-0.3-0.1-0.6-0.2-0.9-0.3
		c-1.2-0.4-1.8-0.7-1.8-1.1c0,0,0,0,0,0l2.1-0.1c1.7,0.3,3.2,0.9,4.5,1.7c2-1.3,3-2.1,3-2.5c0-0.1-0.1-0.2-0.2-0.4
		c-0.3-0.4-1-0.8-2.1-1.4c-1.4-0.8-3-1.6-4.9-2.3l-0.5-0.5l0.2-0.7C154.8,151.8,154.8,147.4,153.1,142.5z M106.8,153.5
		c3.6-0.5,7.1-1.5,10.6-2.7l-0.2-1.1l-13.2-0.4L93.2,148c0.1,1.8-0.1,3.3-0.5,4.6C96.1,154.1,100.8,154.4,106.8,153.5z M65.2,174.1
		l3.4,3.7c0.5,0.4,0.8,0.8,1.2,1.1c0.6,0.5,1,0.8,1.3,0.8c0.6-0.3,2.2-2.2,4.6-5.5l5.2-7.7c1.1-1.8,3.6-5.2,7.3-10l1.9-2.5
		c0.8-1.1,1.2-2.7,1.2-5l-0.2-3.3c-0.2-1.5-0.6-3-1-4.5c-0.8-2.9-2.1-5.9-3.7-8.8c-2.5-4.5-5.1-7.6-7.8-9.6c-1.4-1-3.1-1.2-5-0.8
		c-1.9,0.4-3.8,1.4-5.8,3c-2.9,2.4-5.7,5.9-8.4,10.5c-2.1,3.5-3.9,8.4-5.4,14.9c-0.7,3.2-1.3,6.1-1.6,8.7l-0.3,0.5l-4.5,4
		c-1.3,1.3-1.9,2.2-1.9,2.6c0,0,0,0.1,0.1,0.1c0.2,0.4,1,1,2.3,1.9c1.5,1,3.2,1.9,5.2,2.7c0.1,0,0.2,0.1,0.2,0.1
		c0.2,0.1,0.3,0.3,0.3,0.6c0,2.6,0.1,4.4,0.4,5.5c0.1,0.3,0.2,0.5,0.2,0.7c1.3-0.3,4.7-1.5,10.1-3.7l0.4,0.1L65.2,174.1z M53.5,143
		c0.7-2.4,1.4-4.5,2.2-6.3c0.5-1.2,1-2.2,1.6-3.1c0.1-0.2,0.2-0.4,0.4-0.6c-3.8-4.9-5.5-12.7-5-23.2c0.2-5.3,0.9-10.3,2-15
		c0.1-9.3-1.8-16.6-5.8-21.9c-4.1-5.5-9.8-8.2-17.1-8.2c-6.7,0-12.8,2.5-18.3,7.4c-2.3,2-4.1,4.2-5.5,6.6c-2.6,4.4-4,9.4-4,15
		c0,5.5,1.5,10.1,4.4,13.8c2.9,3.8,6.5,5.6,10.8,5.6c4.1,0,7.6-1.5,10.5-4.5c1.9-2,3.2-4.3,3.8-6.9c0.3-1.3,0.5-2.7,0.5-4.1
		c0-3.2-0.7-5.8-2.1-7.8c-1.2-1.7-2.7-2.8-4.4-3.3c-1.1-0.3-2.1-0.3-3,0c-0.9,0.3-1.7,0.9-2.2,1.7c-0.4,0.7-0.7,0.9-1,0.7
		c-0.3-0.2-0.3-0.6,0-1.2c0.7-1.4,1.6-2.3,2.8-2.7c1-0.4,2.3-0.4,3.8,0c2.6,0.6,4.7,2.1,6.4,4.5c1.7,2.4,2.5,5.1,2.5,8.1
		c0,4.7-1.8,8.8-5.4,12.3c-1.2,1.2-2.5,2.1-3.8,2.9c-2.6,1.5-5.4,2.3-8.5,2.3c-4,0-7.6-1.5-10.8-4.5c4,7.3,9.5,13.8,16.5,19.7
		C34.4,138.5,44,142.7,53.5,143z M72.7,71.4c5.9,12.4,10.9,20,15,22.6c2.8,1.9,6.2,2.1,10.1,0.7c1-0.4,2-0.8,2.9-1.3
		c0.6-0.4,1.2-0.8,1.8-1.2c0.1-0.2,0.2-0.3,0.4-0.3c1.8-1.4,3.4-3.1,4.9-5.1c1.3-1.8,2.4-4.2,3.2-7.1c0.8-2.9,1-5.1,0.8-6.9
		c-2.3-1.9-4.5-4-6.5-6.3c-2.9-3.3-5.1-6.8-6.8-10.4c-2.5-1.8-6.2-4.8-11.3-9c-6.5-5.3-9.9-7.9-10.2-7.8c-0.5,0.1-1.1,1.4-2,3.9
		c-0.8,2.4-1.3,4.5-1.5,6.2c-0.1,1.3-0.4,2-0.8,1.9c-0.4,0-0.6-0.7-0.6-2c0-0.1,0-0.1,0-0.2c-1.2-0.1-2.5-0.1-3.9,0
		c-1.6,0.1-2.5,0.3-2.7,0.5c0,0.1,0,0.1,0,0.2C64.7,52.5,67.1,59.7,72.7,71.4z M115,11.3c-9.3,6-14.9,14.4-16.6,25.3
		c-1.7,10.6,1.2,20.2,8.6,28.9c7.4,8.6,17.2,14,29.5,16c8.6,1.4,16.8,0.1,24.4-3.8c7-3.7,11.5-8.4,13.3-14.1
		c-0.2-0.2-0.5-0.3-0.7-0.5c-0.8-0.5-1.5-0.7-2.1-0.7l-5.4,2.2c-3.5,1.5-6.2,2.2-8.2,2.1c-0.8,0-2.9-1-6.2-3c-3.7-2.2-6-3.4-6.8-3.7
		c-1.4-0.5-4.1-1.1-8.2-1.8l-9.2-1.4c-2.3-0.2-4.6-1.2-6.7-2.8c-2.1-1.6-3.6-3.4-4.7-5.5c-0.5-1-0.6-1.6-0.2-1.8
		c0.3-0.2,0.7,0.3,1.2,1.3c0.9,1.8,2.3,3.4,4.3,4.8c2,1.4,4.1,2.2,6.2,2.4l9.3,1.4c4.2,0.8,7,1.5,8.5,2c0.9,0.3,3.1,1.5,6.7,3.6
		c3.2,1.9,5.2,2.9,5.9,2.9c1.8,0.1,4.4-0.5,7.9-2l5.4-2.3c1.4-0.1,2.9,0.5,4.3,1.8c1.2-1.1,1.9-2.8,2-5.3c0.1-2.2-0.4-4.1-1.4-5.6
		c0,0,0,0.1-0.1,0.1c-1,1.6-2.2,2.4-3.6,2.2c-0.9-0.1-1.5-0.7-2-1.9c-1-2.4-1-5.9-0.1-10.6c0.9-5,2.5-8.8,4.6-11.3
		c0.4-0.4,0.6-0.4,0.5,0l-0.5,1.6c0.4,0.3,0.7,0.7,1.1,1.1c0-0.1,0-0.2,0-0.2c0.8-1.3,0.6-3.3-0.4-6c-1.1-2.8-3-5.6-5.5-8.5
		c-6.4-7.3-13.9-11.6-22.6-12.9C135.2,3.3,124.4,5.4,115,11.3z M176.8,41.2c0-1.9-0.2-3.7-0.7-5.3c-0.4-1.4-1-2.5-1.6-3.1
		c-0.2,0.3-0.3,0.6-0.4,0.9c-0.7,1.5-1.2,3.2-1.7,5.1c0,0.2-0.1,0.4-0.1,0.6c0.2,0.6,0.4,0.9,0.8,1c0.7,0.1,1.3-0.8,1.8-2.8
		c0.3,0.4,0.4,1,0.5,1.9c0.1,1.1-0.1,2.3-0.4,3.8c-0.3,1.2-0.8,2.2-1.5,3.1c-0.7,0.8-1.2,1.1-1.6,1c-0.1,0-0.2-0.1-0.3-0.2
		c0,1.8,0.2,3.2,0.6,4.3c0.2,0.6,0.4,0.8,0.6,0.8c0.4,0,0.8-0.1,1.2-0.4c0.7-0.6,1.3-1.7,1.8-3.4c0.5-1.7,0.8-3.7,0.9-6L176.8,41.2z
		 M58.1,92c-1.8,5.5-2.9,11.5-3.4,17.8c-0.8,9.8,0.5,17.1,3.8,21.7c1.4-2.2,2.9-4.1,4.5-5.7c0.3-1.6,0.7-3.3,1.1-5.2
		c0.5-1.9,1-3.5,1.5-4.9c-3.4-5.3-5.6-10.7-6.8-16.3C58.4,97,58.1,94.5,58.1,92z M130.2,127c4.8-10.8,7.6-18.9,8.3-24.3
		c-2.7-0.1-5.5-0.5-8.4-1.2c-4.9-1.3-9.2-3.3-12.9-6c-3.2-2.3-5.6-5-7.2-7.9c-0.1,0.2-0.3,0.4-0.4,0.6c-1.6,2.3-3.5,4.1-5.5,5.5
		l0.8,12l0.6,11.7c2.1,3,5.4,5.7,9.9,8.1c4.2,2.2,8.7,3.7,13.5,4.7C129.3,129,129.7,128,130.2,127z M102.5,94.7
		c-1.3,0.8-2.7,1.4-4.2,1.8c-3.9,1.2-7.4,1.1-10.4-0.5c-0.4,8.9-4.4,16.8-12,23.9c1.3,0.2,2.4,0.6,3.5,1.3c3.3,2.3,6,5.3,8.2,9
		c4.9-2.6,10.3-7,16.2-13.1l-0.6-11.7L102.5,94.7z M68.1,113.8c-0.3,0.7-0.6,1.4-0.9,2.2c-0.5,1.3-1,2.7-1.5,4.3
		c-0.4,1.5-0.8,2.8-1,3.9c1.5-1.3,3.1-2.3,4.7-3.1c1.4-0.7,2.8-1.1,4-1.3c1.3-1.1,2.6-2.4,3.9-4c1.4-1.8,2.8-3.8,4.1-6.2
		c3-5.3,4.5-10.3,4.6-14.9c-1.7-1.3-3.6-3.5-5.7-6.4c0.1,2.2,0,4.6-0.5,7.1c-0.6,3.4-1.6,6-2.9,7.9l-5.2,5.9
		C69.9,111.2,68.7,112.7,68.1,113.8z M143.4,100.7c4-0.3,7-1.3,9.1-2.9c0-4.5-0.7-8.8-2.2-12.8c-0.2-0.5-0.4-1.1-0.6-1.6
		c-2.9,0.5-5.9,0.6-8.9,0.4c-0.3,0-0.7,0-1-0.1c-1.2-0.1-2.4-0.2-3.6-0.4c-2-0.3-3.9-0.8-5.8-1.3c-3.3-0.9-6.5-2.1-9.5-3.5
		c-2.6-1.3-5.1-2.8-7.5-4.5c0,0,0,0,0,0c0,1.9-0.2,4.1-0.8,6.7c-0.5,2-1.1,3.7-1.7,5.2c1.4,2.9,3.7,5.5,6.9,7.8
		c3.6,2.6,7.9,4.5,12.8,5.7C135.1,100.6,139.4,101,143.4,100.7z M93.1,146.7l11.8,1.1c5.9,0.4,10.1,0.4,12.7,0.3
		c1.5-1.1,3.3-3.3,5.2-6.5c1.5-2.5,3.2-5.6,5-9.4c-4.7-0.7-9.1-2.2-13.2-4.5c-4.2-2.4-7.5-5.4-9.9-8.9c0,0,0-0.1-0.1-0.2l-5.1,4.9
		c-4,3.6-7.7,6.3-11.2,8.1c1.2,2.2,2.2,4.5,3,7.1c0,0.1,0.1,0.2,0.1,0.3C92.4,141.9,92.9,144.4,93.1,146.7z M118.8,150.2
		c2.8-1.1,5.5-2.5,8.2-4.1c3.9-2.4,7.3-5.1,10.4-8.2c1.9-1.9,3.6-4.1,5.2-6.3c-1.6,0.4-3.5,0.7-5.7,0.8c-2.5,0.2-4.8,0.2-6.9,0
		c-1.6,3.4-3.2,6.4-4.7,8.8c-2.3,3.8-4.5,6.4-6.5,8L118.8,150.2z M152.5,99.8c-2.3,1.4-5.2,2.3-8.8,2.7c-1.2,0.1-2.4,0.2-3.6,0.2
		c-0.7,6.4-3.4,14.9-8.2,25.4c-0.3,0.7-0.6,1.4-0.9,2l6,0.3c2.7-0.1,5-0.3,6.8-0.7c0.4-0.6,0.7-1.1,1.1-1.7
		C149.7,119.9,152.2,110.5,152.5,99.8z M95.7,46.2c-1.4,0.5-2.7,1.2-3.8,2.1c2.2,1.8,3.9,3.2,5.3,4.3C96.4,50.5,96,48.3,95.7,46.2z
		 M69.7,69.4c-2.1,3-4.1,6.1-5.9,9.4c-0.9,1.6-1.7,3.2-2.5,4.9c-0.4,0.8-0.7,1.6-1.1,2.5c-0.7,3.7-0.4,8.1,0.7,13.4
		c0.8,3.8,2,7.3,3.5,10.5c0.6,1.3,1.3,2.6,2,3.9c0.1-0.2,0.2-0.5,0.3-0.7c0.6-1.3,1.9-3.1,4-5.4l4.6-5.5c1.1-1.7,1.9-4.5,2.5-8.3
		c0.5-3.4,0.6-6.3,0.3-8.8C76,81.6,73.6,77.2,71,72C70.6,71.1,70.2,70.3,69.7,69.4z M80.3,60.9c0.1,0,0.1,0,0.2,0
		c0.4-0.2,0.6-0.8,0.5-2c-0.2-2.6-0.3-4.9-0.1-6.8c0.2-1.6,0.4-2.6,0.7-3c0,0,0-0.1,0.1-0.1c0.4-0.1,1.2,0.2,2.5,0.9
		c1.3,0.7,2.2,1.4,2.6,2c0.6,1,1.2,1.3,1.6,1c0.5-0.3,0.4-0.9-0.2-1.9c-0.6-0.9-1.7-1.9-3.3-2.9c-1.9-1.2-3.2-1.6-4.1-1.2
		c-1.5,0.7-1.9,4.8-1.3,12.2C79.4,60.3,79.7,61,80.3,60.9z"/>
	<path class="st1" d="M105.3,66.5c-2.9-3.3-5.1-6.8-6.8-10.4c-2.5-1.8-6.2-4.8-11.3-9c-6.5-5.3-9.9-7.9-10.2-7.8
		c-0.5,0.1-1.1,1.4-2,3.9c-0.8,2.4-1.3,4.5-1.5,6.2c-0.1,1.3-0.4,2-0.8,1.9c-0.4,0-0.6-0.7-0.6-2c0-0.1,0-0.1,0-0.2
		c-1.2-0.1-2.5-0.1-3.9,0c-1.6,0.1-2.5,0.3-2.7,0.5c0,0.1,0,0.1,0,0.2c0.7-0.1,1.9,1,3.4,3.4l18.6,22.4c7.6,9.2,12.1,15.1,13.3,17.7
		c0.6-0.4,1.2-0.8,1.8-1.2c0.1-0.2,0.2-0.3,0.4-0.3c1.8-1.4,3.4-3.1,4.9-5.1c1.3-1.8,2.4-4.2,3.2-7.1c0.8-2.9,1-5.1,0.8-6.9
		C109.4,70.9,107.3,68.8,105.3,66.5z M88.3,53c-0.5,0.3-1-0.1-1.6-1c-0.4-0.6-1.3-1.3-2.6-2c-1.3-0.7-2.1-1-2.5-0.9c0,0,0,0-0.1,0.1
		c0.1,0.3,0.3,0.6,0.5,1c1.2,3.1,1.3,6.1,0.4,9c-0.3,1.1-0.7,1.7-1.2,2c-0.3,0.2-0.5,0.1-0.7-0.2c-0.1,0-0.1,0-0.2,0
		c-0.5,0-0.8-0.6-0.9-1.9c-0.6-7.4-0.2-11.5,1.3-12.2c0.9-0.4,2.2,0,4.1,1.2c1.6,1.1,2.7,2,3.3,2.9C88.7,52,88.8,52.7,88.3,53z
		 M136.5,81.6c8.6,1.4,16.8,0.1,24.4-3.8c7-3.7,11.5-8.4,13.3-14.1c-0.2-0.2-0.5-0.3-0.7-0.5c-0.8-0.5-1.5-0.7-2.1-0.7l-5.4,2.2
		c-3.5,1.5-6.2,2.2-8.2,2.1c-0.8,0-2.9-1-6.2-3c-3.7-2.2-6-3.4-6.8-3.7c-1.4-0.5-4.1-1.1-8.2-1.8l-9.2-1.4c-2.3-0.2-4.6-1.2-6.7-2.8
		c-2.1-1.6-3.6-3.4-4.7-5.5c-0.5-1-0.6-1.6-0.2-1.8c0.3-0.2,0.7,0.3,1.2,1.3c0.9,1.8,2.3,3.4,4.3,4.8c2,1.4,4.1,2.2,6.2,2.4l9.3,1.4
		c4.2,0.8,7,1.5,8.5,2c0.9,0.3,3.1,1.5,6.7,3.6c3.2,1.9,5.2,2.9,5.9,2.9c1.8,0.1,4.4-0.5,7.9-2l5.4-2.3c1.4-0.1,2.9,0.5,4.3,1.8
		c1.2-1.1,1.9-2.8,2-5.3c0.1-2.2-0.4-4.1-1.4-5.6c0,0,0,0.1-0.1,0.1c-1,1.6-2.2,2.4-3.6,2.2c-0.9-0.1-1.5-0.7-2-1.9
		c-1-2.4-1-5.9-0.1-10.6c0.9-5,2.5-8.8,4.6-11.3c0.4-0.4,0.6-0.4,0.5,0l-0.5,1.6c0.4,0.3,0.7,0.7,1.1,1.1c0-0.1,0-0.2,0-0.2
		c0.8-1.3,0.6-3.3-0.4-6c-1.1-2.8-3-5.6-5.5-8.5c-6.4-7.3-13.9-11.6-22.6-12.9c-12.3-1.9-23.2,0.2-32.5,6.2
		c-9.3,6-14.9,14.4-16.6,25.3c-1.7,10.6,1.2,20.2,8.6,28.9C114.4,74.3,124.3,79.6,136.5,81.6z M169.7,30.2c0.8-1.6,1.8-2.7,3.1-3.3
		l1.1-0.1c0.1,0.2-0.1,0.5-0.7,0.9l-1.2,1.2l-1.2,1.9c-0.3,0.6-0.6,0.8-1,0.6C169.5,31.2,169.5,30.8,169.7,30.2z M164.4,58.9
		c0.9-0.9,1.5-1.1,1.7-0.6c0.2,0.4-0.2,1-1.1,1.7c-0.9,0.7-1.5,0.9-1.7,0.6C163.1,60.3,163.4,59.7,164.4,58.9z M152.8,55
		c0.4-0.2,1,0.3,1.8,1.5c0.8,1.2,1,2,0.4,2.2c-0.5,0.2-1.1-0.3-1.8-1.5C152.6,55.9,152.4,55.2,152.8,55z M136.9,15.1
		c0.1-0.3,0.5-0.3,1.1,0c1.2,0.5,2.2,1.3,3,2.3c0.9,1.1,1.4,2.3,1.5,3.6c0.1,1.1-0.1,1.6-0.4,1.6c-0.4,0-0.7-0.5-0.8-1.5
		c-0.5-2.3-1.6-4-3.5-5.1C137,15.7,136.8,15.4,136.9,15.1z M121.2,37.2c0.3-3,0.9-5.8,1.8-8.5c2.5-7.3,6.1-10.9,10.9-10.5
		c5,0.3,7.1,5.1,6.6,14.4c-0.2,3.4-0.7,6.7-1.6,9.8c-0.9,3-1.6,4.6-2.3,4.9c-1.4,0.6-4.1,0.4-8.3-0.7c-4.4-1.1-6.7-2.3-7-3.6
		C120.9,41.8,120.9,39.8,121.2,37.2z M184,101.7c0.5,1,0.8,1.8,0.8,2.3c0,0.2-0.2,0.5-0.4,0.7c-5.4,0.5-11.5,0-18.3-1.4
		c-5.3-1.1-9.1-2.2-11.5-3.4c0-0.7,0.1-1.5,0.1-2.2c0-4.7-1.1-9.6-3.3-14.7c3.6-0.7,7.2-2,10.6-3.8c0.2-0.1,0.4-0.2,0.6-0.3
		c2,0.6,4.9,2,8.9,4.3c4.8,2.8,7.9,5.1,9.4,6.9c0.4,0.5,0.7,0.6,1,0.3c0.3-0.3,0.2-0.7-0.1-1.1c-0.3-0.4-0.6-0.7-1-1.1l2.4,0.1
		l2,0.4V89c0,1-0.3,2.5-0.9,4.6v0.6l0.5,0.3c1.8,0.7,2.9,1.2,3.2,1.7c-0.2,0.7-1.4,2.2-3.7,4.5C183.8,101.1,183.8,101.4,184,101.7z
		 M86.3,132.2c1.6,3,2.8,5.9,3.7,8.8c-0.6,2.6-2.6,7.3-6,14.2L76,170.8c-0.9,1.6-2.2,3.5-3.9,5.5c-1,1.2-1.8,2-2.3,2.5
		c-0.3-0.3-0.7-0.6-1.2-1.1l-3.4-3.7l-0.5-0.1c0.1-0.2,0.1-0.4,0-0.6c-0.2-0.6-0.8-0.8-1.7-0.6c-0.6,0.1-2.4,1-5.3,2.5
		c-2,1.1-3.2,1.6-3.8,1.7c-0.3-1-0.4-2.9-0.4-5.5c0-0.3-0.1-0.5-0.3-0.6c0-1.1-1.3-2.2-4-3.3c-1.8-0.8-3.1-1.2-3.8-1.4
		c0,0,0-0.1-0.1-0.1c0-0.4,0.6-1.3,1.9-2.6l4.5-4l0.3-0.5c0.4-2.6,0.9-5.5,1.6-8.7c1.5-6.5,3.3-11.4,5.4-14.9
		c2.7-4.6,5.5-8.1,8.4-10.5c2-1.7,4-2.7,5.8-3c1.9-0.4,3.6-0.2,5,0.8C81.3,124.5,83.9,127.7,86.3,132.2z M158.4,159.3
		c1.1,0.6,1.8,1,2.1,1.4l-4,0.8l-5.4,0.5c0,0,0,0,0,0c-0.1,0.3,0.5,0.7,1.8,1.1c0.3,0.1,0.6,0.2,0.9,0.3c-7.9,0.9-14.7-1.2-20.5-6.5
		c-2.4-2.2-3.9-4.3-4.4-6.5c-0.4-1.3-0.3-2.4,0-3.3c6.9-4.2,12.5-9.4,16.6-15.6c3.6,2.9,6.1,6.5,7.7,10.9c1.7,4.9,1.7,9.3,0,13.2
		l-0.2,0.7l0.5,0.5C155.4,157.8,157,158.5,158.4,159.3z M55.7,136.7c-3.7-0.5-8.2-2.7-13.5-6.7c-6.5-4.9-11.4-10.6-14.7-17.2
		c1.3-0.8,2.6-1.7,3.8-2.9c3.6-3.6,5.4-7.7,5.4-12.3c0-3-0.8-5.7-2.5-8.1c-1.7-2.5-3.8-4-6.4-4.5c-1.5-0.3-2.8-0.3-3.8,0
		c-1.2,0.4-2.1,1.3-2.8,2.7c-0.3,0.7-0.3,1.1,0,1.2c0.3,0.2,0.6-0.1,1-0.7c0.5-0.8,1.3-1.4,2.2-1.7c0.9-0.3,1.9-0.3,3,0
		c1.7,0.5,3.2,1.6,4.4,3.3c1.4,2.1,2.1,4.7,2.1,7.8c0,1.4-0.2,2.8-0.5,4.1c-1.8,1.6-4,2.4-6.7,2.5c-3.4,0.1-6.7-0.9-9.8-3.1
		c-3.4-2.4-5.9-5.6-7.5-9.7c-1.5-3.9-2-8.1-1.6-12.8c1.5-2.4,3.3-4.6,5.5-6.6c5.6-5,11.7-7.4,18.3-7.4c7.3,0,13,2.7,17.1,8.2
		c3.9,5.3,5.9,12.6,5.8,21.9c-1.1,4.7-1.7,9.7-2,15c-0.4,10.6,1.2,18.3,5,23.2c-0.1,0.2-0.2,0.4-0.4,0.6
		C56.7,134.5,56.2,135.6,55.7,136.7z"/>
	<path class="st2" d="M80.9,58.9c-0.2-2.6-0.3-4.9-0.1-6.8c0.2-1.6,0.4-2.6,0.7-3c0.1,0.3,0.3,0.6,0.5,1c1.2,3.1,1.3,6.1,0.4,9
		c-0.3,1.1-0.7,1.7-1.2,2c-0.3,0.2-0.5,0.1-0.7-0.2C80.9,60.7,81,60.1,80.9,58.9z M68.8,53.2c-1.6-2.4-2.7-3.5-3.4-3.4
		c-0.7,2.6,1.7,9.8,7.3,21.5c5.9,12.4,10.9,20,15,22.6c2.8,1.9,6.2,2.1,10.1,0.7c1-0.4,2-0.8,2.9-1.3c-1.2-2.6-5.6-8.5-13.3-17.7
		L68.8,53.2z M166,103.4c-5.3-1.1-9.1-2.2-11.5-3.4c-0.1,2.2-0.2,4.4-0.4,6.5c1.7,0.6,3.6,1.2,5.8,1.7l10.3,1
		c3.4,0,6.8-0.7,10.1-2.2c2-0.9,3.4-1.7,4-2.3C179,105.3,172.9,104.8,166,103.4z M156.5,161.6l-5.4,0.5l2.1-0.1
		c1.7,0.3,3.2,0.9,4.5,1.7c2-1.3,3-2.1,3-2.5c0-0.1-0.1-0.2-0.2-0.4L156.5,161.6z M156.3,164.5c-0.7-0.4-1.6-0.8-2.5-1.1
		c-7.9,0.9-14.7-1.2-20.5-6.5c-2.4-2.2-3.9-4.3-4.4-6.5c-0.4-1.3-0.3-2.4,0-3.3c-0.4,0.2-0.8,0.5-1.2,0.7c-4.3,2.5-8.7,4.4-13.4,5.6
		c4.5,2.6,9,6.7,13.7,12.6l4.5,6c1.3,1.7,2.2,2.5,2.6,2.4c3.2-0.2,7.8-1.5,13.8-4c5.8-2.4,8.6-3.9,8.7-4.7
		C157.7,165.5,157.2,165.1,156.3,164.5z M49.3,167.5c-1.8-0.8-3.1-1.2-3.8-1.4c0.2,0.4,1,1,2.3,1.9c1.5,1,3.2,1.9,5.2,2.7
		c0.1,0,0.2,0.1,0.2,0.1C53.2,169.7,51.9,168.6,49.3,167.5z M63,172.7c-0.6,0.1-2.4,1-5.3,2.5c-2,1.1-3.2,1.6-3.8,1.7
		c0.1,0.3,0.2,0.5,0.2,0.7c1.3-0.3,4.7-1.5,10.1-3.7l0.4,0.1c0.1-0.2,0.1-0.4,0-0.6C64.5,172.7,63.9,172.5,63,172.7z M90,141
		c-0.6,2.6-2.6,7.3-6,14.2L76,170.8c-0.9,1.6-2.2,3.5-3.9,5.5c-1,1.2-1.8,2-2.3,2.5c0.6,0.5,1,0.8,1.3,0.8c0.6-0.3,2.2-2.2,4.6-5.5
		l5.2-7.7c1.1-1.8,3.6-5.2,7.3-10l1.9-2.5c0.8-1.1,1.2-2.7,1.2-5l-0.2-3.3C90.8,144,90.5,142.5,90,141z M42.2,130.1
		c-6.5-4.9-11.4-10.6-14.7-17.2c-2.6,1.5-5.4,2.3-8.5,2.3c-4,0-7.6-1.5-10.8-4.5c4,7.3,9.5,13.8,16.5,19.7
		c9.7,8.1,19.3,12.3,28.8,12.6c0.7-2.4,1.4-4.5,2.2-6.3C52,136.2,47.5,134,42.2,130.1z M19,113.2c4.1,0,7.6-1.5,10.5-4.5
		c1.9-2,3.2-4.3,3.8-6.9c-1.8,1.6-4,2.4-6.7,2.5c-3.4,0.1-6.7-0.9-9.8-3.1c-3.4-2.4-5.9-5.6-7.5-9.7c-1.5-3.9-2-8.1-1.6-12.8
		c-2.6,4.4-4,9.4-4,15c0,5.5,1.5,10.1,4.4,13.8C11.2,111.3,14.7,113.2,19,113.2z"/>
	<path class="st3" d="M87.6,130.2c-2.2-3.7-4.9-6.7-8.2-9c-1.1-0.7-2.2-1.2-3.5-1.3c7.6-7,11.6-15,12-23.9c3,1.5,6.4,1.7,10.4,0.5
		c1.5-0.5,2.9-1.1,4.2-1.8l0.7,10.8l0.6,11.7C97.9,123.3,92.5,127.6,87.6,130.2z M114.6,127.6c-4.2-2.4-7.5-5.4-9.9-8.9
		c0,0,0-0.1-0.1-0.2l-5.1,4.9c-4,3.6-7.7,6.3-11.2,8.1c1.2,2.2,2.2,4.5,3,7.1c6.6,2.3,14.8,3.3,24.5,3.1c2.4,0,4.7-0.2,6.9-0.4
		c1.5-2.5,3.2-5.6,5-9.4C123.1,131.5,118.7,130,114.6,127.6z M105.4,117.3c2.1,3,5.4,5.7,9.9,8.1c4.2,2.2,8.7,3.7,13.5,4.7
		c0.5-1,0.9-2,1.4-3.1c4.8-10.8,7.6-18.9,8.3-24.3c-2.7-0.1-5.5-0.5-8.4-1.2c-4.9-1.3-9.2-3.3-12.9-6c-3.2-2.3-5.6-5-7.2-7.9
		c-0.1,0.2-0.3,0.4-0.4,0.6c-1.6,2.3-3.5,4.1-5.5,5.5l0.8,12L105.4,117.3z M117.8,93.7c3.6,2.6,7.9,4.5,12.8,5.7
		c4.5,1.2,8.8,1.6,12.8,1.3c4-0.3,7-1.3,9.1-2.9c0-4.5-0.7-8.8-2.2-12.8c-0.7,0.5-1.5,0.9-2.5,1.4c-3.1,1.4-6.4,2.1-10.1,2.1
		c-4.1,0-9-2.1-15-6.2c-4.4-3.1-7.5-5.8-9.2-8.3c0,0,0,0,0,0c0,1.9-0.2,4.1-0.8,6.7c-0.5,2-1.1,3.7-1.7,5.2
		C112.3,88.8,114.6,91.4,117.8,93.7z M140.1,102.7c-0.7,6.4-3.4,14.9-8.2,25.4c-0.3,0.7-0.6,1.4-0.9,2l6,0.3c2.7-0.1,5-0.3,6.8-0.7
		c0.4-0.6,0.7-1.1,1.1-1.7c4.8-8.2,7.4-17.6,7.7-28.3c-2.3,1.4-5.2,2.3-8.8,2.7C142.5,102.7,141.3,102.7,140.1,102.7z M130,132.4
		c-1.6,3.4-3.2,6.4-4.7,8.8c4.9-0.7,9-1.8,12.2-3.4c1.9-1.9,3.6-4.1,5.2-6.3c-1.6,0.4-3.5,0.7-5.7,0.8
		C134.4,132.6,132.1,132.6,130,132.4z"/>
	<path class="st4" d="M150.3,85c-0.7,0.5-1.5,0.9-2.5,1.4c-3.1,1.4-6.4,2.1-10.1,2.1c-4.1,0-9-2.1-15-6.2c-4.4-3.1-7.5-5.8-9.2-8.3
		c2.3,1.7,4.8,3.2,7.5,4.5c3,1.4,6.1,2.6,9.5,3.5c1.9,0.5,3.8,0.9,5.8,1.3c1.2,0.2,2.4,0.3,3.6,0.4c0.3,0,0.7,0,1,0.1
		c3,0.2,6,0,8.9-0.4C149.9,83.9,150.1,84.5,150.3,85z M122.8,141.5c-2.2,0.2-4.4,0.3-6.9,0.4c-9.8,0.2-17.9-0.9-24.5-3.1
		c0,0.1,0.1,0.2,0.1,0.3c0.9,2.8,1.4,5.4,1.6,7.6l11.8,1.1c5.9,0.4,10.1,0.4,12.7,0.3C119.1,146.9,120.9,144.7,122.8,141.5z
		 M118.7,149.2l0.1,1c2.8-1.1,5.5-2.5,8.2-4.1c3.9-2.4,7.3-5.1,10.4-8.2c-3.2,1.6-7.3,2.8-12.2,3.4
		C122.9,145,120.7,147.6,118.7,149.2z M104.1,149.3L93.2,148c0.1,1.8-0.1,3.3-0.5,4.6c3.4,1.5,8.1,1.7,14.2,0.8
		c3.6-0.5,7.1-1.5,10.6-2.7l-0.2-1.1L104.1,149.3z"/>
	<path class="st5" d="M77.9,93.9c-0.6,3.8-1.4,6.6-2.5,8.3l-4.6,5.5c-2.1,2.3-3.4,4.1-4,5.4c-0.1,0.2-0.2,0.5-0.3,0.7
		c-0.7-1.2-1.4-2.5-2-3.9c-0.8-3-1.3-6.9-1.6-12c-0.5-7.5-0.1-13.9,1.1-19.3c1.8-3.3,3.7-6.4,5.9-9.4c0.4,0.9,0.8,1.7,1.3,2.7
		c2.6,5.2,5,9.6,7.2,13.1C78.5,87.6,78.4,90.6,77.9,93.9z"/>
	<path class="st6" d="M86,94.8c-0.1,4.6-1.6,9.6-4.6,14.9c-1.3,2.4-2.7,4.4-4.1,6.2c-2.4,1-4.7,1.4-6.8,1.2
		c-1.6-0.1-2.7-0.5-3.3-1.1c0.3-0.8,0.6-1.6,0.9-2.2c0.5-1.1,1.7-2.6,3.6-4.5l5.2-5.9c1.3-1.9,2.3-4.5,2.9-7.9
		c0.5-2.5,0.6-4.8,0.5-7.1C82.4,91.4,84.3,93.5,86,94.8z M95.7,46.2c-1.4,0.5-2.7,1.2-3.8,2.1c2.2,1.8,3.9,3.2,5.3,4.3
		C96.4,50.5,96,48.3,95.7,46.2z"/>
	<path class="st7" d="M138.2,24.7c0.5,3.1,0.2,6.6-0.9,10.6c-1.2,4.5-3.2,7.9-5.7,10.2l-0.8-0.1c-3-0.5-5.2-1.1-6.7-1.9l-0.9-0.6
		l-0.2-0.3c-0.1-0.5,0-1.9,0.3-4.2c0.3-2.7,0.8-5,1.3-7c0.8-2.8,1.7-5,2.7-6.8c-0.2,1.1-0.2,2.1,0.1,3c0.1,0.3,0.2,0.7,0.4,0.9
		c-0.3,0.8-0.6,1.6-0.8,2.5c-0.4,2-0.5,3.7-0.1,5.2c0.4,1.7,1.1,2.6,2.1,2.8c1.1,0.2,2.2-0.3,3.2-1.7c1-1.3,1.7-2.9,2-4.9
		c0.3-1.6,0.4-3.1,0.2-4.5c0.4-0.5,0.7-1.1,0.9-1.9c0.4-1.4,0.4-2.8,0-4.3c-0.3-0.8-0.6-1.4-1-1.9c1.2,0.2,2.2,0.8,2.9,1.8
		C137.6,22.5,138,23.5,138.2,24.7C138.2,24.7,138.2,24.7,138.2,24.7z M176,35.9c-0.4-1.4-1-2.5-1.6-3.1c-0.2,0.3-0.3,0.6-0.4,0.9
		c0.1,0,0.2,0,0.2,0c0.3,0.1,0.5,0.5,0.7,1.2c0.2,0.7,0.2,1.5,0,2.2c0,0.2-0.1,0.3-0.1,0.5c0.3,0.4,0.4,1,0.5,1.9
		c0.1,1.1-0.1,2.3-0.4,3.8c-0.3,1.2-0.8,2.2-1.5,3.1c-0.7,0.8-1.2,1.1-1.6,1c-0.1,0-0.2-0.1-0.3-0.2c0,1.8,0.2,3.2,0.6,4.3
		c0.2,0.6,0.4,0.8,0.6,0.8c0.4,0,0.8-0.1,1.2-0.4c0.7-0.6,1.3-1.7,1.8-3.4c0.5-1.7,0.8-3.7,0.9-6l0-1.2
		C176.8,39.3,176.5,37.5,176,35.9z"/>
	<path class="st8" d="M138.1,37.4c-0.2,1.3-0.5,2.6-0.8,3.9c-0.6,2.5-1.1,4-1.5,4.4l-2.7-0.2C135.2,43.6,136.9,40.9,138.1,37.4z
		 M134.4,27.9c0.4-0.5,0.7-1.1,0.9-1.9c0.4-1.4,0.4-2.8,0-4.3c-0.3-0.8-0.6-1.4-1-1.9c-0.1,0-0.3-0.1-0.4-0.1
		c-1.9-0.1-3.7,0.8-5.3,2.7c-0.5,0.6-0.9,1.2-1.3,1.9c-0.2,1.1-0.2,2.1,0.1,3c0.1,0.3,0.2,0.7,0.4,0.9c0.4,0.8,1.1,1.3,2,1.6
		c1,0.3,2,0.1,3.1-0.5C133.4,29.1,133.9,28.5,134.4,27.9z M174.9,34.9c-0.2-0.7-0.4-1.1-0.7-1.2c-0.1,0-0.2,0-0.2,0
		c-0.7,1.5-1.2,3.2-1.7,5.1c0,0.2-0.1,0.4-0.1,0.6c0.2,0.6,0.4,0.9,0.8,1c0.7,0.1,1.3-0.8,1.8-2.8c0-0.1,0.1-0.3,0.1-0.5
		C175.1,36.4,175.1,35.6,174.9,34.9z"/>
	<path class="st9" d="M65.7,115.8c-0.5,1.4-1,3-1.5,4.9c-0.5,1.9-0.8,3.6-1.1,5.2c-1.6,1.6-3.1,3.5-4.5,5.7
		c-3.3-4.7-4.6-11.9-3.8-21.7c0.5-6.3,1.6-12.3,3.4-17.8c0,2.4,0.3,4.9,0.8,7.5C60,105.1,62.3,110.5,65.7,115.8z M64.4,110
		c-0.8-3-1.3-6.9-1.6-12c-0.5-7.5-0.1-13.9,1.1-19.3c-0.9,1.6-1.7,3.2-2.5,4.9c-0.4,0.8-0.7,1.6-1.1,2.5c-0.7,3.7-0.4,8.1,0.7,13.4
		C61.7,103.3,62.9,106.8,64.4,110z"/>
	<path class="st10" d="M77.3,116c-1.2,1.5-2.5,2.9-3.9,4c-1.3,0.2-2.6,0.6-4,1.3c-1.6,0.8-3.2,1.8-4.7,3.1c0.2-1.1,0.6-2.4,1-3.9
		c0.5-1.6,1-3,1.5-4.3c0.6,0.6,1.7,0.9,3.3,1.1C72.6,117.3,74.9,116.9,77.3,116z"/>
</g>
</svg>
